{
.appVersion = "926";
copyright = "Copyright (c) 2010 by Anton Koovit.";
customParameters = (
{
name = licenseURL;
value = anton.korkork.com/Arvo/OFL.htm;
},
{
name = description;
value = "Copyright (c) 2010 by Anton Koovit. \012All rights reserved under SIL openfont License 1.1 ";
},
{
name = trademark;
value = "Copyright (c) 2010 by Anton Koovit. ";
},
{
name = license;
value = "Arvo roman regular can be used under SIL openfont License 1.1 For conditions of use, modification and resale read carefully full Open Font License text. No warranty, no liabilty.";
},
{
name = openTypeOS2VendorID;
value = KORK;
},
{
name = openTypeOS2Type;
value = (
2
);
}
);
date = "2010-04-19 19:43:45 +0000";
designer = "Anton Koovit";
designerURL = anton.korkork.com;
disablesAutomaticAlignment = 1;
familyName = "Arvo Two";
featurePrefixes = (
{
automatic = 1;
code = "languagesystem DFLT dflt;\012";
name = Languagesystems;
}
);
features = (
{
automatic = 1;
code = "feature subs;\012feature sups;\012feature frac;\012feature ordn;\012";
name = aalt;
},
{
automatic = 1;
code = "sub two by twoinferior;\012sub four by fourinferior;\012";
name = subs;
},
{
automatic = 1;
code = "sub one by onesuperior;\012sub two by twosuperior;\012sub three by threesuperior;\012sub four by foursuperior;\012";
name = sups;
},
{
automatic = 1;
code = "sub one slash four by onequarter;\012sub one slash two by onehalf;\012sub three slash four by threequarters;\012";
name = frac;
},
{
automatic = 1;
code = "sub [zero one two three four five six seven eight nine] [A a]' by ordfeminine;\012sub [zero one two three four five six seven eight nine] [O o]' by ordmasculine;\012";
name = ordn;
}
);
fontMaster = (
{
alignmentZones = (
"{770, 0}",
"{740, 15}",
"{506, 15}",
"{-15, 15}",
"{-250, 0}"
);
ascender = 760;
capHeight = 740;
customParameters = (
{
name = hheaDescender;
value = -274;
},
{
name = typoDescender;
value = -274;
},
{
name = hheaLineGap;
value = 210;
},
{
name = typoLineGap;
value = 210;
},
{

glyphs = (
{
glyphname = A;
lastChange = "2016-10-12 20:19:07 +0000";
layers = (
{
anchors = (
{
name = top;
position = "{361, 740}";
}
);
layerId = UUID0;
paths = (
{
closed = 1;
nodes = (
"437 0 LINE",
"717 0 LINE",
"717 134 LINE",
"663 134 LINE",
"466 740 LINE",
"270 740 LINE",
"68 134 LINE",
"14 134 LINE",
"14 0 LINE",
"294 0 LINE",
"294 134 LINE",
"216 134 LINE",
"249 240 LINE",
"477 240 LINE",
"510 134 LINE",
"437 134 LINE"
);
},
{
closed = 1;
nodes = (
"362 606 LINE",
"437 365 LINE",
"288 365 LINE"
);
}
);
width = 728;
},
{
anchors = (
{
name = top;
position = "{369, 740}";
}
);
layerId = UUID1;
paths = (
{
closed = 1;
nodes = (
"508 0 LINE",
"748 0 LINE",
"748 84 LINE",
"674 84 LINE",
"444 740 LINE",
"300 740 LINE",
"69 84 LINE",
"5 84 LINE",
"5 0 LINE",
"245 0 LINE",
"245 84 LINE",
"168 84 LINE",
"226 252 LINE",
"511 252 LINE",
"569 84 LINE",
"508 84 LINE"
);
},
{
closed = 1;
nodes = (
"367 664 LINE",
"482 333 LINE",
"253 333 LINE"
);
}
);
width = 753;
}
);
unicode = 0041;
},
{
glyphname = Aacute;
lastChange = "2016-10-12 20:19:08 +0000";
layers = (
{
components = (
{
name = acute;
transform = "{1, 0, 0, 1, 291, 234}";
}
);
layerId = UUID0;
paths = (
{
closed = 1;
nodes = (
"437 0 LINE",
"717 0 LINE",
"717 134 LINE",
"663 134 LINE",
"466 740 LINE",
"270 740 LINE",
"68 134 LINE",
"14 134 LINE",
"14 0 LINE",
"294 0 LINE",
"294 134 LINE",
"216 134 LINE",
"249 240 LINE",
"477 240 LINE",
"510 134 LINE",
"437 134 LINE"
);
},
{
closed = 1;
nodes = (
"362 606 LINE",
"437 365 LINE",
"288 365 LINE"
);
}
);
width = 728;
},
{
components = (
{
name = acute;
transform = "{1, 0, 0, 1, 260, 234}";
}
);
layerId = UUID1;
paths = (
{
closed = 1;
nodes = (
"508 0 LINE",
"748 0 LINE",
"748 84 LINE",
"674 84 LINE",
"444 740 LINE",
"300 740 LINE",
"69 84 LINE",
"5 84 LINE",
"5 0 LINE",
"245 0 LINE",
"245 84 LINE",
"168 84 LINE",
"226 252 LINE",
"511 252 LINE",
"569 84 LINE",
"508 84 LINE"
);
},
{
closed = 1;
nodes = (
"367 664 LINE",
"482 333 LINE",
"253 333 LINE"
);
}
);
width = 753;
}
);
unicode = 00C1;
},
{
glyphname = Acircumflex;
lastChange = "2016-10-12 20:19:08 +0000";
layers = (
{
components = (
{
name = circumflex;
transform = "{1, 0, 0, 1, 145, 234}";
}
);
layerId = UUID0;
paths = (
{
closed = 1;
nodes = (
"437 0 LINE",
"717 0 LINE",
"717 134 LINE",
"663 134 LINE",
"466 740 LINE",
"270 740 LINE",
"68 134 LINE",
"14 134 LINE",
"14 0 LINE",
"294 0 LINE",
"294 134 LINE",
"216 134 LINE",
"249 240 LINE",
"477 240 LINE",
"510 134 LINE",
"437 134 LINE"
);
},
{
closed = 1;
nodes = (
"362 606 LINE",
"437 365 LINE",
"288 365 LINE"
);
}
);
width = 728;
},
{
components = (
{
name = circumflex;
transform = "{1, 0, 0, 1, 137, 234}";
}
);
layerId = UUID1;
paths = (
{
closed = 1;
nodes = (
"508 0 LINE",
"748 0 LINE",
"748 84 LINE",
"674 84 LINE",
"444 740 LINE",
"300 740 LINE",
"69 84 LINE",
"5 84 LINE",
"5 0 LINE",
"245 0 LINE",
"245 84 LINE",
"168 84 LINE",
"226 252 LINE",
"511 252 LINE",
"569 84 LINE",
"508 84 LINE"
);
},
{
closed = 1;
nodes = (
"367 664 LINE",
"482 333 LINE",
"253 333 LINE"
);
}
);
width = 753;
}
);
unicode = 00C2;
},
{
glyphname = Adieresis;
lastChange = "2016-10-12 20:19:08 +0000";
layers = (
{
components = (
{
name = dotaccent;
transform = "{1, 0, 0, 1, 113, 220}";
},
{
name = dotaccent;
transform = "{1, 0, 0, 1, 347, 220}";
}
);
layerId = UUID0;
paths = (
{
closed = 1;
nodes = (
"437 0 LINE",
"717 0 LINE",
"717 134 LINE",
"663 134 LINE",
"466 740 LINE",
"270 740 LINE",
"68 134 LINE",
"14 134 LINE",
"14 0 LINE",
"294 0 LINE",
"294 134 LINE",
"216 134 LINE",
"249 240 LINE",
"477 240 LINE",
"510 134 LINE",
"437 134 LINE"
);
},
{
closed = 1;
nodes = (
"362 606 LINE",
"437 365 LINE",
"288 365 LINE"
);
}
);
width = 728;
},
{
components = (
{
name = dotaccent;
transform = "{1, 0, 0, 1, 105, 213}";
},
{
name = dotaccent;
transform = "{1, 0, 0, 1, 329, 213}";
}
);
layerId = UUID1;
paths = (
{
closed = 1;
nodes = (
"508 0 LINE",
"748 0 LINE",
"748 84 LINE",
"674 84 LINE",
"444 740 LINE",
"300 740 LINE",
"69 84 LINE",
"5 84 LINE",
"5 0 LINE",
"245 0 LINE",
"245 84 LINE",
"168 84 LINE",
"226 252 LINE",
"511 252 LINE",
"569 84 LINE",
"508 84 LINE"
);
},
{
closed = 1;
nodes = (
"367 664 LINE",
"482 333 LINE",
"253 333 LINE"
);
}
);
width = 753;
}
);
unicode = 00C4;
},
{
glyphname = Agrave;
lastChange = "2016-10-12 20:19:08 +0000";
layers = (
{
components = (
{
name = grave;
transform = "{1, 0, 0, 1, 96, 234}";
}
);
layerId = UUID0;
paths = (
{
closed = 1;
nodes = (
"437 0 LINE",
"717 0 LINE",
"717 134 LINE",
"663 134 LINE",
"466 740 LINE",
"270 740 LINE",
"68 134 LINE",
"14 134 LINE",
"14 0 LINE",
"294 0 LINE",
"294 134 LINE",
"216 134 LINE",
"249 240 LINE",
"477 240 LINE",
"510 134 LINE",
"437 134 LINE"
);
},
{
closed = 1;
nodes = (
"362 606 LINE",
"437 365 LINE",
"288 365 LINE"
);
}
);
width = 728;
},
{
components = (
{
name = grave;
transform = "{1, 0, 0, 1, 104, 234}";
}
);
layerId = UUID1;
paths = (
{
closed = 1;
nodes = (
"508 0 LINE",
"748 0 LINE",
"748 84 LINE",
"674 84 LINE",
"444 740 LINE",
"300 740 LINE",
"69 84 LINE",
"5 84 LINE",
"5 0 LINE",
"245 0 LINE",
"245 84 LINE",
"168 84 LINE",
"226 252 LINE",
"511 252 LINE",
"569 84 LINE",
"508 84 LINE"
);
},
{
closed = 1;
nodes = (
"367 664 LINE",
"482 333 LINE",
"253 333 LINE"
);
}
);
width = 753;
}
);
unicode = 00C0;
},
{
glyphname = Aring;
lastChange = "2016-10-12 20:19:08 +0000";
layers = (
{
components = (
{
name = ring;
transform = "{1, 0, 0, 1, 67, 234}";
}
);
layerId = UUID0;
paths = (
{
closed = 1;
nodes = (
"437 0 LINE",
"717 0 LINE",
"717 134 LINE",
"663 134 LINE",
"466 740 LINE",
"270 740 LINE",
"68 134 LINE",
"14 134 LINE",
"14 0 LINE",
"294 0 LINE",
"294 134 LINE",
"216 134 LINE",
"249 240 LINE",
"477 240 LINE",
"510 134 LINE",
"437 134 LINE"
);
},
{
closed = 1;
nodes = (
"362 606 LINE",
"437 365 LINE",
"288 365 LINE"
);
}
);
width = 728;
},
{
components = (
{
name = ring;
transform = "{1, 0, 0, 1, 73, 234}";
}
);
layerId = UUID1;
paths = (
{
closed = 1;
nodes = (
"508 0 LINE",
"748 0 LINE",
"748 84 LINE",
"674 84 LINE",
"444 740 LINE",
"300 740 LINE",
"69 84 LINE",
"5 84 LINE",
"5 0 LINE",
"245 0 LINE",
"245 84 LINE",
"168 84 LINE",
"226 252 LINE",
"511 252 LINE",
"569 84 LINE",
"508 84 LINE"
);
},
{
closed = 1;
nodes = (
"367 664 LINE",
"482 333 LINE",
"253 333 LINE"
);
}
);
width = 753;
}
);
unicode = 00C5;
},
{
glyphname = Atilde;
lastChange = "2016-10-12 20:19:08 +0000";
layers = (
{
components = (
{
name = tilde;
transform = "{1, 0, 0, 1, 135, 234}";
}
);
layerId = UUID0;
paths = (
{
closed = 1;
nodes = (
"437 0 LINE",
"717 0 LINE",
"717 134 LINE",
"663 134 LINE",
"466 740 LINE",
"270 740 LINE",
"68 134 LINE",
"14 134 LINE",
"14 0 LINE",
"294 0 LINE",
"294 134 LINE",
"216 134 LINE",
"249 240 LINE",
"477 240 LINE",
"510 134 LINE",
"437 134 LINE"
);
},
{
closed = 1;
nodes = (
"362 606 LINE",
"437 365 LINE",
"288 365 LINE"
);
}
);
width = 728;
},
{
components = (
{
name = tilde;
transform = "{1, 0, 0, 1, 153, 234}";
}
);
layerId = UUID1;
paths = (
{
closed = 1;
nodes = (
"508 0 LINE",
"748 0 LINE",
"748 84 LINE",
"674 84 LINE",
"444 740 LINE",
"300 740 LINE",
"69 84 LINE",
"5 84 LINE",
"5 0 LINE",
"245 0 LINE",
"245 84 LINE",
"168 84 LINE",
"226 252 LINE",
"511 252 LINE",
"569 84 LINE",
"508 84 LINE"
);
},
{
closed = 1;
nodes = (
"367 664 LINE",
"482 333 LINE",
"253 333 LINE"
);
}
);
width = 753;
}
);
unicode = 00C3;
},
{
glyphname = AE;
lastChange = "2016-10-12 20:19:08 +0000";
layers = (
{
layerId = UUID0;
paths = (
{
closed = 1;
nodes = (
"-17 0 LINE",
"264 0 LINE",
"264 134 LINE",
"207 134 LINE",
"221 156 OFFCURVE",
"234 179 OFFCURVE",
"248 201 CURVE",
"490 201 LINE",
"490 134 LINE",
"431 134 LINE",
"431 0 LINE",
"992 0 LINE",
"992 265 LINE",
"833 265 LINE",
"833 134 LINE",
"652 134 LINE",
"652 310 LINE",
"794 310 LINE",
"794 444 LINE",
"652 444 LINE",
"652 593 LINE",
"833 593 LINE",
"833 488 LINE",
"992 488 LINE",
"992 740 LINE",
"431 740 LINE",
"302 538 OFFCURVE",
"174 336 OFFCURVE",
"45 134 CURVE",
"-17 134 LINE"
);
},
{
closed = 1;
nodes = (
"328 335 LINE",
"379 421 OFFCURVE",
"431 507 OFFCURVE",
"482 593 CURVE",
"490 593 LINE",
"490 335 LINE"
);
}
);
width = 1022;
},
{
layerId = UUID1;
paths = (
{
closed = 1;
nodes = (
"-1 0 LINE",
"239 0 LINE",
"239 84 LINE",
"159 84 LINE",
"183 125 OFFCURVE",
"208 167 OFFCURVE",
"231 208 CURVE",
"484 208 LINE",
"484 84 LINE",
"423 84 LINE",
"423 0 LINE",
"907 0 LINE",
"907 209 LINE",
"807 209 LINE",
"807 84 LINE",
"580 84 LINE",
"580 337 LINE",
"765 337 LINE",
"765 421 LINE",
"580 421 LINE",
"580 656 LINE",
"807 656 LINE",
"807 531 LINE",
"907 531 LINE",
"907 740 LINE",
"449 740 LINE",
"316 521 OFFCURVE",
"184 303 OFFCURVE",
"51 84 CURVE",
"-1 84 LINE"
);
},
{
closed = 1;
nodes = (
"281 292 LINE",
"349 408 OFFCURVE",
"416 524 OFFCURVE",
"484 641 CURVE",
"484 553 LINE",
"484 292 LINE"
);
}
);
width = 935;
}
);
unicode = 00C6;
},
{
glyphname = B;
lastChange = "2016-10-12 20:19:07 +0000";
layers = (
{
anchors = (
{
name = top;
position = "{373, 700}";
}
);
layerId = UUID0;
paths = (
{
closed = 1;
nodes = (
"55 0 LINE",
"427 0 LINE SMOOTH",
"553 0 OFFCURVE",
"651 95 OFFCURVE",
"651 229 CURVE SMOOTH",
"651 294 OFFCURVE",
"621 340 OFFCURVE",
"572 371 CURVE",
"618 399 OFFCURVE",
"644 445 OFFCURVE",
"644 516 CURVE SMOOTH",
"644 638 OFFCURVE",
"550 740 OFFCURVE",
"416 740 CURVE",
"55 741 LINE",
"55 606 LINE",
"131 606 LINE",
"131 134 LINE",
"55 134 LINE"
);
},
{
closed = 1;
nodes = (
"416 306 LINE",
"453 306 OFFCURVE",
"484 269 OFFCURVE",
"484 221 CURVE SMOOTH",
"484 176 OFFCURVE",
"454 134 OFFCURVE",
"416 134 CURVE SMOOTH",
"293 134 LINE",
"293 306 LINE"
);
},
{
closed = 1;
nodes = (
"409 606 LINE",
"446 606 OFFCURVE",
"476 561 OFFCURVE",
"476 521 CURVE SMOOTH",
"476 480 OFFCURVE",
"446 440 OFFCURVE",
"409 440 CURVE SMOOTH",
"293 440 LINE",
"293 606 LINE"
);
}
);
width = 677;
},
{
anchors = (
{
name = top;
position = "{335, 700}";
}
);
layerId = UUID1;
paths = (
{
closed = 1;
nodes = (
"70 0 LINE",
"393 0 LINE SMOOTH",
"513 0 OFFCURVE",
"609 97 OFFCURVE",
"609 220 CURVE SMOOTH",
"609 283 OFFCURVE",
"567 342 OFFCURVE",
"504 375 CURVE",
"568 406 OFFCURVE",
"605 461 OFFCURVE",
"605 524 CURVE SMOOTH",
"605 645 OFFCURVE",
"509 740 OFFCURVE",
"389 740 CURVE",
"70 741 LINE",
"70 656 LINE",
"126 656 LINE",
"126 84 LINE",
"70 84 LINE"
);
},
{
closed = 1;
nodes = (
"394 329 LINE",
"455 329 OFFCURVE",
"505 275 OFFCURVE",
"505 218 CURVE SMOOTH",
"505 152 OFFCURVE",
"456 84 OFFCURVE",
"394 84 CURVE SMOOTH",
"222 84 LINE",
"222 329 LINE"
);
},
{
closed = 1;
nodes = (
"390 656 LINE",
"451 656 OFFCURVE",
"501 591 OFFCURVE",
"501 527 CURVE SMOOTH",
"501 468 OFFCURVE",
"452 414 OFFCURVE",
"390 414 CURVE SMOOTH",
"222 414 LINE",
"222 656 LINE"
);
}
);
width = 646;
}
);
unicode = 0042;
},
{
glyphname = C;
lastChange = "2016-10-12 20:19:07 +0000";
layers = (
{
anchors = (
{
name = bottom;
position = "{387, 0}";
},
{
name = top;
position = "{387, 740}";
}
);
layerId = UUID0;
paths = (
{
closed = 1;
nodes = (
"691 515 LINE",
"691 680 LINE",
"583 680 LINE",
"536 730 OFFCURVE",
"462 754 OFFCURVE",
"390 754 CURVE SMOOTH",
"190 754 OFFCURVE",
"32 583 OFFCURVE",
"32 371 CURVE SMOOTH",
"32 158 OFFCURVE",
"190 -13 OFFCURVE",
"390 -13 CURVE SMOOTH",
"549 -13 OFFCURVE",
"669 83 OFFCURVE",
"709 210 CURVE",
"552 254 LINE",
"528 196 OFFCURVE",
"468 141 OFFCURVE",
"390 141 CURVE SMOOTH",
"279 141 OFFCURVE",
"198 245 OFFCURVE",
"198 371 CURVE SMOOTH",
"198 496 OFFCURVE",
"281 601 OFFCURVE",
"390 601 CURVE SMOOTH",
"458 601 OFFCURVE",
"513 561 OFFCURVE",
"540 515 CURVE"
);
}
);
width = 759;
},
{
anchors = (
{
name = bottom;
position = "{382, 0}";
},
{
name = top;
position = "{382, 740}";
}
);
layerId = UUID1;
paths = (
{
closed = 1;
nodes = (
"699 545 LINE",
"699 632 LINE",
"648 632 LINE",
"600 695 OFFCURVE",
"508 754 OFFCURVE",
"385 754 CURVE SMOOTH",
"178 754 OFFCURVE",
"32 579 OFFCURVE",
"32 371 CURVE SMOOTH",
"32 164 OFFCURVE",
"177 -12 OFFCURVE",
"385 -12 CURVE SMOOTH",
"537 -12 OFFCURVE",
"642 74 OFFCURVE",
"702 201 CURVE",
"614 241 LINE",
"563 134 OFFCURVE",
"497 80 OFFCURVE",
"385 80 CURVE SMOOTH",
"235 80 OFFCURVE",
"131 215 OFFCURVE",
"131 371 CURVE SMOOTH",
"131 527 OFFCURVE",
"234 663 OFFCURVE",
"385 663 CURVE SMOOTH",
"486 663 OFFCURVE",
"549 619 OFFCURVE",
"592 545 CURVE"
);
}
);
width = 734;
}
);
unicode = 0043;
},
{
glyphname = D;
lastChange = "2016-10-12 20:19:07 +0000";
layers = (
{
anchors = (
{
name = top;
position = "{348, 700}";
}
);
layerId = UUID0;
paths = (
{
closed = 1;
nodes = (
"40 606 LINE",
"99 606 LINE",
"99 134 LINE",
"40 134 LINE",
"40 0 LINE",
"324 0 LINE SMOOTH",
"527 0 OFFCURVE",
"687 166 OFFCURVE",
"687 371 CURVE SMOOTH",
"687 576 OFFCURVE",
"527 740 OFFCURVE",
"324 740 CURVE SMOOTH",
"40 740 LINE"
);
},
{
closed = 1;
nodes = (
"323 606 LINE",
"429 606 OFFCURVE",
"515 503 OFFCURVE",
"515 371 CURVE SMOOTH",
"515 239 OFFCURVE",
"429 134 OFFCURVE",
"323 134 CURVE SMOOTH",
"261 134 LINE",
"261 606 LINE"
);
}
);
width = 717;
},
{
anchors = (
{
name = top;
position = "{350, 700}";
}
);
layerId = UUID1;
paths = (
{
closed = 1;
nodes = (
"70 656 LINE",
"146 656 LINE",
"146 84 LINE",
"70 84 LINE",
"70 0 LINE",
"351 0 LINE SMOOTH",
"554 0 OFFCURVE",
"707 166 OFFCURVE",
"707 372 CURVE SMOOTH",
"707 576 OFFCURVE",
"554 740 OFFCURVE",
"351 740 CURVE SMOOTH",
"70 740 LINE"
);
},
{
closed = 1;
nodes = (
"357 656 LINE",
"494 656 OFFCURVE",
"605 531 OFFCURVE",
"605 372 CURVE SMOOTH",
"605 211 OFFCURVE",
"494 84 OFFCURVE",
"357 84 CURVE SMOOTH",
"242 84 LINE",
"242 656 LINE"
);
}
);
width = 742;
}
);
unicode = 0044;
},
{
color = (31,255,0,1);
glyphname = Eth;
lastChange = "2016-10-12 20:19:08 +0000";
layers = (
{
anchors = (
{
name = top;
position = "{348, 700}";
}
);
components = (
{
name = hyphen;
transform = "{1, 0, 0, 1, 2, 84}";
}
);
layerId = UUID0;
paths = (
{
closed = 1;
nodes = (
"40 606 LINE",
"99 606 LINE",
"99 134 LINE",
"40 134 LINE",
"40 0 LINE",
"324 0 LINE SMOOTH",
"527 0 OFFCURVE",
"687 166 OFFCURVE",
"687 371 CURVE SMOOTH",
"687 576 OFFCURVE",
"527 740 OFFCURVE",
"324 740 CURVE SMOOTH",
"40 740 LINE"
);
},
{
closed = 1;
nodes = (
"323 606 LINE",
"429 606 OFFCURVE",
"515 503 OFFCURVE",
"515 371 CURVE SMOOTH",
"515 239 OFFCURVE",
"429 134 OFFCURVE",
"323 134 CURVE SMOOTH",
"261 134 LINE",
"261 606 LINE"
);
}
);
width = 717;
},
{
anchors = (
{
name = top;
position = "{348, 700}";
}
);
components = (
{
name = hyphen;
transform = "{1, 0, 0, 1, 16, 88}";
}
);
layerId = UUID1;
paths = (
{
closed = 1;
nodes = (
"68 656 LINE",
"144 656 LINE",
"144 84 LINE",
"68 84 LINE",
"68 0 LINE",
"349 0 LINE SMOOTH",
"552 0 OFFCURVE",
"705 166 OFFCURVE",
"705 372 CURVE SMOOTH",
"705 576 OFFCURVE",
"552 740 OFFCURVE",
"349 740 CURVE SMOOTH",
"68 740 LINE"
);
},
{
closed = 1;
nodes = (
"355 656 LINE",
"492 656 OFFCURVE",
"603 531 OFFCURVE",
"603 372 CURVE SMOOTH",
"603 211 OFFCURVE",
"492 84 OFFCURVE",
"355 84 CURVE SMOOTH",
"240 84 LINE",
"240 656 LINE"
);
}
);
width = 740;
}
);
unicode = 00D0;
},
{
glyphname = E;
lastChange = "2016-10-12 20:19:07 +0000";
layers = (
{
anchors = (
{
name = top;
position = "{362, 740}";
}
);
layerId = UUID0;
paths = (
{
closed = 1;
nodes = (
"55 593 LINE",
"133 593 LINE",
"133 134 LINE",
"55 134 LINE",
"55 0 LINE",
"644 0 LINE",
"644 265 LINE",
"485 265 LINE",
"485 134 LINE",
"295 134 LINE",
"295 305 LINE",
"442 305 LINE",
"442 447 LINE",
"295 447 LINE",
"295 593 LINE",
"485 593 LINE",
"485 488 LINE",
"644 488 LINE",
"644 740 LINE",
"55 740 LINE"
);
}
);
width = 674;
},
{
anchors = (
{
name = top;
position = "{354, 740}";
}
);
layerId = UUID1;
paths = (
{
closed = 1;
nodes = (
"70 656 LINE",
"140 656 LINE",
"140 84 LINE",
"70 84 LINE",
"70 0 LINE",
"600 0 LINE",
"600 209 LINE",
"500 209 LINE",
"500 84 LINE",
"236 84 LINE",
"236 335 LINE",
"458 335 LINE",
"458 419 LINE",
"236 419 LINE",
"236 656 LINE",
"500 656 LINE",
"500 531 LINE",
"600 531 LINE",
"600 740 LINE",
"70 740 LINE"
);
}
);
width = 628;
}
);
unicode = 0045;
},
{
glyphname = Eacute;
lastChange = "2016-10-12 20:45:30 +0000";
layers = (
{
components = (
{
name = acute;
transform = "{1, 0, 0, 1, 292, 234}";
}
);
layerId = UUID0;
paths = (
{
closed = 1;
nodes = (
"55 593 LINE",
"133 593 LINE",
"133 134 LINE",
"55 134 LINE",
"55 0 LINE",
"644 0 LINE",
"644 265 LINE",
"485 265 LINE",
"485 134 LINE",
"295 134 LINE",
"295 305 LINE",
"442 305 LINE",
"442 447 LINE",
"295 447 LINE",
"295 593 LINE",
"485 593 LINE",
"485 488 LINE",
"644 488 LINE",
"644 740 LINE",
"55 740 LINE"
);
}
);
width = 674;
},
{
components = (
{
name = acute;
transform = "{1, 0, 0, 1, 235, 234}";
}
);
layerId = UUID1;
paths = (
{
closed = 1;
nodes = (
"60 656 LINE",
"131 656 LINE",
"131 84 LINE",
"60 84 LINE",
"60 0 LINE",
"590 0 LINE",
"590 209 LINE",
"490 209 LINE",
"490 84 LINE",
"227 84 LINE",
"227 335 LINE",
"448 335 LINE",
"448 419 LINE",
"227 419 LINE",
"227 656 LINE",
"490 656 LINE",
"490 531 LINE",
"590 531 LINE",
"590 740 LINE",
"60 740 LINE"
);
}
);
width = 618;
}
);
unicode = 00C9;
},
{
glyphname = Ecircumflex;
lastChange = "2016-10-12 20:19:08 +0000";
layers = (
{
components = (
{
name = circumflex;
transform = "{1, 0, 0, 1, 146, 234}";
}
);
layerId = UUID0;
paths = (
{
closed = 1;
nodes = (
"55 593 LINE",
"133 593 LINE",
"133 134 LINE",
"55 134 LINE",
"55 0 LINE",
"644 0 LINE",
"644 265 LINE",
"485 265 LINE",
"485 134 LINE",
"295 134 LINE",
"295 305 LINE",
"442 305 LINE",
"442 447 LINE",
"295 447 LINE",
"295 593 LINE",
"485 593 LINE",
"485 488 LINE",
"644 488 LINE",
"644 740 LINE",
"55 740 LINE"
);
}
);
width = 674;
},
{
components = (
{
name = circumflex;
transform = "{1, 0, 0, 1, 112, 234}";
}
);
layerId = UUID1;
paths = (
{
closed = 1;
nodes = (
"60 656 LINE",
"131 656 LINE",
"131 84 LINE",
"60 84 LINE",
"60 0 LINE",
"590 0 LINE",
"590 209 LINE",
"490 209 LINE",
"490 84 LINE",
"227 84 LINE",
"227 335 LINE",
"448 335 LINE",
"448 419 LINE",
"227 419 LINE",
"227 656 LINE",
"490 656 LINE",
"490 531 LINE",
"590 531 LINE",
"590 740 LINE",
"60 740 LINE"
);
}
);
width = 618;
}
);
unicode = 00CA;
},
{
glyphname = Edieresis;
lastChange = "2016-10-12 20:19:08 +0000";
layers = (
{
components = (
{
name = dotaccent;
transform = "{1, 0, 0, 1, 114, 220}";
},
{
name = dotaccent;
transform = "{1, 0, 0, 1, 348, 220}";
}
);
layerId = UUID0;
paths = (
{
closed = 1;
nodes = (
"55 593 LINE",
"133 593 LINE",
"133 134 LINE",
"55 134 LINE",
"55 0 LINE",
"644 0 LINE",
"644 265 LINE",
"485 265 LINE",
"485 134 LINE",
"295 134 LINE",
"295 305 LINE",
"442 305 LINE",
"442 447 LINE",
"295 447 LINE",
"295 593 LINE",
"485 593 LINE",
"485 488 LINE",
"644 488 LINE",
"644 740 LINE",
"55 740 LINE"
);
}
);
width = 674;
},
{
components = (
{
name = dotaccent;
transform = "{1, 0, 0, 1, 80, 213}";
},
{
name = dotaccent;
transform = "{1, 0, 0, 1, 304, 213}";
}
);
layerId = UUID1;
paths = (
{
closed = 1;
nodes = (
"60 656 LINE",
"131 656 LINE",
"131 84 LINE",
"60 84 LINE",
"60 0 LINE",
"590 0 LINE",
"590 209 LINE",
"490 209 LINE",
"490 84 LINE",
"227 84 LINE",
"227 335 LINE",
"448 335 LINE",
"448 419 LINE",
"227 419 LINE",
"227 656 LINE",
"490 656 LINE",
"490 531 LINE",
"590 531 LINE",
"590 740 LINE",
"60 740 LINE"
);
}
);
width = 618;
}
);
unicode = 00CB;
},
{
glyphname = Egrave;
lastChange = "2016-10-12 20:19:08 +0000";
layers = (
{
components = (
{
name = grave;
transform = "{1, 0, 0, 1, 97, 234}";
}
);
layerId = UUID0;
paths = (
{
closed = 1;
nodes = (
"55 593 LINE",
"133 593 LINE",
"133 134 LINE",
"55 134 LINE",
"55 0 LINE",
"644 0 LINE",
"644 265 LINE",
"485 265 LINE",
"485 134 LINE",
"295 134 LINE",
"295 305 LINE",
"442 305 LINE",
"442 447 LINE",
"295 447 LINE",
"295 593 LINE",
"485 593 LINE",
"485 488 LINE",
"644 488 LINE",
"644 740 LINE",
"55 740 LINE"
);
}
);
width = 674;
},
{
components = (
{
name = grave;
transform = "{1, 0, 0, 1, 79, 234}";
}
);
layerId = UUID1;
paths = (
{
closed = 1;
nodes = (
"60 656 LINE",
"131 656 LINE",
"131 84 LINE",
"60 84 LINE",
"60 0 LINE",
"590 0 LINE",
"590 209 LINE",
"490 209 LINE",
"490 84 LINE",
"227 84 LINE",
"227 335 LINE",
"448 335 LINE",
"448 419 LINE",
"227 419 LINE",
"227 656 LINE",
"490 656 LINE",
"490 531 LINE",
"590 531 LINE",
"590 740 LINE",
"60 740 LINE"
);
}
);
width = 618;
}
);
unicode = 00C8;
},
{
glyphname = F;
lastChange = "2016-10-12 20:19:07 +0000";
layers = (
{
anchors = (
{
name = top;
position = "{357, 700}";
}
);
layerId = UUID0;
paths = (
{
closed = 1;
nodes = (
"55 592 LINE",
"132 592 LINE",
"132 134 LINE",
"55 134 LINE",
"55 0 LINE",
"372 0 LINE",
"372 134 LINE",
"294 134 LINE",
"294 294 LINE",
"446 294 LINE",
"446 436 LINE",
"294 436 LINE",
"294 592 LINE",
"469 592 LINE",
"469 488 LINE",
"628 488 LINE",
"628 740 LINE",
"55 740 LINE"
);
}
);
width = 628;
},
{
anchors = (
{
name = top;
position = "{335, 700}";
}
);
layerId = UUID1;
paths = (
{
closed = 1;
nodes = (
"72 656 LINE",
"138 656 LINE",
"138 84 LINE",
"70 84 LINE",
"70 0 LINE",
"310 0 LINE",
"310 84 LINE",
"234 84 LINE",
"234 336 LINE",
"492 336 LINE",
"492 418 LINE",
"234 418 LINE",
"234 656 LINE",
"502 656 LINE",
"502 531 LINE",
"602 531 LINE",
"602 740 LINE",
"72 740 LINE"
);
}
);
width = 609;
}
);
unicode = 0046;
},
{
glyphname = G;
lastChange = "2016-10-12 20:19:07 +0000";
layers = (
{
layerId = UUID0;
paths = (
{
closed = 1;
nodes = (
"738 0 LINE",
"738 329 LINE",
"738 395 LINE",
"395 395 LINE",
"395 261 LINE",
"536 261 LINE",
"514 192 OFFCURVE",
"459 155 OFFCURVE",
"390 155 CURVE SMOOTH",
"282 155 OFFCURVE",
"197 253 OFFCURVE",
"197 371 CURVE SMOOTH",
"197 491 OFFCURVE",
"281 589 OFFCURVE",
"390 589 CURVE SMOOTH",
"458 589 OFFCURVE",
"513 561 OFFCURVE",
"540 515 CURVE",
"691 515 LINE",
"691 680 LINE",
"648 691 OFFCURVE",
"605 702 OFFCURVE",
"563 713 CURVE",
"512 740 OFFCURVE",
"452 753 OFFCURVE",
"390 753 CURVE SMOOTH",
"190 753 OFFCURVE",
"32 581 OFFCURVE",
"32 371 CURVE SMOOTH",
"32 259 OFFCURVE",
"77 160 OFFCURVE",
"149 88 CURVE SMOOTH",
"207 30 OFFCURVE",
"289 -4 OFFCURVE",
"370 -6 CURVE",
"459 -7 OFFCURVE",
"546 32 OFFCURVE",
"592 127 CURVE",
"592 0 LINE"
);
}
);
width = 799;
},
{
layerId = UUID1;
paths = (
{
closed = 1;
nodes = (
"729 -2 LINE",
"729 314 LINE",
"729 352 LINE",
"416 352 LINE",
"416 268 LINE",
"623 268 LINE",
"591 139 OFFCURVE",
"510 80 OFFCURVE",
"385 80 CURVE SMOOTH",
"235 80 OFFCURVE",
"131 215 OFFCURVE",
"131 371 CURVE SMOOTH",
"131 527 OFFCURVE",
"234 663 OFFCURVE",
"385 663 CURVE SMOOTH",
"486 663 OFFCURVE",
"549 619 OFFCURVE",
"592 545 CURVE",
"697 545 LINE",
"697 632 LINE",
"673 638 OFFCURVE",
"649 645 OFFCURVE",
"626 651 CURVE",
"578 707 OFFCURVE",
"494 754 OFFCURVE",
"385 754 CURVE SMOOTH",
"178 754 OFFCURVE",
"32 579 OFFCURVE",
"32 371 CURVE SMOOTH",
"32 260 OFFCURVE",
"74 159 OFFCURVE",
"144 88 CURVE SMOOTH",
"206 25 OFFCURVE",
"293 -6 OFFCURVE",
"378 -6 CURVE",
"484 -6 OFFCURVE",
"589 42 OFFCURVE",
"638 145 CURVE",
"638 -2 LINE"
);
}
);
width = 819;
}
);
unicode = 0047;
},
{
glyphname = H;
lastChange = "2016-10-12 20:45:28 +0000";
layers = (
{
anchors = (
{
name = top;
position = "{388, 700}";
}
);
layerId = UUID0;
paths = (
{
closed = 1;
nodes = (
"551 606 LINE",
"628 606 LINE",
"628 452 LINE",
"294 452 LINE",
"294 606 LINE",
"372 606 LINE",
"372 740 LINE",
"55 740 LINE",
"55 606 LINE",
"132 606 LINE",
"132 134 LINE",
"55 134 LINE",
"55 0 LINE",
"372 0 LINE",
"372 134 LINE",
"294 134 LINE",
"294 323 LINE",
"628 323 LINE",
"628 134 LINE",
"551 134 LINE",
"551 0 LINE",
"868 0 LINE",
"868 134 LINE",
"790 134 LINE",
"790 606 LINE",
"868 606 LINE",
"868 740 LINE",
"551 740 LINE"
);
}
);
width = 923;
},
{
anchors = (
{
name = top;
position = "{390, 700}";
}
);
layerId = UUID1;
paths = (
{
closed = 1;
nodes = (
"590 656 LINE",
"664 656 LINE",
"664 432 LINE",
"236 432 LINE",
"236 656 LINE",
"310 656 LINE",
"310 740 LINE",
"70 740 LINE",
"70 656 LINE",
"140 656 LINE",
"140 84 LINE",
"70 84 LINE",
"70 0 LINE",
"310 0 LINE",
"310 84 LINE",
"236 84 LINE",
"236 350 LINE",
"664 350 LINE",
"664 84 LINE",
"590 84 LINE",
"590 0 LINE",
"830 0 LINE",
"830 84 LINE",
"760 84 LINE",
"760 656 LINE",
"830 656 LINE",
"830 740 LINE",
"590 740 LINE"
);
}
);
width = 900;
}
);
unicode = 0048;
},
{
glyphname = I;
lastChange = "2016-10-12 20:19:07 +0000";
layers = (
{
anchors = (
{
name = top;
position = "{210, 740}";
}
);
layerId = UUID0;
paths = (
{
closed = 1;
nodes = (
"55 606 LINE",
"132 606 LINE",
"132 134 LINE",
"55 134 LINE",
"55 0 LINE",
"372 0 LINE",
"372 134 LINE",
"294 134 LINE",
"294 606 LINE",
"372 606 LINE",
"372 740 LINE",
"55 740 LINE"
);
}
);
width = 427;
},
{
anchors = (
{
name = top;
position = "{188, 740}";
}
);
layerId = UUID1;
paths = (
{
closed = 1;
nodes = (
"71 656 LINE",
"138 656 LINE",
"138 84 LINE",
"70 84 LINE",
"70 0 LINE",
"310 0 LINE",
"310 84 LINE",
"234 84 LINE",
"234 656 LINE",
"311 656 LINE",
"311 740 LINE",
"71 740 LINE"
);
}
);
width = 381;
}
);
unicode = 0049;
},
{
glyphname = Iacute;
lastChange = "2016-10-12 20:19:08 +0000";
layers = (
{
components = (
{
name = acute;
transform = "{1, 0, 0, 1, 140, 234}";
}
);
layerId = UUID0;
paths = (
{
closed = 1;
nodes = (
"55 606 LINE",
"132 606 LINE",
"132 134 LINE",
"55 134 LINE",
"55 0 LINE",
"372 0 LINE",
"372 134 LINE",
"294 134 LINE",
"294 606 LINE",
"372 606 LINE",
"372 740 LINE",
"55 740 LINE"
);
}
);
width = 427;
},
{
components = (
{
name = acute;
transform = "{1, 0, 0, 1, 60, 234}";
}
);
layerId = UUID1;
paths = (
{
closed = 1;
nodes = (
"52 656 LINE",
"119 656 LINE",
"119 84 LINE",
"51 84 LINE",
"51 0 LINE",
"291 0 LINE",
"291 84 LINE",
"215 84 LINE",
"215 656 LINE",
"292 656 LINE",
"292 740 LINE",
"52 740 LINE"
);
}
);
width = 342;
}
);
unicode = 00CD;
},
{
glyphname = Icircumflex;
lastChange = "2016-10-12 20:19:08 +0000";
layers = (
{
components = (
{
name = circumflex;
transform = "{1, 0, 0, 1, -6, 234}";
}
);
layerId = UUID0;
paths = (
{
closed = 1;
nodes = (
"55 606 LINE",
"132 606 LINE",
"132 134 LINE",
"55 134 LINE",
"55 0 LINE",
"372 0 LINE",
"372 134 LINE",
"294 134 LINE",
"294 606 LINE",
"372 606 LINE",
"372 740 LINE",
"55 740 LINE"
);
}
);
width = 427;
},
{
components = (
{
name = circumflex;
transform = "{1, 0, 0, 1, -63, 234}";
}
);
layerId = UUID1;
paths = (
{
closed = 1;
nodes = (
"52 656 LINE",
"119 656 LINE",
"119 84 LINE",
"51 84 LINE",
"51 0 LINE",
"291 0 LINE",
"291 84 LINE",
"215 84 LINE",
"215 656 LINE",
"292 656 LINE",
"292 740 LINE",
"52 740 LINE"
);
}
);
width = 342;
}
);
unicode = 00CE;
},
{
glyphname = Idieresis;
lastChange = "2016-10-12 20:19:08 +0000";
layers = (
{
components = (
{
name = dotaccent;
transform = "{1, 0, 0, 1, -38, 220}";
},
{
name = dotaccent;
transform = "{1, 0, 0, 1, 196, 220}";
}
);
layerId = UUID0;
paths = (
{
closed = 1;
nodes = (
"55 606 LINE",
"132 606 LINE",
"132 134 LINE",
"55 134 LINE",
"55 0 LINE",
"372 0 LINE",
"372 134 LINE",
"294 134 LINE",
"294 606 LINE",
"372 606 LINE",
"372 740 LINE",
"55 740 LINE"
);
}
);
width = 427;
},
{
components = (
{
name = dotaccent;
transform = "{1, 0, 0, 1, -95, 213}";
},
{
name = dotaccent;
transform = "{1, 0, 0, 1, 129, 213}";
}
);
layerId = UUID1;
paths = (
{
closed = 1;
nodes = (
"52 656 LINE",
"119 656 LINE",
"119 84 LINE",
"51 84 LINE",
"51 0 LINE",
"291 0 LINE",
"291 84 LINE",
"215 84 LINE",
"215 656 LINE",
"292 656 LINE",
"292 740 LINE",
"52 740 LINE"
);
}
);
width = 342;
}
);
unicode = 00CF;
},
{
glyphname = Igrave;
lastChange = "2016-10-12 20:19:08 +0000";
layers = (
{
components = (
{
name = grave;
transform = "{1, 0, 0, 1, -55, 234}";
}
);
layerId = UUID0;
paths = (
{
closed = 1;
nodes = (
"55 606 LINE",
"132 606 LINE",
"132 134 LINE",
"55 134 LINE",
"55 0 LINE",
"372 0 LINE",
"372 134 LINE",
"294 134 LINE",
"294 606 LINE",
"372 606 LINE",
"372 740 LINE",
"55 740 LINE"
);
}
);
width = 427;
},
{
components = (
{
name = grave;
transform = "{1, 0, 0, 1, -96, 234}";
}
);
layerId = UUID1;
paths = (
{
closed = 1;
nodes = (
"52 656 LINE",
"119 656 LINE",
"119 84 LINE",
"51 84 LINE",
"51 0 LINE",
"291 0 LINE",
"291 84 LINE",
"215 84 LINE",
"215 656 LINE",
"292 656 LINE",
"292 740 LINE",
"52 740 LINE"
);
}
);
width = 342;
}
);
unicode = 00CC;
},
{
glyphname = J;
lastChange = "2016-10-12 20:19:07 +0000";
layers = (
{
anchors = (
{
name = top;
position = "{86, 660}";
}
);
layerId = UUID0;
paths = (
{
closed = 1;
nodes = (
"40 592 LINE",
"109 592 LINE",
"109 100 LINE SMOOTH",
"109 46 OFFCURVE",
"5 -109 OFFCURVE",
"5 -109 CURVE",
"141 -116 LINE",
"141 -116 OFFCURVE",
"268 27 OFFCURVE",
"268 84 CURVE SMOOTH",
"268 592 LINE",
"320 592 LINE",
"320 740 LINE",
"40 740 LINE"
);
}
);
width = 335;
},
{
anchors = (
{
name = top;
position = "{86, 660}";
}
);
layerId = UUID1;
paths = (
{
closed = 1;
nodes = (
"73 656 LINE",
"154 656 LINE",
"154 100 LINE SMOOTH",
"154 46 OFFCURVE",
"50 -109 OFFCURVE",
"50 -109 CURVE",
"134 -116 LINE",
"134 -116 OFFCURVE",
"251 27 OFFCURVE",
"251 84 CURVE SMOOTH",
"251 656 LINE",
"313 656 LINE",
"313 740 LINE",
"73 740 LINE"
);
}
);
width = 333;
}
);
unicode = 004A;
},
{
glyphname = K;
lastChange = "2016-10-12 20:19:07 +0000";
layers = (
{
layerId = UUID0;
paths = (
{
closed = 1;
nodes = (
"55 606 LINE",
"132 606 LINE",
"132 134 LINE",
"55 134 LINE",
"55 0 LINE",
"372 0 LINE",
"372 134 LINE",
"294 134 LINE",
"294 383 LINE",
"532 145 LINE",
"532 0 LINE",
"778 0 LINE",
"778 145 LINE",
"718 145 LINE",
"481 384 LINE",
"728 596 LINE",
"783 596 LINE",
"783 740 LINE",
"531 740 LINE",
"531 597 LINE",
"294 391 LINE",
"294 606 LINE",
"372 606 LINE",
"372 740 LINE",
"55 740 LINE"
);
}
);
width = 808;
},
{
layerId = UUID1;
paths = (
{
closed = 1;
nodes = (
"55 606 LINE",
"132 606 LINE",
"132 134 LINE",
"55 134 LINE",
"55 0 LINE",
"372 0 LINE",
"372 134 LINE",
"294 134 LINE",
"294 383 LINE",
"532 145 LINE",
"532 0 LINE",
"778 0 LINE",
"778 145 LINE",
"718 145 LINE",
"481 384 LINE",
"728 596 LINE",
"783 596 LINE",
"783 740 LINE",
"531 740 LINE",
"531 597 LINE",
"294 391 LINE",
"294 606 LINE",
"372 606 LINE",
"372 740 LINE",
"55 740 LINE"
);
}
);
width = 763;
}
);
unicode = 004B;
},
{
glyphname = L;
lastChange = "2016-10-12 20:19:07 +0000";
layers = (
{
anchors = (
{
name = top;
position = "{366, 700}";
}
);
layerId = UUID0;
paths = (
{
closed = 1;
nodes = (
"55 606 LINE",
"132 606 LINE",
"132 134 LINE",
"55 134 LINE",
"55 0 LINE",
"647 0 LINE",
"647 272 LINE",
"489 272 LINE",
"489 173 LINE SMOOTH",
"489 156 OFFCURVE",
"472 134 OFFCURVE",
"455 134 CURVE SMOOTH",
"294 134 LINE",
"294 606 LINE",
"372 606 LINE",
"372 740 LINE",
"55 740 LINE"
);
}
);
width = 657;
},
{
anchors = (
{
name = top;
position = "{347, 700}";
}
);
layerId = UUID1;
paths = (
{
closed = 1;
nodes = (
"70 656 LINE",
"137 656 LINE",
"137 84 LINE",
"70 84 LINE",
"70 0 LINE",
"628 0 LINE",
"628 219 LINE",
"532 219 LINE",
"532 126 LINE SMOOTH",
"532 105 OFFCURVE",
"509 84 OFFCURVE",
"488 84 CURVE SMOOTH",
"233 84 LINE",
"233 656 LINE",
"310 656 LINE",
"310 740 LINE",
"70 740 LINE"
);
}
);
width = 633;
}
);
unicode = 004C;
},
{
glyphname = M;
lastChange = "2016-10-12 20:19:07 +0000";
layers = (
{
anchors = (
{
name = top;
position = "{500, 700}";
}
);
layerId = UUID0;
paths = (
{
closed = 1;
nodes = (
"55 0 LINE",
"332 0 LINE",
"332 134 LINE",
"277 134 LINE",
"281 545 LINE",
"504 9 LINE",
"641 9 LINE",
"863 560 LINE",
"863 134 LINE",
"812 134 LINE",
"812 0 LINE",
"1089 0 LINE",
"1089 134 LINE",
"1021 134 LINE",
"1021 606 LINE",
"1090 606 LINE",
"1090 740 LINE",
"781 740 LINE",
"578 206 LINE",
"360 740 LINE",
"55 740 LINE",
"55 606 LINE",
"124 606 LINE",
"124 134 LINE",
"55 134 LINE"
);
}
);
width = 1145;
},
{
anchors = (
{
name = top;
position = "{495, 700}";
}
);
layerId = UUID1;
paths = (
{
closed = 1;
nodes = (
"76 0 LINE",
"316 0 LINE",
"316 84 LINE",
"240 84 LINE",
"240 652 LINE",
"502 0 LINE",
"585 0 LINE",
"844 653 LINE",
"844 84 LINE",
"770 84 LINE",
"770 0 LINE",
"1010 0 LINE",
"1010 84 LINE",
"935 84 LINE",
"935 647 LINE",
"1012 647 LINE",
"1012 740 LINE",
"783 740 LINE",
"545 101 LINE",
"310 740 LINE",
"70 740 LINE",
"70 647 LINE",
"146 647 LINE",
"146 84 LINE",
"76 84 LINE"
);
}
);
width = 1062;
}
);
unicode = 004D;
},
{
glyphname = N;
lastChange = "2016-10-12 20:19:07 +0000";
layers = (
{
anchors = (
{
name = top;
position = "{417, 740}";
}
);
layerId = UUID0;
paths = (
{
closed = 1;
nodes = (
"523 606 LINE",
"586 606 LINE",
"586 255 LINE",
"280 741 LINE",
"56 741 LINE",
"56 606 LINE",
"116 606 LINE",
"116 134 LINE",
"56 134 LINE",
"56 0 LINE",
"336 0 LINE",
"336 134 LINE",
"274 134 LINE",
"274 479 LINE",
"582 0 LINE",
"744 0 LINE",
"744 606 LINE",
"804 606 LINE",
"804 740 LINE",
"523 740 LINE"
);
}
);
width = 829;
},
{
anchors = (
{
name = top;
position = "{403, 740}";
}
);
layerId = UUID1;
paths = (
{
closed = 1;
nodes = (
"526 656 LINE",
"609 656 LINE",
"609 131 LINE",
"267 741 LINE",
"72 741 LINE",
"72 656 LINE",
"138 656 LINE",
"138 84 LINE",
"70 84 LINE",
"70 0 LINE",
"310 0 LINE",
"310 84 LINE",
"234 84 LINE",
"234 614 LINE",
"578 0 LINE",
"703 0 LINE",
"703 656 LINE",
"766 656 LINE",
"766 740 LINE",
"526 740 LINE"
);
}
);
width = 784;
}
);
unicode = 004E;
},
{
glyphname = Ntilde;
lastChange = "2016-10-12 20:19:08 +0000";
layers = (
{
components = (
{
name = tilde;
transform = "{1, 0, 0, 1, 191, 234}";
}
);
layerId = UUID0;
paths = (
{
closed = 1;
nodes = (
"523 606 LINE",
"586 606 LINE",
"586 255 LINE",
"280 741 LINE",
"56 741 LINE",
"56 606 LINE",
"116 606 LINE",
"116 134 LINE",
"56 134 LINE",
"56 0 LINE",
"336 0 LINE",
"336 134 LINE",
"274 134 LINE",
"274 479 LINE",
"582 0 LINE",
"744 0 LINE",
"744 606 LINE",
"804 606 LINE",
"804 740 LINE",
"523 740 LINE"
);
}
);
width = 829;
},
{
components = (
{
name = tilde;
transform = "{1, 0, 0, 1, 167, 234}";
}
);
layerId = UUID1;
paths = (
{
closed = 1;
nodes = (
"506 656 LINE",
"589 656 LINE",
"589 131 LINE",
"247 741 LINE",
"52 741 LINE",
"52 656 LINE",
"118 656 LINE",
"118 84 LINE",
"50 84 LINE",
"50 0 LINE",
"290 0 LINE",
"290 84 LINE",
"214 84 LINE",
"214 614 LINE",
"558 0 LINE",
"683 0 LINE",
"683 656 LINE",
"746 656 LINE",
"746 740 LINE",
"506 740 LINE"
);
}
);
width = 764;
}
);
unicode = 00D1;
},
{
glyphname = O;
lastChange = "2016-10-12 20:19:07 +0000";
layers = (
{
anchors = (
{
name = top;
position = "{387, 740}";
}
);
layerId = UUID0;
paths = (
{
closed = 1;
nodes = (
"591 -13 OFFCURVE",
"749 158 OFFCURVE",
"749 370 CURVE SMOOTH",
"749 583 OFFCURVE",
"591 754 OFFCURVE",
"390 754 CURVE SMOOTH",
"190 754 OFFCURVE",
"32 583 OFFCURVE",
"32 370 CURVE SMOOTH",
"32 158 OFFCURVE",
"190 -13 OFFCURVE",
"390 -13 CURVE SMOOTH"
);
},
{
closed = 1;
nodes = (
"279 140 OFFCURVE",
"198 245 OFFCURVE",
"198 370 CURVE SMOOTH",
"198 496 OFFCURVE",
"279 601 OFFCURVE",
"390 601 CURVE SMOOTH",
"502 601 OFFCURVE",
"582 496 OFFCURVE",
"582 370 CURVE SMOOTH",
"582 245 OFFCURVE",
"504 140 OFFCURVE",
"390 140 CURVE SMOOTH"
);
}
);
width = 781;
},
{
anchors = (
{
name = top;
position = "{389, 740}";
}
);
layerId = UUID1;
paths = (
{
closed = 1;
nodes = (
"600 -15 OFFCURVE",
"747 157 OFFCURVE",
"747 370 CURVE SMOOTH",
"747 584 OFFCURVE",
"602 755 OFFCURVE",
"392 755 CURVE SMOOTH",
"184 755 OFFCURVE",
"37 584 OFFCURVE",
"37 370 CURVE SMOOTH",
"37 157 OFFCURVE",
"183 -15 OFFCURVE",
"392 -15 CURVE SMOOTH"
);
},
{
closed = 1;
nodes = (
"238 77 OFFCURVE",
"137 213 OFFCURVE",
"137 370 CURVE SMOOTH",
"137 527 OFFCURVE",
"237 664 OFFCURVE",
"392 664 CURVE SMOOTH",
"546 664 OFFCURVE",
"646 526 OFFCURVE",
"646 370 CURVE SMOOTH",
"646 213 OFFCURVE",
"547 77 OFFCURVE",
"392 77 CURVE SMOOTH"
);
}
);
width = 782;
}
);
unicode = 004F;
},
{
glyphname = P;
lastChange = "2016-10-12 20:19:07 +0000";
layers = (
{
anchors = (
{
name = top;
position = "{343, 700}";
}
);
layerId = UUID0;
paths = (
{
closed = 1;
nodes = (
"55 606 LINE",
"132 606 LINE",
"132 134 LINE",
"55 134 LINE",
"55 0 LINE",
"362 0 LINE",
"362 134 LINE",
"294 134 LINE",
"294 275 LINE",
"397 275 LINE SMOOTH",
"577 275 OFFCURVE",
"658 384 OFFCURVE",
"658 522 CURVE SMOOTH",
"658 637 OFFCURVE",
"549 740 OFFCURVE",
"397 740 CURVE SMOOTH",
"55 740 LINE"
);
},
{
closed = 1;
nodes = (
"361 606 LINE",
"440 606 OFFCURVE",
"482 568 OFFCURVE",
"482 505 CURVE SMOOTH",
"482 437 OFFCURVE",
"435 407 OFFCURVE",
"361 407 CURVE SMOOTH",
"294 407 LINE",
"294 606 LINE"
);
}
);
width = 634;
},
{
anchors = (
{
name = top;
position = "{334, 700}";
}
);
layerId = UUID1;
paths = (
{
closed = 1;
nodes = (
"70 656 LINE",
"152 656 LINE",
"152 84 LINE",
"72 84 LINE",
"72 0 LINE",
"312 0 LINE",
"312 84 LINE",
"248 84 LINE",
"248 343 LINE",
"379 343 LINE SMOOTH",
"517 343 OFFCURVE",
"609 432 OFFCURVE",
"609 540 CURVE SMOOTH",
"609 671 OFFCURVE",
"513 740 OFFCURVE",
"381 740 CURVE SMOOTH",
"70 741 LINE"
);
},
{
closed = 1;
nodes = (
"369 656 LINE",
"466 656 OFFCURVE",
"508 613 OFFCURVE",
"508 540 CURVE SMOOTH",
"508 463 OFFCURVE",
"455 423 OFFCURVE",
"381 423 CURVE SMOOTH",
"248 423 LINE",
"248 656 LINE"
);
}
);
width = 633;
}
);
unicode = 0050;
},
{
glyphname = Thorn;
lastChange = "2016-10-12 20:19:08 +0000";
layers = (
{
anchors = (
{
name = top;
position = "{210, 740}";
}
);
layerId = UUID0;
paths = (
{
closed = 1;
nodes = (
"55 606 LINE",
"132 606 LINE",
"132 134 LINE",
"55 134 LINE",
"55 0 LINE",
"372 0 LINE",
"372 134 LINE",
"294 134 LINE",
"294 158 LINE",
"397 158 LINE SMOOTH",
"577 158 OFFCURVE",
"658 259 OFFCURVE",
"658 369 CURVE SMOOTH",
"658 490 OFFCURVE",
"549 583 OFFCURVE",
"397 583 CURVE SMOOTH",
"294 583 LINE",
"294 606 LINE",
"372 606 LINE",
"372 740 LINE",
"55 740 LINE"
);
},
{
closed = 1;
nodes = (
"361 449 LINE",
"440 449 OFFCURVE",
"482 419 OFFCURVE",
"482 368 CURVE SMOOTH",
"482 314 OFFCURVE",
"435 290 OFFCURVE",
"361 290 CURVE SMOOTH",
"294 290 LINE",
"294 449 LINE"
);
}
);
width = 427;
},
{
anchors = (
{
name = top;
position = "{169, 740}";
}
);
layerId = UUID1;
paths = (
{
closed = 1;
nodes = (
"52 656 LINE",
"119 656 LINE",
"119 84 LINE",
"51 84 LINE",
"51 0 LINE",
"291 0 LINE",
"291 84 LINE",
"215 84 LINE",
"215 193 LINE",
"373 193 LINE SMOOTH",
"511 193 OFFCURVE",
"603 282 OFFCURVE",
"603 390 CURVE SMOOTH",
"603 521 OFFCURVE",
"507 590 OFFCURVE",
"375 590 CURVE SMOOTH",
"215 590 LINE",
"215 656 LINE",
"292 656 LINE",
"292 740 LINE",
"52 740 LINE"
);
},
{
closed = 1;
nodes = (
"363 506 LINE",
"460 506 OFFCURVE",
"502 463 OFFCURVE",
"502 390 CURVE SMOOTH",
"502 313 OFFCURVE",
"449 273 OFFCURVE",
"375 273 CURVE SMOOTH",
"215 273 LINE",
"215 506 LINE"
);
}
);
width = 646;
}
);
unicode = 00DE;
},
{
glyphname = Q;
lastChange = "2016-10-12 20:19:07 +0000";
layers = (
{
anchors = (
{
name = top;
position = "{415, 700}";
}
);
layerId = UUID0;
paths = (
{
closed = 1;
nodes = (
"321 -129 LINE",
"346 -120 OFFCURVE",
"355 -123 OFFCURVE",
"376 -123 CURVE SMOOTH",
"425 -123 OFFCURVE",
"506 -193 OFFCURVE",
"583 -193 CURVE SMOOTH",
"678 -193 OFFCURVE",
"757 -131 OFFCURVE",
"768 -36 CURVE",
"659 18 LINE",
"651 -32 OFFCURVE",
"612 -52 OFFCURVE",
"572 -52 CURVE",
"531 -51 OFFCURVE",
"492 -24 OFFCURVE",
"451 -7 CURVE",
"622 23 OFFCURVE",
"749 180 OFFCURVE",
"749 370 CURVE SMOOTH",
"749 583 OFFCURVE",
"591 754 OFFCURVE",
"390 754 CURVE SMOOTH",
"190 754 OFFCURVE",
"32 583 OFFCURVE",
"32 370 CURVE SMOOTH",
"32 183 OFFCURVE",
"155 28 OFFCURVE",
"322 -6 CURVE"
);
},
{
closed = 1;
nodes = (
"279 140 OFFCURVE",
"198 245 OFFCURVE",
"198 370 CURVE SMOOTH",
"198 496 OFFCURVE",
"279 601 OFFCURVE",
"390 601 CURVE SMOOTH",
"502 601 OFFCURVE",
"582 496 OFFCURVE",
"582 370 CURVE SMOOTH",
"582 245 OFFCURVE",
"504 140 OFFCURVE",
"390 140 CURVE SMOOTH"
);
}
);
width = 798;
},
{
anchors = (
{
name = top;
position = "{415, 700}";
}
);
layerId = UUID1;
paths = (
{
closed = 1;
nodes = (
"343 -99 LINE",
"352 -95 OFFCURVE",
"370 -93 OFFCURVE",
"384 -93 CURVE SMOOTH",
"459 -93 OFFCURVE",
"482 -159 OFFCURVE",
"593 -159 CURVE SMOOTH",
"655 -159 OFFCURVE",
"729 -122 OFFCURVE",
"745 -49 CURVE",
"671 -15 LINE",
"662 -53 OFFCURVE",
"630 -72 OFFCURVE",
"593 -72 CURVE",
"516 -72 OFFCURVE",
"494 -29 OFFCURVE",
"437 -12 CURVE",
"621 10 OFFCURVE",
"747 173 OFFCURVE",
"747 370 CURVE SMOOTH",
"747 584 OFFCURVE",
"602 755 OFFCURVE",
"392 755 CURVE SMOOTH",
"184 755 OFFCURVE",
"37 584 OFFCURVE",
"37 370 CURVE SMOOTH",
"37 174 OFFCURVE",
"160 13 OFFCURVE",
"343 -12 CURVE"
);
},
{
closed = 1;
nodes = (
"238 77 OFFCURVE",
"137 213 OFFCURVE",
"137 370 CURVE SMOOTH",
"137 527 OFFCURVE",
"237 664 OFFCURVE",
"392 664 CURVE SMOOTH",
"546 664 OFFCURVE",
"646 526 OFFCURVE",
"646 370 CURVE SMOOTH",
"646 213 OFFCURVE",
"547 77 OFFCURVE",
"392 77 CURVE SMOOTH"
);
}
);
width = 813;
}
);
unicode = 0051;
},
{
glyphname = R;
lastChange = "2016-10-12 20:19:07 +0000";
layers = (
{
anchors = (
{
name = top;
position = "{367, 660}";
}
);
layerId = UUID0;
paths = (
{
closed = 1;
nodes = (
"55 606 LINE",
"132 606 LINE",
"132 134 LINE",
"55 134 LINE",
"55 0 LINE",
"362 0 LINE",
"362 134 LINE",
"294 134 LINE",
"294 295 LINE",
"357 295 LINE SMOOTH",
"436 295 OFFCURVE",
"471 260 OFFCURVE",
"483 176 CURVE",
"512 0 LINE",
"727 0 LINE",
"726 144 LINE",
"665 144 LINE",
"640 240 LINE",
"627 295 OFFCURVE",
"600 330 OFFCURVE",
"567 347 CURVE",
"645 384 OFFCURVE",
"688 433 OFFCURVE",
"688 532 CURVE SMOOTH",
"688 642 OFFCURVE",
"599 740 OFFCURVE",
"447 740 CURVE SMOOTH",
"55 740 LINE"
);
},
{
closed = 1;
nodes = (
"391 606 LINE",
"470 606 OFFCURVE",
"512 572 OFFCURVE",
"512 515 CURVE SMOOTH",
"512 454 OFFCURVE",
"465 427 OFFCURVE",
"391 427 CURVE SMOOTH",
"294 427 LINE",
"294 606 LINE"
);
}
);
width = 747;
},
{
anchors = (
{
name = top;
position = "{336, 660}";
}
);
layerId = UUID1;
paths = (
{
closed = 1;
nodes = (
"70 656 LINE",
"143 656 LINE",
"143 84 LINE",
"75 84 LINE",
"75 0 LINE",
"315 0 LINE",
"315 84 LINE",
"239 84 LINE",
"239 343 LINE",
"334 343 LINE SMOOTH",
"406 343 OFFCURVE",
"445 306 OFFCURVE",
"465 225 CURVE",
"520 0 LINE",
"664 0 LINE",
"663 93 LINE",
"599 93 LINE",
"558 254 LINE",
"544 311 OFFCURVE",
"509 353 OFFCURVE",
"476 366 CURVE",
"552 393 OFFCURVE",
"609 465 OFFCURVE",
"609 540 CURVE SMOOTH",
"609 671 OFFCURVE",
"513 740 OFFCURVE",
"381 740 CURVE SMOOTH",
"70 741 LINE"
);
},
{
closed = 1;
nodes = (
"369 656 LINE",
"466 656 OFFCURVE",
"508 613 OFFCURVE",
"508 539 CURVE SMOOTH",
"508 463 OFFCURVE",
"455 423 OFFCURVE",
"381 423 CURVE SMOOTH",
"239 423 LINE",
"239 656 LINE"
);
}
);
width = 715;
}
);
unicode = 0052;
},
{
glyphname = S;
lastChange = "2016-10-12 20:19:07 +0000";
layers = (
{
anchors = (
{
name = bottom;
position = "{316, 0}";
},
{
name = top;
position = "{302, 740}";
}
);
layerId = UUID0;
paths = (
{
closed = 1;
nodes = (
"411 489 LINE",
"588 489 LINE",
"588 636 LINE",
"539 636 LINE",
"509 701 OFFCURVE",
"423 762 OFFCURVE",
"302 762 CURVE SMOOTH",
"148 762 OFFCURVE",
"38 682 OFFCURVE",
"38 541 CURVE SMOOTH",
"38 420 OFFCURVE",
"116 353 OFFCURVE",
"201 327 CURVE",
"313 291 LINE SMOOTH",
"353 278 OFFCURVE",
"401 263 OFFCURVE",
"401 214 CURVE SMOOTH",
"401 166 OFFCURVE",
"369 137 OFFCURVE",
"311 137 CURVE SMOOTH",
"234 137 OFFCURVE",
"197 180 OFFCURVE",
"197 239 CURVE SMOOTH",
"197 269 LINE",
"20 269 LINE",
"20 122 LINE",
"70 122 LINE",
"106 38 OFFCURVE",
"198 -15 OFFCURVE",
"311 -15 CURVE SMOOTH",
"472 -15 OFFCURVE",
"582 83 OFFCURVE",
"582 226 CURVE SMOOTH",
"582 331 OFFCURVE",
"524 396 OFFCURVE",
"449 422 CURVE",
"315 467 LINE SMOOTH",
"269 482 OFFCURVE",
"213 489 OFFCURVE",
"213 547 CURVE SMOOTH",
"213 594 OFFCURVE",
"253 614 OFFCURVE",
"302 614 CURVE SMOOTH",
"356 614 OFFCURVE",
"405 578 OFFCURVE",
"411 532 CURVE"
);
}
);
width = 608;
},
{
anchors = (
{
name = bottom;
position = "{298, 0}";
},
{
name = top;
position = "{316, 740}";
}
);
layerId = UUID1;
paths = (
{
closed = 1;
nodes = (
"449 539 LINE",
"569 539 LINE",
"569 623 LINE",
"532 623 LINE",
"494 699 OFFCURVE",
"421 751 OFFCURVE",
"316 751 CURVE SMOOTH",
"156 751 OFFCURVE",
"65 660 OFFCURVE",
"65 547 CURVE SMOOTH",
"65 435 OFFCURVE",
"128 378 OFFCURVE",
"222 349 CURVE",
"329 319 LINE SMOOTH",
"386 301 OFFCURVE",
"461 272 OFFCURVE",
"461 193 CURVE SMOOTH",
"461 121 OFFCURVE",
"406 78 OFFCURVE",
"317 78 CURVE SMOOTH",
"226 78 OFFCURVE",
"162 118 OFFCURVE",
"162 198 CURVE SMOOTH",
"162 222 LINE",
"39 222 LINE",
"39 138 LINE",
"76 138 LINE",
"101 60 OFFCURVE",
"160 -16 OFFCURVE",
"312 -16 CURVE SMOOTH",
"460 -16 OFFCURVE",
"566 76 OFFCURVE",
"566 198 CURVE SMOOTH",
"566 311 OFFCURVE",
"502 367 OFFCURVE",
"384 405 CURVE",
"285 437 LINE SMOOTH",
"233 455 OFFCURVE",
"165 467 OFFCURVE",
"165 553 CURVE SMOOTH",
"165 611 OFFCURVE",
"214 660 OFFCURVE",
"313 660 CURVE SMOOTH",
"373 660 OFFCURVE",
"438 627 OFFCURVE",
"449 571 CURVE"
);
}
);
width = 591;
}
);
unicode = 0053;
},
{
glyphname = T;
lastChange = "2016-10-12 20:19:07 +0000";
layers = (
{
anchors = (
{
name = top;
position = "{342, 700}";
}
);
layerId = UUID0;
paths = (
{
closed = 1;
nodes = (
"182 0 LINE",
"499 0 LINE",
"499 134 LINE",
"421 134 LINE",
"421 611 LINE",
"523 611 LINE",
"523 515 LINE",
"683 515 LINE",
"683 740 LINE",
"10 740 LINE",
"10 515 LINE",
"169 515 LINE",
"169 611 LINE",
"259 611 LINE",
"259 134 LINE",
"182 134 LINE"
);
}
);
width = 693;
},
{
anchors = (
{
name = top;
position = "{342, 700}";
}
);
layerId = UUID1;
paths = (
{
closed = 1;
nodes = (
"221 0 LINE",
"461 0 LINE",
"461 84 LINE",
"385 84 LINE",
"385 660 LINE",
"580 660 LINE",
"580 545 LINE",
"680 545 LINE",
"680 740 LINE",
"20 740 LINE",
"20 545 LINE",
"120 545 LINE",
"120 660 LINE",
"289 660 LINE",
"289 84 LINE",
"221 84 LINE"
);
}
);
width = 700;
}
);
unicode = 0054;
},
{
glyphname = U;
lastChange = "2016-10-12 20:19:07 +0000";
layers = (
{
anchors = (
{
name = top;
position = "{379, 740}";
}
);
layerId = UUID0;
paths = (
{
closed = 1;
nodes = (
"25 606 LINE",
"92 606 LINE",
"92 309 LINE SMOOTH",
"92 110 OFFCURVE",
"219 -10 OFFCURVE",
"379 -10 CURVE SMOOTH",
"541 -10 OFFCURVE",
"669 110 OFFCURVE",
"669 318 CURVE SMOOTH",
"669 606 LINE",
"728 606 LINE",
"728 740 LINE",
"431 740 LINE",
"431 606 LINE",
"510 606 LINE",
"510 299 LINE SMOOTH",
"510 179 OFFCURVE",
"459 144 OFFCURVE",
"382 144 CURVE SMOOTH",
"308 144 OFFCURVE",
"254 187 OFFCURVE",
"254 299 CURVE SMOOTH",
"254 606 LINE",
"322 606 LINE",
"322 740 LINE",
"25 740 LINE"
);
}
);
width = 762;
},
{
anchors = (
{
name = top;
position = "{404, 740}";
}
);
layerId = UUID1;
paths = (
{
closed = 1;
nodes = (
"55 656 LINE",
"123 656 LINE",
"123 313 LINE SMOOTH",
"123 111 OFFCURVE",
"247 -10 OFFCURVE",
"403 -10 CURVE SMOOTH",
"563 -10 OFFCURVE",
"689 111 OFFCURVE",
"689 322 CURVE SMOOTH",
"689 656 LINE",
"755 656 LINE",
"755 740 LINE",
"515 740 LINE",
"515 656 LINE",
"584 656 LINE",
"584 313 LINE SMOOTH",
"584 145 OFFCURVE",
"513 96 OFFCURVE",
"407 96 CURVE SMOOTH",
"305 96 OFFCURVE",
"230 156 OFFCURVE",
"230 313 CURVE SMOOTH",
"230 656 LINE",
"295 656 LINE",
"295 740 LINE",
"55 740 LINE"
);
}
);
width = 761;
}
);
unicode = 0055;
},
{
glyphname = Uacute;
lastChange = "2016-10-12 20:19:08 +0000";
layers = (
{
components = (
{
name = acute;
transform = "{1, 0, 0, 1, 309, 234}";
}
);
layerId = UUID0;
paths = (
{
closed = 1;
nodes = (
"25 606 LINE",
"92 606 LINE",
"92 309 LINE SMOOTH",
"92 110 OFFCURVE",
"219 -10 OFFCURVE",
"379 -10 CURVE SMOOTH",
"541 -10 OFFCURVE",
"669 110 OFFCURVE",
"669 318 CURVE SMOOTH",
"669 606 LINE",
"728 606 LINE",
"728 740 LINE",
"431 740 LINE",
"431 606 LINE",
"510 606 LINE",
"510 299 LINE SMOOTH",
"510 179 OFFCURVE",
"459 144 OFFCURVE",
"382 144 CURVE SMOOTH",
"308 144 OFFCURVE",
"254 187 OFFCURVE",
"254 299 CURVE SMOOTH",
"254 606 LINE",
"322 606 LINE",
"322 740 LINE",
"25 740 LINE"
);
}
);
width = 762;
},
{
components = (
{
name = acute;
transform = "{1, 0, 0, 1, 295, 234}";
}
);
layerId = UUID1;
paths = (
{
closed = 1;
nodes = (
"55 656 LINE",
"123 656 LINE",
"123 313 LINE SMOOTH",
"123 111 OFFCURVE",
"247 -10 OFFCURVE",
"403 -10 CURVE SMOOTH",
"563 -10 OFFCURVE",
"689 111 OFFCURVE",
"689 322 CURVE SMOOTH",
"689 656 LINE",
"755 656 LINE",
"755 740 LINE",
"515 740 LINE",
"515 656 LINE",
"584 656 LINE",
"584 313 LINE SMOOTH",
"584 145 OFFCURVE",
"513 96 OFFCURVE",
"407 96 CURVE SMOOTH",
"305 96 OFFCURVE",
"230 156 OFFCURVE",
"230 313 CURVE SMOOTH",
"230 656 LINE",
"295 656 LINE",
"295 740 LINE",
"55 740 LINE"
);
}
);
width = 761;
}
);
unicode = 00DA;
},
{
glyphname = Ucircumflex;
lastChange = "2016-10-12 20:19:08 +0000";
layers = (
{
components = (
{
name = circumflex;
transform = "{1, 0, 0, 1, 163, 234}";
}
);
layerId = UUID0;
paths = (
{
closed = 1;
nodes = (
"25 606 LINE",
"92 606 LINE",
"92 309 LINE SMOOTH",
"92 110 OFFCURVE",
"219 -10 OFFCURVE",
"379 -10 CURVE SMOOTH",
"541 -10 OFFCURVE",
"669 110 OFFCURVE",
"669 318 CURVE SMOOTH",
"669 606 LINE",
"728 606 LINE",
"728 740 LINE",
"431 740 LINE",
"431 606 LINE",
"510 606 LINE",
"510 299 LINE SMOOTH",
"510 179 OFFCURVE",
"459 144 OFFCURVE",
"382 144 CURVE SMOOTH",
"308 144 OFFCURVE",
"254 187 OFFCURVE",
"254 299 CURVE SMOOTH",
"254 606 LINE",
"322 606 LINE",
"322 740 LINE",
"25 740 LINE"
);
}
);
width = 762;
},
{
components = (
{
name = circumflex;
transform = "{1, 0, 0, 1, 172, 234}";
}
);
layerId = UUID1;
paths = (
{
closed = 1;
nodes = (
"55 656 LINE",
"123 656 LINE",
"123 313 LINE SMOOTH",
"123 111 OFFCURVE",
"247 -10 OFFCURVE",
"403 -10 CURVE SMOOTH",
"563 -10 OFFCURVE",
"689 111 OFFCURVE",
"689 322 CURVE SMOOTH",
"689 656 LINE",
"755 656 LINE",
"755 740 LINE",
"515 740 LINE",
"515 656 LINE",
"584 656 LINE",
"584 313 LINE SMOOTH",
"584 145 OFFCURVE",
"513 96 OFFCURVE",
"407 96 CURVE SMOOTH",
"305 96 OFFCURVE",
"230 156 OFFCURVE",
"230 313 CURVE SMOOTH",
"230 656 LINE",
"295 656 LINE",
"295 740 LINE",
"55 740 LINE"
);
}
);
width = 761;
}
);
unicode = 00DB;
},
{
glyphname = Udieresis;
lastChange = "2016-10-12 20:19:08 +0000";
layers = (
{
components = (
{
name = dotaccent;
transform = "{1, 0, 0, 1, 131, 220}";
},
{
name = dotaccent;
transform = "{1, 0, 0, 1, 365, 220}";
}
);
layerId = UUID0;
paths = (
{
closed = 1;
nodes = (
"25 606 LINE",
"92 606 LINE",
"92 309 LINE SMOOTH",
"92 110 OFFCURVE",
"219 -10 OFFCURVE",
"379 -10 CURVE SMOOTH",
"541 -10 OFFCURVE",
"669 110 OFFCURVE",
"669 318 CURVE SMOOTH",
"669 606 LINE",
"728 606 LINE",
"728 740 LINE",
"431 740 LINE",
"431 606 LINE",
"510 606 LINE",
"510 299 LINE SMOOTH",
"510 179 OFFCURVE",
"459 144 OFFCURVE",
"382 144 CURVE SMOOTH",
"308 144 OFFCURVE",
"254 187 OFFCURVE",
"254 299 CURVE SMOOTH",
"254 606 LINE",
"322 606 LINE",
"322 740 LINE",
"25 740 LINE"
);
}
);
width = 762;
},
{
components = (
{
name = dotaccent;
transform = "{1, 0, 0, 1, 140, 213}";
},
{
name = dotaccent;
transform = "{1, 0, 0, 1, 364, 213}";
}
);
layerId = UUID1;
paths = (
{
closed = 1;
nodes = (
"55 656 LINE",
"123 656 LINE",
"123 313 LINE SMOOTH",
"123 111 OFFCURVE",
"247 -10 OFFCURVE",
"403 -10 CURVE SMOOTH",
"563 -10 OFFCURVE",
"689 111 OFFCURVE",
"689 322 CURVE SMOOTH",
"689 656 LINE",
"755 656 LINE",
"755 740 LINE",
"515 740 LINE",
"515 656 LINE",
"584 656 LINE",
"584 313 LINE SMOOTH",
"584 145 OFFCURVE",
"513 96 OFFCURVE",
"407 96 CURVE SMOOTH",
"305 96 OFFCURVE",
"230 156 OFFCURVE",
"230 313 CURVE SMOOTH",
"230 656 LINE",
"295 656 LINE",
"295 740 LINE",
"55 740 LINE"
);
}
);
width = 761;
}
);
unicode = 00DC;
},
{
glyphname = Ugrave;
lastChange = "2016-10-12 20:19:08 +0000";
layers = (
{
components = (
{
name = grave;
transform = "{1, 0, 0, 1, 114, 234}";
}
);
layerId = UUID0;
paths = (
{
closed = 1;
nodes = (
"25 606 LINE",
"92 606 LINE",
"92 309 LINE SMOOTH",
"92 110 OFFCURVE",
"219 -10 OFFCURVE",
"379 -10 CURVE SMOOTH",
"541 -10 OFFCURVE",
"669 110 OFFCURVE",
"669 318 CURVE SMOOTH",
"669 606 LINE",
"728 606 LINE",
"728 740 LINE",
"431 740 LINE",
"431 606 LINE",
"510 606 LINE",
"510 299 LINE SMOOTH",
"510 179 OFFCURVE",
"459 144 OFFCURVE",
"382 144 CURVE SMOOTH",
"308 144 OFFCURVE",
"254 187 OFFCURVE",
"254 299 CURVE SMOOTH",
"254 606 LINE",
"322 606 LINE",
"322 740 LINE",
"25 740 LINE"
);
}
);
width = 762;
},
{
components = (
{
name = grave;
transform = "{1, 0, 0, 1, 139, 234}";
}
);
layerId = UUID1;
paths = (
{
closed = 1;
nodes = (
"55 656 LINE",
"123 656 LINE",
"123 313 LINE SMOOTH",
"123 111 OFFCURVE",
"247 -10 OFFCURVE",
"403 -10 CURVE SMOOTH",
"563 -10 OFFCURVE",
"689 111 OFFCURVE",
"689 322 CURVE SMOOTH",
"689 656 LINE",
"755 656 LINE",
"755 740 LINE",
"515 740 LINE",
"515 656 LINE",
"584 656 LINE",
"584 313 LINE SMOOTH",
"584 145 OFFCURVE",
"513 96 OFFCURVE",
"407 96 CURVE SMOOTH",
"305 96 OFFCURVE",
"230 156 OFFCURVE",
"230 313 CURVE SMOOTH",
"230 656 LINE",
"295 656 LINE",
"295 740 LINE",
"55 740 LINE"
);
}
);
width = 761;
}
);
unicode = 00D9;
},
{
glyphname = V;
lastChange = "2016-10-12 20:19:07 +0000";
layers = (
{
anchors = (
{
name = top;
position = "{376, 700}";
}
);
layerId = UUID0;
paths = (
{
closed = 1;
nodes = (
"420 606 LINE",
"505 606 LINE",
"377 186 LINE",
"248 606 LINE",
"327 606 LINE",
"327 740 LINE",
"10 740 LINE",
"10 606 LINE",
"81 606 LINE",
"273 0 LINE",
"473 0 LINE",
"671 606 LINE",
"737 606 LINE",
"737 740 LINE",
"420 740 LINE"
);
}
);
width = 747;
},
{
anchors = (
{
name = top;
position = "{369, 700}";
}
);
layerId = UUID1;
paths = (
{
closed = 1;
nodes = (
"480 656 LINE",
"545 656 LINE",
"361 85 LINE",
"181 656 LINE",
"245 656 LINE",
"245 740 LINE",
"5 740 LINE",
"5 656 LINE",
"70 656 LINE",
"285 0 LINE",
"434 0 LINE",
"647 656 LINE",
"720 656 LINE",
"720 740 LINE",
"480 740 LINE"
);
}
);
width = 725;
}
);
unicode = 0056;
},
{
glyphname = W;
lastChange = "2016-10-12 20:19:07 +0000";
layers = (
{
anchors = (
{
name = top;
position = "{587, 700}";
}
);
layerId = UUID0;
paths = (
{
closed = 1;
nodes = (
"824 606 LINE",
"910 606 LINE",
"801 207 LINE",
"672 739 LINE",
"490 739 LINE",
"359 207 LINE",
"250 606 LINE",
"327 606 LINE",
"327 740 LINE",
"10 740 LINE",
"10 606 LINE",
"84 606 LINE",
"258 0 LINE",
"467 0 LINE",
"581 462 LINE",
"693 0 LINE",
"904 0 LINE",
"1074 606 LINE",
"1141 606 LINE",
"1141 740 LINE",
"824 740 LINE"
);
}
);
width = 1151;
},
{
anchors = (
{
name = top;
position = "{578, 700}";
}
);
layerId = UUID1;
paths = (
{
closed = 1;
nodes = (
"863 656 LINE",
"949 656 LINE",
"783 87 LINE",
"609 740 LINE",
"509 740 LINE",
"331 87 LINE",
"167 656 LINE",
"243 656 LINE",
"243 740 LINE",
"3 740 LINE",
"3 656 LINE",
"67 656 LINE",
"262 0 LINE",
"398 0 LINE",
"555 572 LINE",
"713 0 LINE",
"849 0 LINE",
"1042 656 LINE",
"1103 656 LINE",
"1103 740 LINE",
"863 740 LINE"
);
}
);
width = 1120;
}
);
unicode = 0057;
},
{
glyphname = X;
lastChange = "2016-10-12 20:19:07 +0000";
layers = (
{
anchors = (
{
name = top;
position = "{380, 700}";
}
);
layerId = UUID0;
paths = (
{
closed = 1;
nodes = (
"419 606 LINE",
"495 606 LINE",
"455 564 OFFCURVE",
"416 522 OFFCURVE",
"376 480 CURVE",
"337 522 OFFCURVE",
"297 564 OFFCURVE",
"257 606 CURVE",
"332 606 LINE",
"332 740 LINE",
"19 740 LINE",
"19 606 LINE",
"89 606 LINE",
"78 602 OFFCURVE",
"68 598 OFFCURVE",
"57 594 CURVE",
"128 519 OFFCURVE",
"199 443 OFFCURVE",
"271 368 CURVE",
"197 290 OFFCURVE",
"124 212 OFFCURVE",
"50 134 CURVE",
"17 134 LINE",
"17 0 LINE",
"330 0 LINE",
"330 134 LINE",
"264 134 LINE",
"302 174 OFFCURVE",
"339 214 OFFCURVE",
"377 255 CURVE",
"416 214 OFFCURVE",
"454 174 OFFCURVE",
"492 134 CURVE",
"417 134 LINE",
"417 0 LINE",
"731 0 LINE",
"731 134 LINE",
"658 134 LINE",
"673 135 OFFCURVE",
"688 136 OFFCURVE",
"703 137 CURVE",
"630 214 OFFCURVE",
"557 291 OFFCURVE",
"483 368 CURVE",
"554 443 OFFCURVE",
"625 519 OFFCURVE",
"696 594 CURVE",
"685 598 OFFCURVE",
"674 602 OFFCURVE",
"664 606 CURVE",
"733 606 LINE",
"733 740 LINE",
"419 740 LINE"
);
}
);
width = 770;
},
{
anchors = (
{
name = top;
position = "{380, 700}";
}
);
layerId = UUID1;
paths = (
{
closed = 1;
nodes = (
"464 656 LINE",
"542 656 LINE",
"493 588 OFFCURVE",
"444 521 OFFCURVE",
"396 453 CURVE",
"348 521 OFFCURVE",
"300 588 OFFCURVE",
"251 656 CURVE",
"323 656 LINE",
"323 740 LINE",
"83 740 LINE",
"83 656 LINE",
"143 656 LINE",
"154 641 OFFCURVE",
"165 625 OFFCURVE",
"176 610 CURVE",
"231 533 OFFCURVE",
"287 456 OFFCURVE",
"342 378 CURVE",
"272 280 OFFCURVE",
"202 182 OFFCURVE",
"131 84 CURVE",
"83 84 LINE",
"83 0 LINE",
"323 0 LINE",
"323 84 LINE",
"237 84 LINE",
"290 157 OFFCURVE",
"343 231 OFFCURVE",
"396 304 CURVE",
"449 231 OFFCURVE",
"501 157 OFFCURVE",
"554 84 CURVE",
"464 84 LINE",
"464 0 LINE",
"704 0 LINE",
"704 84 LINE",
"658 84 LINE",
"646 100 OFFCURVE",
"635 117 OFFCURVE",
"624 133 CURVE",
"565 214 OFFCURVE",
"507 296 OFFCURVE",
"449 378 CURVE",
"505 455 OFFCURVE",
"561 533 OFFCURVE",
"616 610 CURVE",
"627 625 OFFCURVE",
"639 641 OFFCURVE",
"650 656 CURVE",
"704 656 LINE",
"704 740 LINE",
"464 740 LINE"
);
}
);
width = 758;
}
);
unicode = 0058;
},
{
glyphname = Y;
lastChange = "2016-10-12 20:19:07 +0000";
layers = (
{
anchors = (
{
name = top;
position = "{384, 740}";
}
);
layerId = UUID0;
paths = (
{
closed = 1;
nodes = (
"23 606 LINE",
"88 606 LINE",
"295 309 LINE",
"295 134 LINE",
"213 134 LINE",
"213 0 LINE",
"543 0 LINE",
"543 134 LINE",
"453 134 LINE",
"453 307 LINE",
"673 606 LINE",
"728 606 LINE",
"728 740 LINE",
"411 740 LINE",
"411 606 LINE",
"482 606 LINE",
"377 436 LINE",
"278 606 LINE",
"340 606 LINE",
"340 740 LINE",
"23 740 LINE"
);
}
);
width = 750;
},
{
anchors = (
{
name = top;
position = "{344, 740}";
}
);
layerId = UUID1;
paths = (
{
closed = 1;
nodes = (
"25 656 LINE",
"82 656 LINE",
"279 343 LINE",
"279 84 LINE",
"211 84 LINE",
"211 0 LINE",
"451 0 LINE",
"451 84 LINE",
"375 84 LINE",
"375 340 LINE",
"583 656 LINE",
"646 656 LINE",
"646 740 LINE",
"406 740 LINE",
"406 656 LINE",
"483 656 LINE",
"334 418 LINE",
"194 656 LINE",
"265 656 LINE",
"265 740 LINE",
"25 740 LINE"
);
}
);
width = 661;
}
);
unicode = 0059;
},
{
glyphname = Yacute;
lastChange = "2016-10-12 20:19:08 +0000";
layers = (
{
components = (
{
name = acute;
transform = "{1, 0, 0, 1, 314, 234}";
}
);
layerId = UUID0;
paths = (
{
closed = 1;
nodes = (
"23 606 LINE",
"88 606 LINE",
"295 309 LINE",
"295 134 LINE",
"213 134 LINE",
"213 0 LINE",
"543 0 LINE",
"543 134 LINE",
"453 134 LINE",
"453 307 LINE",
"673 606 LINE",
"728 606 LINE",
"728 740 LINE",
"411 740 LINE",
"411 606 LINE",
"482 606 LINE",
"377 436 LINE",
"278 606 LINE",
"340 606 LINE",
"340 740 LINE",
"23 740 LINE"
);
}
);
width = 750;
},
{
components = (
{
name = acute;
transform = "{1, 0, 0, 1, 235, 234}";
}
);
layerId = UUID1;
paths = (
{
closed = 1;
nodes = (
"25 656 LINE",
"82 656 LINE",
"279 343 LINE",
"279 84 LINE",
"211 84 LINE",
"211 0 LINE",
"451 0 LINE",
"451 84 LINE",
"375 84 LINE",
"375 340 LINE",
"583 656 LINE",
"646 656 LINE",
"646 740 LINE",
"406 740 LINE",
"406 656 LINE",
"483 656 LINE",
"334 418 LINE",
"194 656 LINE",
"265 656 LINE",
"265 740 LINE",
"25 740 LINE"
);
}
);
width = 661;
}
);
unicode = 00DD;
},
{
glyphname = Z;
lastChange = "2016-10-12 20:19:07 +0000";
layers = (
{
anchors = (
{
name = top;
position = "{328, 740}";
}
);
layerId = UUID0;
paths = (
{
closed = 1;
nodes = (
"593 740 LINE",
"31 740 LINE",
"31 478 LINE",
"190 478 LINE",
"190 595 LINE",
"390 595 LINE",
"30 153 LINE",
"30 0 LINE",
"592 0 LINE",
"592 260 LINE",
"433 260 LINE",
"433 145 LINE",
"224 145 LINE",
"593 587 LINE"
);
}
);
width = 623;
},
{
anchors = (
{
name = top;
position = "{301, 740}";
}
);
layerId = UUID1;
paths = (
{
closed = 1;
nodes = (
"568 740 LINE",
"33 740 LINE",
"33 531 LINE",
"129 531 LINE",
"129 656 LINE",
"464 656 LINE",
"25 111 LINE",
"25 0 LINE",
"565 0 LINE",
"565 207 LINE",
"469 207 LINE",
"469 84 LINE",
"122 84 LINE",
"568 631 LINE"
);
}
);
width = 593;
}
);
unicode = 005A;
},
{
glyphname = a;
lastChange = "2016-10-12 20:19:07 +0000";
layers = (
{
anchors = (
{
name = top;
position = "{254, 506}";
}
);
layerId = UUID0;
paths = (
{
closed = 1;
nodes = (
"350 0 LINE",
"561 0 LINE",
"561 134 LINE",
"493 134 LINE",
"493 195 OFFCURVE",
"493 257 OFFCURVE",
"493 318 CURVE SMOOTH",
"493 464 OFFCURVE",
"402 517 OFFCURVE",
"275 517 CURVE SMOOTH",
"194 517 OFFCURVE",
"121 492 OFFCURVE",
"55 447 CURVE",
"102 352 LINE",
"145 375 OFFCURVE",
"189 387 OFFCURVE",
"250 387 CURVE SMOOTH",
"309 387 OFFCURVE",
"350 365 OFFCURVE",
"350 314 CURVE SMOOTH",
"350 298 LINE",
"318 306 OFFCURVE",
"280 311 OFFCURVE",
"234 311 CURVE SMOOTH",
"108 311 OFFCURVE",
"35 244 OFFCURVE",
"35 150 CURVE SMOOTH",
"35 58 OFFCURVE",
"107 -12 OFFCURVE",
"228 -12 CURVE SMOOTH",
"276 -12 OFFCURVE",
"305 -1 OFFCURVE",
"350 27 CURVE"
);
},
{
closed = 1;
nodes = (
"195 103 OFFCURVE",
"173 126 OFFCURVE",
"173 156 CURVE SMOOTH",
"173 188 OFFCURVE",
"203 206 OFFCURVE",
"233 206 CURVE SMOOTH",
"350 206 LINE",
"350 142 LINE",
"324 120 OFFCURVE",
"285 103 OFFCURVE",
"239 103 CURVE SMOOTH"
);
}
);
width = 581;
},
{
anchors = (
{
name = top;
position = "{254, 506}";
}
);
layerId = UUID1;
paths = (
{
closed = 1;
nodes = (
"337 0 LINE",
"484 0 LINE",
"484 84 LINE",
"427 84 LINE",
"427 168 OFFCURVE",
"428 253 OFFCURVE",
"428 337 CURVE SMOOTH",
"428 463 OFFCURVE",
"356 517 OFFCURVE",
"239 517 CURVE SMOOTH",
"175 517 OFFCURVE",
"105 494 OFFCURVE",
"57 463 CURVE",
"87 400 LINE",
"116 419 OFFCURVE",
"169 437 OFFCURVE",
"230 437 CURVE SMOOTH",
"295 437 OFFCURVE",
"338 404 OFFCURVE",
"338 332 CURVE SMOOTH",
"337 286 LINE",
"312 292 OFFCURVE",
"278 296 OFFCURVE",
"235 296 CURVE SMOOTH",
"147 296 OFFCURVE",
"25 261 OFFCURVE",
"25 134 CURVE SMOOTH",
"25 53 OFFCURVE",
"95 -14 OFFCURVE",
"194 -14 CURVE SMOOTH",
"252 -14 OFFCURVE",
"299 11 OFFCURVE",
"337 47 CURVE"
);
},
{
closed = 1;
nodes = (
"154 62 OFFCURVE",
"113 90 OFFCURVE",
"113 144 CURVE SMOOTH",
"113 201 OFFCURVE",
"162 233 OFFCURVE",
"232 233 CURVE SMOOTH",
"337 233 LINE",
"337 117 LINE",
"312 88 OFFCURVE",
"263 62 OFFCURVE",
"214 62 CURVE SMOOTH"
);
}
);
width = 509;
}
);
unicode = 0061;
},
{
glyphname = aacute;
lastChange = "2016-10-12 20:19:08 +0000";
layers = (
{
components = (
{
name = acute;
transform = "{1, 0, 0, 1, 184, 0}";
}
);
layerId = UUID0;
paths = (
{
closed = 1;
nodes = (
"350 0 LINE",
"561 0 LINE",
"561 134 LINE",
"493 134 LINE",
"493 195 OFFCURVE",
"493 257 OFFCURVE",
"493 318 CURVE SMOOTH",
"493 464 OFFCURVE",
"402 517 OFFCURVE",
"275 517 CURVE SMOOTH",
"194 517 OFFCURVE",
"121 492 OFFCURVE",
"55 447 CURVE",
"102 352 LINE",
"145 375 OFFCURVE",
"189 387 OFFCURVE",
"250 387 CURVE SMOOTH",
"309 387 OFFCURVE",
"350 365 OFFCURVE",
"350 314 CURVE SMOOTH",
"350 298 LINE",
"318 306 OFFCURVE",
"280 311 OFFCURVE",
"234 311 CURVE SMOOTH",
"108 311 OFFCURVE",
"35 244 OFFCURVE",
"35 150 CURVE SMOOTH",
"35 58 OFFCURVE",
"107 -12 OFFCURVE",
"228 -12 CURVE SMOOTH",
"276 -12 OFFCURVE",
"305 -1 OFFCURVE",
"350 27 CURVE"
);
},
{
closed = 1;
nodes = (
"195 103 OFFCURVE",
"173 126 OFFCURVE",
"173 156 CURVE SMOOTH",
"173 188 OFFCURVE",
"203 206 OFFCURVE",
"233 206 CURVE SMOOTH",
"350 206 LINE",
"350 142 LINE",
"324 120 OFFCURVE",
"285 103 OFFCURVE",
"239 103 CURVE SMOOTH"
);
}
);
width = 581;
},
{
components = (
{
name = acute;
transform = "{1, 0, 0, 1, 145, 0}";
}
);
layerId = UUID1;
paths = (
{
closed = 1;
nodes = (
"337 0 LINE",
"484 0 LINE",
"484 84 LINE",
"427 84 LINE",
"427 168 OFFCURVE",
"428 253 OFFCURVE",
"428 337 CURVE SMOOTH",
"428 463 OFFCURVE",
"356 517 OFFCURVE",
"239 517 CURVE SMOOTH",
"175 517 OFFCURVE",
"105 494 OFFCURVE",
"57 463 CURVE",
"87 400 LINE",
"116 419 OFFCURVE",
"169 437 OFFCURVE",
"230 437 CURVE SMOOTH",
"295 437 OFFCURVE",
"338 404 OFFCURVE",
"338 332 CURVE SMOOTH",
"337 286 LINE",
"312 292 OFFCURVE",
"278 296 OFFCURVE",
"235 296 CURVE SMOOTH",
"147 296 OFFCURVE",
"25 261 OFFCURVE",
"25 134 CURVE SMOOTH",
"25 53 OFFCURVE",
"95 -14 OFFCURVE",
"194 -14 CURVE SMOOTH",
"252 -14 OFFCURVE",
"299 11 OFFCURVE",
"337 47 CURVE"
);
},
{
closed = 1;
nodes = (
"154 62 OFFCURVE",
"113 90 OFFCURVE",
"113 144 CURVE SMOOTH",
"113 201 OFFCURVE",
"162 233 OFFCURVE",
"232 233 CURVE SMOOTH",
"337 233 LINE",
"337 117 LINE",
"312 88 OFFCURVE",
"263 62 OFFCURVE",
"214 62 CURVE SMOOTH"
);
}
);
width = 509;
}
);
unicode = 00E1;
},
{
glyphname = acircumflex;
lastChange = "2016-10-12 20:19:08 +0000";
layers = (
{
components = (
{
name = circumflex;
transform = "{1, 0, 0, 1, 38, 0}";
}
);
layerId = UUID0;
paths = (
{
closed = 1;
nodes = (
"350 0 LINE",
"561 0 LINE",
"561 134 LINE",
"493 134 LINE",
"493 195 OFFCURVE",
"493 257 OFFCURVE",
"493 318 CURVE SMOOTH",
"493 464 OFFCURVE",
"402 517 OFFCURVE",
"275 517 CURVE SMOOTH",
"194 517 OFFCURVE",
"121 492 OFFCURVE",
"55 447 CURVE",
"102 352 LINE",
"145 375 OFFCURVE",
"189 387 OFFCURVE",
"250 387 CURVE SMOOTH",
"309 387 OFFCURVE",
"350 365 OFFCURVE",
"350 314 CURVE SMOOTH",
"350 298 LINE",
"318 306 OFFCURVE",
"280 311 OFFCURVE",
"234 311 CURVE SMOOTH",
"108 311 OFFCURVE",
"35 244 OFFCURVE",
"35 150 CURVE SMOOTH",
"35 58 OFFCURVE",
"107 -12 OFFCURVE",
"228 -12 CURVE SMOOTH",
"276 -12 OFFCURVE",
"305 -1 OFFCURVE",
"350 27 CURVE"
);
},
{
closed = 1;
nodes = (
"195 103 OFFCURVE",
"173 126 OFFCURVE",
"173 156 CURVE SMOOTH",
"173 188 OFFCURVE",
"203 206 OFFCURVE",
"233 206 CURVE SMOOTH",
"350 206 LINE",
"350 142 LINE",
"324 120 OFFCURVE",
"285 103 OFFCURVE",
"239 103 CURVE SMOOTH"
);
}
);
width = 581;
},
{
components = (
{
name = circumflex;
transform = "{1, 0, 0, 1, 22, 0}";
}
);
layerId = UUID1;
paths = (
{
closed = 1;
nodes = (
"337 0 LINE",
"484 0 LINE",
"484 84 LINE",
"427 84 LINE",
"427 168 OFFCURVE",
"428 253 OFFCURVE",
"428 337 CURVE SMOOTH",
"428 463 OFFCURVE",
"356 517 OFFCURVE",
"239 517 CURVE SMOOTH",
"175 517 OFFCURVE",
"105 494 OFFCURVE",
"57 463 CURVE",
"87 400 LINE",
"116 419 OFFCURVE",
"169 437 OFFCURVE",
"230 437 CURVE SMOOTH",
"295 437 OFFCURVE",
"338 404 OFFCURVE",
"338 332 CURVE SMOOTH",
"337 286 LINE",
"312 292 OFFCURVE",
"278 296 OFFCURVE",
"235 296 CURVE SMOOTH",
"147 296 OFFCURVE",
"25 261 OFFCURVE",
"25 134 CURVE SMOOTH",
"25 53 OFFCURVE",
"95 -14 OFFCURVE",
"194 -14 CURVE SMOOTH",
"252 -14 OFFCURVE",
"299 11 OFFCURVE",
"337 47 CURVE"
);
},
{
closed = 1;
nodes = (
"154 62 OFFCURVE",
"113 90 OFFCURVE",
"113 144 CURVE SMOOTH",
"113 201 OFFCURVE",
"162 233 OFFCURVE",
"232 233 CURVE SMOOTH",
"337 233 LINE",
"337 117 LINE",
"312 88 OFFCURVE",
"263 62 OFFCURVE",
"214 62 CURVE SMOOTH"
);
}
);
width = 509;
}
);
unicode = 00E2;
},
{
color = (31,255,0,1);
glyphname = adieresis;
lastChange = "2016-10-12 20:19:08 +0000";
layers = (
{
components = (
{
name = dotaccent;
transform = "{1, 0, 0, 1, 6, -14}";
},
{
name = dotaccent;
transform = "{1, 0, 0, 1, 240, -14}";
}
);
layerId = UUID0;
paths = (
{
closed = 1;
nodes = (
"350 0 LINE",
"561 0 LINE",
"561 134 LINE",
"493 134 LINE",
"493 195 OFFCURVE",
"493 257 OFFCURVE",
"493 318 CURVE SMOOTH",
"493 464 OFFCURVE",
"402 517 OFFCURVE",
"275 517 CURVE SMOOTH",
"194 517 OFFCURVE",
"121 492 OFFCURVE",
"55 447 CURVE",
"102 352 LINE",
"145 375 OFFCURVE",
"189 387 OFFCURVE",
"250 387 CURVE SMOOTH",
"309 387 OFFCURVE",
"350 365 OFFCURVE",
"350 314 CURVE SMOOTH",
"350 298 LINE",
"318 306 OFFCURVE",
"280 311 OFFCURVE",
"234 311 CURVE SMOOTH",
"108 311 OFFCURVE",
"35 244 OFFCURVE",
"35 150 CURVE SMOOTH",
"35 58 OFFCURVE",
"107 -12 OFFCURVE",
"228 -12 CURVE SMOOTH",
"276 -12 OFFCURVE",
"305 -1 OFFCURVE",
"350 27 CURVE"
);
},
{
closed = 1;
nodes = (
"195 103 OFFCURVE",
"173 126 OFFCURVE",
"173 156 CURVE SMOOTH",
"173 188 OFFCURVE",
"203 206 OFFCURVE",
"233 206 CURVE SMOOTH",
"350 206 LINE",
"350 142 LINE",
"324 120 OFFCURVE",
"285 103 OFFCURVE",
"239 103 CURVE SMOOTH"
);
}
);
width = 581;
},
{
components = (
{
name = dotaccent;
transform = "{1, 0, 0, 1, -10, -21}";
},
{
name = dotaccent;
transform = "{1, 0, 0, 1, 214, -21}";
}
);
layerId = UUID1;
paths = (
{
closed = 1;
nodes = (
"337 0 LINE",
"484 0 LINE",
"484 84 LINE",
"427 84 LINE",
"427 168 OFFCURVE",
"428 253 OFFCURVE",
"428 337 CURVE SMOOTH",
"428 463 OFFCURVE",
"356 517 OFFCURVE",
"239 517 CURVE SMOOTH",
"175 517 OFFCURVE",
"105 494 OFFCURVE",
"57 463 CURVE",
"87 400 LINE",
"116 419 OFFCURVE",
"169 437 OFFCURVE",
"230 437 CURVE SMOOTH",
"295 437 OFFCURVE",
"338 404 OFFCURVE",
"338 332 CURVE SMOOTH",
"337 286 LINE",
"312 292 OFFCURVE",
"278 296 OFFCURVE",
"235 296 CURVE SMOOTH",
"147 296 OFFCURVE",
"25 261 OFFCURVE",
"25 134 CURVE SMOOTH",
"25 53 OFFCURVE",
"95 -14 OFFCURVE",
"194 -14 CURVE SMOOTH",
"252 -14 OFFCURVE",
"299 11 OFFCURVE",
"337 47 CURVE"
);
},
{
closed = 1;
nodes = (
"154 62 OFFCURVE",
"113 90 OFFCURVE",
"113 144 CURVE SMOOTH",
"113 201 OFFCURVE",
"162 233 OFFCURVE",
"232 233 CURVE SMOOTH",
"337 233 LINE",
"337 117 LINE",
"312 88 OFFCURVE",
"263 62 OFFCURVE",
"214 62 CURVE SMOOTH"
);
}
);
width = 509;
}
);
unicode = 00E4;
},
{
glyphname = agrave;
lastChange = "2016-10-12 20:19:08 +0000";
layers = (
{
components = (
{
name = grave;
transform = "{1, 0, 0, 1, 19, 0}";
}
);
layerId = UUID0;
paths = (
{
closed = 1;
nodes = (
"350 0 LINE",
"561 0 LINE",
"561 134 LINE",
"493 134 LINE",
"493 195 OFFCURVE",
"493 257 OFFCURVE",
"493 318 CURVE SMOOTH",
"493 464 OFFCURVE",
"402 517 OFFCURVE",
"275 517 CURVE SMOOTH",
"194 517 OFFCURVE",
"121 492 OFFCURVE",
"55 447 CURVE",
"102 352 LINE",
"145 375 OFFCURVE",
"189 387 OFFCURVE",
"250 387 CURVE SMOOTH",
"309 387 OFFCURVE",
"350 365 OFFCURVE",
"350 314 CURVE SMOOTH",
"350 298 LINE",
"318 306 OFFCURVE",
"280 311 OFFCURVE",
"234 311 CURVE SMOOTH",
"108 311 OFFCURVE",
"35 244 OFFCURVE",
"35 150 CURVE SMOOTH",
"35 58 OFFCURVE",
"107 -12 OFFCURVE",
"228 -12 CURVE SMOOTH",
"276 -12 OFFCURVE",
"305 -1 OFFCURVE",
"350 27 CURVE"
);
},
{
closed = 1;
nodes = (
"195 103 OFFCURVE",
"173 126 OFFCURVE",
"173 156 CURVE SMOOTH",
"173 188 OFFCURVE",
"203 206 OFFCURVE",
"233 206 CURVE SMOOTH",
"350 206 LINE",
"350 142 LINE",
"324 120 OFFCURVE",
"285 103 OFFCURVE",
"239 103 CURVE SMOOTH"
);
}
);
width = 581;
},
{
components = (
{
name = grave;
transform = "{1, 0, 0, 1, 19, 0}";
}
);
layerId = UUID1;
paths = (
{
closed = 1;
nodes = (
"337 0 LINE",
"484 0 LINE",
"484 84 LINE",
"427 84 LINE",
"427 168 OFFCURVE",
"428 253 OFFCURVE",
"428 337 CURVE SMOOTH",
"428 463 OFFCURVE",
"356 517 OFFCURVE",
"239 517 CURVE SMOOTH",
"175 517 OFFCURVE",
"105 494 OFFCURVE",
"57 463 CURVE",
"87 400 LINE",
"116 419 OFFCURVE",
"169 437 OFFCURVE",
"230 437 CURVE SMOOTH",
"295 437 OFFCURVE",
"338 404 OFFCURVE",
"338 332 CURVE SMOOTH",
"337 286 LINE",
"312 292 OFFCURVE",
"278 296 OFFCURVE",
"235 296 CURVE SMOOTH",
"147 296 OFFCURVE",
"25 261 OFFCURVE",
"25 134 CURVE SMOOTH",
"25 53 OFFCURVE",
"95 -14 OFFCURVE",
"194 -14 CURVE SMOOTH",
"252 -14 OFFCURVE",
"299 11 OFFCURVE",
"337 47 CURVE"
);
},
{
closed = 1;
nodes = (
"154 62 OFFCURVE",
"113 90 OFFCURVE",
"113 144 CURVE SMOOTH",
"113 201 OFFCURVE",
"162 233 OFFCURVE",
"232 233 CURVE SMOOTH",
"337 233 LINE",
"337 117 LINE",
"312 88 OFFCURVE",
"263 62 OFFCURVE",
"214 62 CURVE SMOOTH"
);
}
);
width = 509;
}
);
unicode = 00E0;
},
{
glyphname = aring;
lastChange = "2016-10-12 20:19:08 +0000";
layers = (
{
components = (
{
name = ring;
transform = "{1, 0, 0, 1, -40, 150}";
}
);
layerId = UUID0;
paths = (
{
closed = 1;
nodes = (
"350 0 LINE",
"561 0 LINE",
"561 134 LINE",
"493 134 LINE",
"493 195 OFFCURVE",
"493 257 OFFCURVE",
"493 318 CURVE SMOOTH",
"493 464 OFFCURVE",
"402 517 OFFCURVE",
"275 517 CURVE SMOOTH",
"194 517 OFFCURVE",
"121 492 OFFCURVE",
"55 447 CURVE",
"102 352 LINE",
"145 375 OFFCURVE",
"189 387 OFFCURVE",
"250 387 CURVE SMOOTH",
"309 387 OFFCURVE",
"350 365 OFFCURVE",
"350 314 CURVE SMOOTH",
"350 298 LINE",
"318 306 OFFCURVE",
"280 311 OFFCURVE",
"234 311 CURVE SMOOTH",
"108 311 OFFCURVE",
"35 244 OFFCURVE",
"35 150 CURVE SMOOTH",
"35 58 OFFCURVE",
"107 -12 OFFCURVE",
"228 -12 CURVE SMOOTH",
"276 -12 OFFCURVE",
"305 -1 OFFCURVE",
"350 27 CURVE"
);
},
{
closed = 1;
nodes = (
"195 103 OFFCURVE",
"173 126 OFFCURVE",
"173 156 CURVE SMOOTH",
"173 188 OFFCURVE",
"203 206 OFFCURVE",
"233 206 CURVE SMOOTH",
"350 206 LINE",
"350 142 LINE",
"324 120 OFFCURVE",
"285 103 OFFCURVE",
"239 103 CURVE SMOOTH"
);
}
);
width = 581;
},
{
components = (
{
name = ring;
transform = "{1, 0, 0, 1, -42, 110}";
}
);
layerId = UUID1;
paths = (
{
closed = 1;
nodes = (
"337 0 LINE",
"484 0 LINE",
"484 84 LINE",
"427 84 LINE",
"427 168 OFFCURVE",
"428 253 OFFCURVE",
"428 337 CURVE SMOOTH",
"428 463 OFFCURVE",
"356 517 OFFCURVE",
"239 517 CURVE SMOOTH",
"175 517 OFFCURVE",
"105 494 OFFCURVE",
"57 463 CURVE",
"87 400 LINE",
"116 419 OFFCURVE",
"169 437 OFFCURVE",
"230 437 CURVE SMOOTH",
"295 437 OFFCURVE",
"338 404 OFFCURVE",
"338 332 CURVE SMOOTH",
"337 286 LINE",
"312 292 OFFCURVE",
"278 296 OFFCURVE",
"235 296 CURVE SMOOTH",
"147 296 OFFCURVE",
"25 261 OFFCURVE",
"25 134 CURVE SMOOTH",
"25 53 OFFCURVE",
"95 -14 OFFCURVE",
"194 -14 CURVE SMOOTH",
"252 -14 OFFCURVE",
"299 11 OFFCURVE",
"337 47 CURVE"
);
},
{
closed = 1;
nodes = (
"154 62 OFFCURVE",
"113 90 OFFCURVE",
"113 144 CURVE SMOOTH",
"113 201 OFFCURVE",
"162 233 OFFCURVE",
"232 233 CURVE SMOOTH",
"337 233 LINE",
"337 117 LINE",
"312 88 OFFCURVE",
"263 62 OFFCURVE",
"214 62 CURVE SMOOTH"
);
}
);
width = 509;
}
);
unicode = 00E5;
},
{
glyphname = atilde;
lastChange = "2016-10-12 20:19:08 +0000";
layers = (
{
components = (
{
name = tilde;
transform = "{1, 0, 0, 1, 28, 0}";
}
);
layerId = UUID0;
paths = (
{
closed = 1;
nodes = (
"350 0 LINE",
"561 0 LINE",
"561 134 LINE",
"493 134 LINE",
"493 195 OFFCURVE",
"493 257 OFFCURVE",
"493 318 CURVE SMOOTH",
"493 464 OFFCURVE",
"402 517 OFFCURVE",
"275 517 CURVE SMOOTH",
"194 517 OFFCURVE",
"121 492 OFFCURVE",
"55 447 CURVE",
"102 352 LINE",
"145 375 OFFCURVE",
"189 387 OFFCURVE",
"250 387 CURVE SMOOTH",
"309 387 OFFCURVE",
"350 365 OFFCURVE",
"350 314 CURVE SMOOTH",
"350 298 LINE",
"318 306 OFFCURVE",
"280 311 OFFCURVE",
"234 311 CURVE SMOOTH",
"108 311 OFFCURVE",
"35 244 OFFCURVE",
"35 150 CURVE SMOOTH",
"35 58 OFFCURVE",
"107 -12 OFFCURVE",
"228 -12 CURVE SMOOTH",
"276 -12 OFFCURVE",
"305 -1 OFFCURVE",
"350 27 CURVE"
);
},
{
closed = 1;
nodes = (
"195 103 OFFCURVE",
"173 126 OFFCURVE",
"173 156 CURVE SMOOTH",
"173 188 OFFCURVE",
"203 206 OFFCURVE",
"233 206 CURVE SMOOTH",
"350 206 LINE",
"350 142 LINE",
"324 120 OFFCURVE",
"285 103 OFFCURVE",
"239 103 CURVE SMOOTH"
);
}
);
width = 581;
},
{
components = (
{
name = tilde;
transform = "{1, 0, 0, 1, 38, 0}";
}
);
layerId = UUID1;
paths = (
{
closed = 1;
nodes = (
"337 0 LINE",
"484 0 LINE",
"484 84 LINE",
"427 84 LINE",
"427 168 OFFCURVE",
"428 253 OFFCURVE",
"428 337 CURVE SMOOTH",
"428 463 OFFCURVE",
"356 517 OFFCURVE",
"239 517 CURVE SMOOTH",
"175 517 OFFCURVE",
"105 494 OFFCURVE",
"57 463 CURVE",
"87 400 LINE",
"116 419 OFFCURVE",
"169 437 OFFCURVE",
"230 437 CURVE SMOOTH",
"295 437 OFFCURVE",
"338 404 OFFCURVE",
"338 332 CURVE SMOOTH",
"337 286 LINE",
"312 292 OFFCURVE",
"278 296 OFFCURVE",
"235 296 CURVE SMOOTH",
"147 296 OFFCURVE",
"25 261 OFFCURVE",
"25 134 CURVE SMOOTH",
"25 53 OFFCURVE",
"95 -14 OFFCURVE",
"194 -14 CURVE SMOOTH",
"252 -14 OFFCURVE",
"299 11 OFFCURVE",
"337 47 CURVE"
);
},
{
closed = 1;
nodes = (
"154 62 OFFCURVE",
"113 90 OFFCURVE",
"113 144 CURVE SMOOTH",
"113 201 OFFCURVE",
"162 233 OFFCURVE",
"232 233 CURVE SMOOTH",
"337 233 LINE",
"337 117 LINE",
"312 88 OFFCURVE",
"263 62 OFFCURVE",
"214 62 CURVE SMOOTH"
);
}
);
width = 509;
}
);
unicode = 00E3;
},
{
glyphname = ae;
lastChange = "2016-10-12 20:19:08 +0000";
layers = (
{
components = (
{
name = e;
transform = "{1, 0, 0, 1, 321, 0}";
}
);
layerId = UUID0;
paths = (
{
closed = 1;
nodes = (
"375 157 LINE",
"341 125 OFFCURVE",
"299 103 OFFCURVE",
"239 103 CURVE SMOOTH",
"195 103 OFFCURVE",
"173 126 OFFCURVE",
"173 156 CURVE SMOOTH",
"173 188 OFFCURVE",
"203 206 OFFCURVE",
"233 206 CURVE SMOOTH",
"353 206 LINE",
"354 222 LINE",
"489 250 LINE",
"489 274 OFFCURVE",
"489 293 OFFCURVE",
"489 318 CURVE SMOOTH",
"489 464 OFFCURVE",
"402 517 OFFCURVE",
"275 517 CURVE SMOOTH",
"194 517 OFFCURVE",
"121 492 OFFCURVE",
"55 447 CURVE",
"102 352 LINE",
"145 375 OFFCURVE",
"189 387 OFFCURVE",
"250 387 CURVE SMOOTH",
"309 387 OFFCURVE",
"347 365 OFFCURVE",
"347 314 CURVE SMOOTH",
"347 299 LINE",
"315 306 OFFCURVE",
"278 311 OFFCURVE",
"234 311 CURVE SMOOTH",
"108 311 OFFCURVE",
"35 244 OFFCURVE",
"35 150 CURVE SMOOTH",
"35 58 OFFCURVE",
"107 -12 OFFCURVE",
"228 -12 CURVE SMOOTH",
"322 -12 OFFCURVE",
"382 29 OFFCURVE",
"421 71 CURVE"
);
}
);
width = 904;
},
{
components = (
{
name = e;
transform = "{1, 0, 0, 1, 292, 0}";
}
);
layerId = UUID1;
paths = (
{
closed = 1;
nodes = (
"383 164 LINE",
"354 105 OFFCURVE",
"295 62 OFFCURVE",
"214 62 CURVE SMOOTH",
"154 62 OFFCURVE",
"113 90 OFFCURVE",
"113 144 CURVE SMOOTH",
"113 201 OFFCURVE",
"162 233 OFFCURVE",
"232 233 CURVE SMOOTH",
"345 233 LINE",
"347 245 LINE",
"427 200 LINE",
"427 312 OFFCURVE",
"428 225 OFFCURVE",
"428 337 CURVE SMOOTH",
"428 463 OFFCURVE",
"356 517 OFFCURVE",
"239 517 CURVE SMOOTH",
"175 517 OFFCURVE",
"105 494 OFFCURVE",
"57 463 CURVE",
"87 400 LINE",
"116 419 OFFCURVE",
"169 437 OFFCURVE",
"230 437 CURVE SMOOTH",
"295 437 OFFCURVE",
"340 404 OFFCURVE",
"339 332 CURVE SMOOTH",
"338 286 LINE",
"313 292 OFFCURVE",
"278 296 OFFCURVE",
"235 296 CURVE SMOOTH",
"147 296 OFFCURVE",
"25 261 OFFCURVE",
"25 134 CURVE SMOOTH",
"25 53 OFFCURVE",
"95 -14 OFFCURVE",
"204 -14 CURVE SMOOTH",
"288 -14 OFFCURVE",
"375 30 OFFCURVE",
"408 97 CURVE"
);
}
);
width = 871;
}
);
unicode = 00E6;
},
{
glyphname = b;
lastChange = "2016-10-12 20:19:07 +0000";
layers = (
{
anchors = (
{
name = top;
position = "{329, 506}";
}
);
layerId = UUID0;
paths = (
{
closed = 1;
nodes = (
"14 626 LINE",
"85 626 LINE",
"85 0 LINE",
"235 0 LINE",
"235 14 LINE",
"269 0 OFFCURVE",
"305 -9 OFFCURVE",
"346 -9 CURVE SMOOTH",
"498 -9 OFFCURVE",
"607 110 OFFCURVE",
"607 256 CURVE SMOOTH",
"607 401 OFFCURVE",
"496 521 OFFCURVE",
"346 521 CURVE SMOOTH",
"308 521 OFFCURVE",
"271 512 OFFCURVE",
"235 495 CURVE",
"235 760 LINE",
"235 760 LINE",
"235 760 LINE",
"14 760 LINE"
);
},
{
closed = 1;
nodes = (
"403 386 OFFCURVE",
"458 336 OFFCURVE",
"458 255 CURVE SMOOTH",
"458 176 OFFCURVE",
"402 126 OFFCURVE",
"335 126 CURVE SMOOTH",
"292 126 OFFCURVE",
"256 147 OFFCURVE",
"235 178 CURVE",
"235 330 LINE",
"259 366 OFFCURVE",
"294 386 OFFCURVE",
"336 386 CURVE SMOOTH"
);
}
);
width = 637;
},
{
anchors = (
{
name = top;
position = "{297, 506}";
}
);
layerId = UUID1;
paths = (
{
closed = 1;
nodes = (
"28 676 LINE",
"101 676 LINE",
"101 0 LINE",
"192 0 LINE",
"192 32 LINE",
"223 8 OFFCURVE",
"269 -8 OFFCURVE",
"319 -8 CURVE SMOOTH",
"463 -8 OFFCURVE",
"567 100 OFFCURVE",
"567 262 CURVE SMOOTH",
"567 414 OFFCURVE",
"473 518 OFFCURVE",
"341 518 CURVE SMOOTH",
"287 518 OFFCURVE",
"235 497 OFFCURVE",
"192 464 CURVE",
"192 760 LINE",
"189 760 LINE",
"189 760 LINE",
"28 760 LINE"
);
},
{
closed = 1;
nodes = (
"403 438 OFFCURVE",
"473 373 OFFCURVE",
"473 259 CURVE SMOOTH",
"473 134 OFFCURVE",
"398 71 OFFCURVE",
"314 71 CURVE SMOOTH",
"253 71 OFFCURVE",
"213 90 OFFCURVE",
"192 112 CURVE",
"192 384 LINE",
"224 417 OFFCURVE",
"270 438 OFFCURVE",
"317 438 CURVE SMOOTH"
);
}
);
width = 612;
}
);
unicode = 0062;
},
{
glyphname = c;
lastChange = "2016-10-12 20:19:07 +0000";
layers = (
{
anchors = (
{
name = bottom;
position = "{299, 0}";
},
{
name = top;
position = "{300, 506}";
}
);
layerId = UUID0;
paths = (
{
closed = 1;
nodes = (
"416 338 LINE",
"416 338 OFFCURVE",
"416 338 OFFCURVE",
"416 338 CURVE",
"431 338 OFFCURVE",
"446 338 OFFCURVE",
"461 338 CURVE SMOOTH",
"551 338 LINE",
"551 485 LINE",
"454 485 LINE",
"408 512 OFFCURVE",
"355 528 OFFCURVE",
"301 528 CURVE SMOOTH",
"148 528 OFFCURVE",
"35 411 OFFCURVE",
"35 259 CURVE SMOOTH",
"35 108 OFFCURVE",
"146 -12 OFFCURVE",
"301 -12 CURVE SMOOTH",
"450 -12 OFFCURVE",
"537 92 OFFCURVE",
"559 172 CURVE",
"514 185 OFFCURVE",
"470 198 OFFCURVE",
"425 211 CURVE",
"409 171 OFFCURVE",
"369 127 OFFCURVE",
"308 127 CURVE SMOOTH",
"236 127 OFFCURVE",
"181 181 OFFCURVE",
"181 258 CURVE SMOOTH",
"181 334 OFFCURVE",
"233 389 OFFCURVE",
"308 389 CURVE SMOOTH",
"355 389 OFFCURVE",
"388 370 OFFCURVE",
"416 338 CURVE"
);
}
);
width = 576;
},
{
anchors = (
{
name = bottom;
position = "{291, 0}";
},
{
name = top;
position = "{298, 506}";
}
);
layerId = UUID1;
paths = (
{
closed = 1;
nodes = (
"414 371 LINE",
"414 371 OFFCURVE",
"414 370 OFFCURVE",
"414 370 CURVE",
"415 371 OFFCURVE",
"416 371 OFFCURVE",
"416 371 CURVE SMOOTH",
"505 371 LINE",
"505 455 LINE",
"454 455 LINE",
"411 500 OFFCURVE",
"352 522 OFFCURVE",
"288 522 CURVE SMOOTH",
"153 522 OFFCURVE",
"44 410 OFFCURVE",
"44 254 CURVE SMOOTH",
"44 97 OFFCURVE",
"146 -14 OFFCURVE",
"287 -14 CURVE SMOOTH",
"384 -14 OFFCURVE",
"461 38 OFFCURVE",
"500 121 CURVE",
"475 133 OFFCURVE",
"450 146 OFFCURVE",
"425 158 CURVE",
"398 100 OFFCURVE",
"350 69 OFFCURVE",
"288 69 CURVE SMOOTH",
"204 69 OFFCURVE",
"135 141 OFFCURVE",
"135 254 CURVE SMOOTH",
"135 369 OFFCURVE",
"203 442 OFFCURVE",
"288 442 CURVE SMOOTH",
"343 442 OFFCURVE",
"386 419 OFFCURVE",
"413 371 CURVE"
);
}
);
width = 545;
}
);
unicode = 0063;
},
{
glyphname = d;
lastChange = "2016-10-12 20:19:07 +0000";
layers = (
{
anchors = (
{
name = top;
position = "{313, 506}";
}
);
layerId = UUID0;
paths = (
{
closed = 1;
nodes = (
"313 626 LINE",
"384 626 LINE",
"384 498 LINE",
"350 512 OFFCURVE",
"312 521 OFFCURVE",
"271 521 CURVE SMOOTH",
"117 521 OFFCURVE",
"10 405 OFFCURVE",
"10 257 CURVE SMOOTH",
"10 109 OFFCURVE",
"119 -10 OFFCURVE",
"274 -10 CURVE SMOOTH",
"312 -10 OFFCURVE",
"349 1 OFFCURVE",
"384 20 CURVE",
"384 0 LINE",
"633 0 LINE",
"633 134 LINE",
"534 134 LINE",
"534 646 LINE",
"534 703 LINE",
"534 760 LINE",
"313 760 LINE"
);
},
{
closed = 1;
nodes = (
"215 126 OFFCURVE",
"159 175 OFFCURVE",
"159 256 CURVE SMOOTH",
"159 335 OFFCURVE",
"215 386 OFFCURVE",
"282 386 CURVE SMOOTH",
"322 386 OFFCURVE",
"361 366 OFFCURVE",
"384 332 CURVE",
"384 184 LINE",
"361 148 OFFCURVE",
"325 126 OFFCURVE",
"282 126 CURVE SMOOTH"
);
}
);
width = 663;
},
{
anchors = (
{
name = top;
position = "{313, 506}";
}
);
layerId = UUID1;
paths = (
{
closed = 1;
nodes = (
"347 676 LINE",
"416 676 LINE",
"416 482 LINE",
"379 508 OFFCURVE",
"340 518 OFFCURVE",
"291 518 CURVE SMOOTH",
"143 518 OFFCURVE",
"45 414 OFFCURVE",
"45 258 CURVE SMOOTH",
"45 86 OFFCURVE",
"149 -11 OFFCURVE",
"286 -11 CURVE SMOOTH",
"340 -11 OFFCURVE",
"384 9 OFFCURVE",
"416 42 CURVE",
"416 0 LINE",
"582 0 LINE",
"582 84 LINE",
"507 84 LINE",
"507 676 LINE",
"508 676 LINE",
"508 760 LINE",
"347 760 LINE"
);
},
{
closed = 1;
nodes = (
"205 68 OFFCURVE",
"139 134 OFFCURVE",
"139 259 CURVE SMOOTH",
"139 373 OFFCURVE",
"209 438 OFFCURVE",
"295 438 CURVE SMOOTH",
"339 438 OFFCURVE",
"384 426 OFFCURVE",
"416 399 CURVE",
"416 116 LINE",
"394 91 OFFCURVE",
"354 68 OFFCURVE",
"298 68 CURVE SMOOTH"
);
}
);
width = 619;
}
);
unicode = 0064;
},
{
color = (31,255,0,1);
glyphname = eth;
lastChange = "2016-10-12 20:19:08 +0000";
layers = (
{
components = (
{
name = nine;
transform = "{1, 0, 0, -1, 0, 748}";
}
);
layerId = UUID0;
paths = (
{
closed = 1;
nodes = (
"475 543 LINE",
"145 543 LINE",
"145 677 LINE",
"475 677 LINE"
);
}
);
width = 562;
},
{
components = (
{
name = nine;
transform = "{1, 0, 0, -1, 0, 744}";
}
);
layerId = UUID1;
paths = (
{
closed = 1;
nodes = (
"472 573 LINE",
"232 573 LINE",
"232 657 LINE",
"472 657 LINE"
);
}
);
width = 620;
}
);
unicode = 00F0;
},
{
glyphname = e;
lastChange = "2016-10-12 20:19:07 +0000";
layers = (
{
anchors = (
{
name = top;
position = "{284, 506}";
}
);
layerId = UUID0;
paths = (
{
closed = 1;
nodes = (
"543 221 LINE",
"544 238 OFFCURVE",
"544 254 OFFCURVE",
"542 270 CURVE",
"538 415 OFFCURVE",
"450 528 OFFCURVE",
"291 528 CURVE SMOOTH",
"133 528 OFFCURVE",
"25 408 OFFCURVE",
"25 260 CURVE SMOOTH",
"25 111 OFFCURVE",
"124 -13 OFFCURVE",
"300 -13 CURVE SMOOTH",
"393 -13 OFFCURVE",
"434 6 OFFCURVE",
"509 51 CURVE",
"455 151 LINE",
"407 133 OFFCURVE",
"362 117 OFFCURVE",
"303 117 CURVE SMOOTH",
"244 117 OFFCURVE",
"186 148 OFFCURVE",
"172 206 CURVE",
"171 211 OFFCURVE",
"171 216 OFFCURVE",
"170 221 CURVE"
);
},
{
closed = 1;
nodes = (
"356 406 OFFCURVE",
"377 368 OFFCURVE",
"386 324 CURVE",
"175 324 LINE",
"186 367 OFFCURVE",
"215 406 OFFCURVE",
"287 406 CURVE SMOOTH"
);
}
);
width = 579;
},
{
anchors = (
{
name = top;
position = "{283, 506}";
}
);
layerId = UUID1;
paths = (
{
closed = 1;
nodes = (
"499 241 LINE",
"499 265 OFFCURVE",
"498 291 OFFCURVE",
"495 316 CURVE",
"482 418 OFFCURVE",
"435 519 OFFCURVE",
"283 519 CURVE SMOOTH",
"126 519 OFFCURVE",
"45 400 OFFCURVE",
"45 255 CURVE SMOOTH",
"45 77 OFFCURVE",
"145 -14 OFFCURVE",
"282 -14 CURVE SMOOTH",
"354 -14 OFFCURVE",
"421 8 OFFCURVE",
"487 53 CURVE",
"450 115 LINE",
"396 84 OFFCURVE",
"347 70 OFFCURVE",
"295 70 CURVE SMOOTH",
"228 70 OFFCURVE",
"171 103 OFFCURVE",
"147 168 CURVE",
"139 189 OFFCURVE",
"135 213 OFFCURVE",
"135 241 CURVE"
);
},
{
closed = 1;
nodes = (
"366 443 OFFCURVE",
"397 387 OFFCURVE",
"402 312 CURVE",
"140 312 LINE",
"152 393 OFFCURVE",
"192 443 OFFCURVE",
"277 443 CURVE SMOOTH"
);
}
);
width = 546;
}
);
unicode = 0065;
},
{
glyphname = f;
lastChange = "2016-10-12 20:19:07 +0000";
layers = (
{
anchors = (
{
name = top;
position = "{262, 506}";
}
);
layerId = UUID0;
paths = (
{
closed = 1;
nodes = (
"259 577 LINE",
"259 621 OFFCURVE",
"287 644 OFFCURVE",
"322 644 CURVE SMOOTH",
"349 644 OFFCURVE",
"367 637 OFFCURVE",
"382 626 CURVE",
"438 729 LINE",
"420 746 OFFCURVE",
"377 771 OFFCURVE",
"303 771 CURVE SMOOTH",
"203 771 OFFCURVE",
"114 708 OFFCURVE",
"114 590 CURVE SMOOTH",
"114 506 LINE",
"37 506 LINE",
"37 378 LINE",
"114 378 LINE",
"114 134 LINE",
"39 134 LINE",
"39 0 LINE",
"352 0 LINE",
"352 134 LINE",
"259 134 LINE",
"259 378 LINE",
"351 378 LINE",
"351 506 LINE",
"259 506 LINE"
);
}
);
width = 398;
},
{
anchors = (
{
name = top;
position = "{218, 506}";
}
);
layerId = UUID1;
paths = (
{
closed = 1;
nodes = (
"208 588 LINE",
"208 653 OFFCURVE",
"241 687 OFFCURVE",
"295 687 CURVE SMOOTH",
"331 687 OFFCURVE",
"367 678 OFFCURVE",
"388 667 CURVE",
"416 732 LINE",
"390 745 OFFCURVE",
"351 760 OFFCURVE",
"282 760 CURVE SMOOTH",
"183 760 OFFCURVE",
"118 702 OFFCURVE",
"118 585 CURVE SMOOTH",
"118 506 LINE",
"20 506 LINE",
"20 432 LINE",
"118 432 LINE",
"118 84 LINE",
"47 84 LINE",
"47 0 LINE",
"287 0 LINE",
"287 84 LINE",
"208 84 LINE",
"208 432 LINE",
"325 432 LINE",
"325 506 LINE",
"208 506 LINE"
);
}
);
width = 356;
}
);
unicode = 0066;
},
{
glyphname = g;
lastChange = "2016-10-12 20:19:07 +0000";
layers = (
{
layerId = UUID0;
paths = (
{
closed = 1;
nodes = (
"409 24 LINE",
"409 -71 OFFCURVE",
"357 -98 OFFCURVE",
"287 -98 CURVE SMOOTH",
"223 -98 OFFCURVE",
"171 -80 OFFCURVE",
"126 -52 CURVE",
"105 -88 OFFCURVE",
"85 -124 OFFCURVE",
"65 -160 CURVE",
"123 -201 OFFCURVE",
"200 -227 OFFCURVE",
"288 -227 CURVE SMOOTH",
"431 -227 OFFCURVE",
"557 -149 OFFCURVE",
"557 21 CURVE SMOOTH",
"557 518 LINE",
"409 518 LINE",
"409 500 LINE",
"374 516 OFFCURVE",
"335 526 OFFCURVE",
"291 526 CURVE SMOOTH",
"137 526 OFFCURVE",
"30 406 OFFCURVE",
"30 261 CURVE SMOOTH",
"30 110 OFFCURVE",
"143 -3 OFFCURVE",
"299 -3 CURVE SMOOTH",
"336 -3 OFFCURVE",
"373 6 OFFCURVE",
"409 26 CURVE"
);
},
{
closed = 1;
nodes = (
"233 133 OFFCURVE",
"179 182 OFFCURVE",
"179 261 CURVE SMOOTH",
"179 335 OFFCURVE",
"235 389 OFFCURVE",
"302 389 CURVE SMOOTH",
"346 389 OFFCURVE",
"388 364 OFFCURVE",
"409 324 CURVE",
"409 195 LINE",
"388 158 OFFCURVE",
"348 133 OFFCURVE",
"302 133 CURVE SMOOTH"
);
}
);
width = 627;
},
{
layerId = UUID1;
paths = (
{
closed = 1;
nodes = (
"423 37 LINE",
"423 -101 OFFCURVE",
"377 -137 OFFCURVE",
"277 -137 CURVE SMOOTH",
"216 -137 OFFCURVE",
"152 -113 OFFCURVE",
"113 -79 CURVE",
"97 -104 OFFCURVE",
"80 -128 OFFCURVE",
"64 -153 CURVE",
"124 -203 OFFCURVE",
"209 -223 OFFCURVE",
"280 -223 CURVE SMOOTH",
"440 -223 OFFCURVE",
"515 -140 OFFCURVE",
"515 20 CURVE SMOOTH",
"515 506 LINE",
"423 506 LINE",
"423 480 LINE",
"385 508 OFFCURVE",
"345 518 OFFCURVE",
"295 518 CURVE SMOOTH",
"147 518 OFFCURVE",
"49 414 OFFCURVE",
"49 258 CURVE SMOOTH",
"49 86 OFFCURVE",
"153 -11 OFFCURVE",
"290 -11 CURVE SMOOTH",
"346 -11 OFFCURVE",
"390 10 OFFCURVE",
"423 44 CURVE"
);
},
{
closed = 1;
nodes = (
"209 68 OFFCURVE",
"143 134 OFFCURVE",
"143 259 CURVE SMOOTH",
"143 373 OFFCURVE",
"213 438 OFFCURVE",
"299 438 CURVE SMOOTH",
"344 438 OFFCURVE",
"390 426 OFFCURVE",
"423 396 CURVE",
"423 120 LINE",
"401 93 OFFCURVE",
"361 68 OFFCURVE",
"302 68 CURVE SMOOTH"
);
}
);
width = 590;
}
);
unicode = 0067;
},
{
glyphname = h;
lastChange = "2016-10-12 20:19:07 +0000";
layers = (
{
anchors = (
{
name = top;
position = "{370, 506}";
}
);
layerId = UUID0;
paths = (
{
closed = 1;
nodes = (
"25 626 LINE",
"106 626 LINE",
"106 134 LINE",
"33 134 LINE",
"33 0 LINE",
"330 0 LINE",
"330 134 LINE",
"256 134 LINE",
"256 324 LINE",
"292 355 OFFCURVE",
"327 372 OFFCURVE",
"356 372 CURVE SMOOTH",
"400 372 OFFCURVE",
"431 337 OFFCURVE",
"431 281 CURVE SMOOTH",
"431 134 LINE",
"426 134 LINE",
"426 0 LINE",
"657 0 LINE",
"657 134 LINE",
"583 134 LINE",
"583 315 LINE SMOOTH",
"583 445 OFFCURVE",
"508 515 OFFCURVE",
"395 515 CURVE SMOOTH",
"340 515 OFFCURVE",
"294 494 OFFCURVE",
"256 459 CURVE",
"256 760 LINE",
"256 760 LINE",
"256 760 LINE",
"25 760 LINE"
);
}
);
width = 677;
},
{
anchors = (
{
name = top;
position = "{335, 506}";
}
);
layerId = UUID1;
paths = (
{
closed = 1;
nodes = (
"52 676 LINE",
"121 676 LINE",
"121 84 LINE",
"45 84 LINE",
"45 0 LINE",
"285 0 LINE",
"285 84 LINE",
"212 84 LINE",
"212 381 LINE",
"250 411 OFFCURVE",
"294 433 OFFCURVE",
"336 433 CURVE SMOOTH",
"409 433 OFFCURVE",
"450 392 OFFCURVE",
"450 315 CURVE SMOOTH",
"450 84 LINE",
"381 84 LINE",
"381 0 LINE",
"621 0 LINE",
"621 84 LINE",
"545 84 LINE",
"545 326 LINE SMOOTH",
"545 457 OFFCURVE",
"476 515 OFFCURVE",
"368 515 CURVE SMOOTH",
"307 515 OFFCURVE",
"256 487 OFFCURVE",
"212 450 CURVE",
"212 676 LINE",
"213 676 LINE",
"213 760 LINE",
"52 760 LINE"
);
}
);
width = 661;
}
);
unicode = 0068;
},
{
glyphname = i;
lastChange = "2016-10-12 20:19:07 +0000";
layers = (
{
anchors = (
{
name = top;
position = "{203, 506}";
}
);
layerId = UUID0;
paths = (
{
closed = 1;
nodes = (
"29 372 LINE",
"106 372 LINE",
"106 134 LINE",
"30 134 LINE",
"30 0 LINE",
"327 0 LINE",
"327 134 LINE",
"257 134 LINE",
"257 506 LINE",
"254 506 LINE",
"254 506 LINE",
"29 506 LINE"
);
},
{
closed = 1;
nodes = (
"98 621 OFFCURVE",
"136 582 OFFCURVE",
"185 582 CURVE SMOOTH",
"232 582 OFFCURVE",
"271 621 OFFCURVE",
"271 669 CURVE SMOOTH",
"271 717 OFFCURVE",
"232 756 OFFCURVE",
"185 756 CURVE SMOOTH",
"136 756 OFFCURVE",
"98 717 OFFCURVE",
"98 669 CURVE SMOOTH"
);
}
);
width = 352;
},
{
anchors = (
{
name = top;
position = "{165, 506}";
}
);
layerId = UUID1;
paths = (
{
closed = 1;
nodes = (
"44 422 LINE",
"118 422 LINE",
"118 84 LINE",
"46 84 LINE",
"46 0 LINE",
"286 0 LINE",
"286 84 LINE",
"210 84 LINE",
"210 506 LINE",
"206 506 LINE",
"206 506 LINE",
"44 506 LINE"
);
},
{
closed = 1;
nodes = (
"101 650 OFFCURVE",
"130 620 OFFCURVE",
"165 620 CURVE SMOOTH",
"199 620 OFFCURVE",
"228 650 OFFCURVE",
"228 685 CURVE SMOOTH",
"228 719 OFFCURVE",
"199 748 OFFCURVE",
"165 748 CURVE SMOOTH",
"130 748 OFFCURVE",
"101 719 OFFCURVE",
"101 685 CURVE SMOOTH"
);
}
);
width = 321;
}
);
unicode = 0069;
},
{
glyphname = dotlessi;
lastChange = "2016-10-12 20:19:08 +0000";
layers = (
{
anchors = (
{
name = top;
position = "{203, 506}";
}
);
layerId = UUID0;
paths = (
{
closed = 1;
nodes = (
"29 372 LINE",
"106 372 LINE",
"106 134 LINE",
"30 134 LINE",
"30 0 LINE",
"327 0 LINE",
"327 134 LINE",
"257 134 LINE",
"257 506 LINE",
"254 506 LINE",
"254 506 LINE",
"29 506 LINE"
);
}
);
width = 352;
},
{
anchors = (
{
name = top;
position = "{149, 506}";
}
);
layerId = UUID1;
paths = (
{
closed = 1;
nodes = (
"29 422 LINE",
"102 422 LINE",
"102 84 LINE",
"30 84 LINE",
"30 0 LINE",
"270 0 LINE",
"270 84 LINE",
"194 84 LINE",
"194 506 LINE",
"190 506 LINE",
"190 506 LINE",
"29 506 LINE"
);
}
);
width = 299;
}
);
unicode = 0131;
},
{
glyphname = iacute;
lastChange = "2016-10-12 20:19:08 +0000";
layers = (
{
components = (
{
name = acute;
transform = "{1, 0, 0, 1, 133, 0}";
}
);
layerId = UUID0;
paths = (
{
closed = 1;
nodes = (
"29 372 LINE",
"106 372 LINE",
"106 134 LINE",
"30 134 LINE",
"30 0 LINE",
"327 0 LINE",
"327 134 LINE",
"257 134 LINE",
"257 506 LINE",
"254 506 LINE",
"254 506 LINE",
"29 506 LINE"
);
}
);
width = 352;
},
{
components = (
{
name = acute;
transform = "{1, 0, 0, 1, 40, 0}";
}
);
layerId = UUID1;
paths = (
{
closed = 1;
nodes = (
"29 422 LINE",
"102 422 LINE",
"102 84 LINE",
"30 84 LINE",
"30 0 LINE",
"270 0 LINE",
"270 84 LINE",
"194 84 LINE",
"194 506 LINE",
"190 506 LINE",
"190 506 LINE",
"29 506 LINE"
);
}
);
width = 299;
}
);
unicode = 00ED;
},
{
glyphname = icircumflex;
lastChange = "2016-10-12 20:19:08 +0000";
layers = (
{
components = (
{
name = circumflex;
transform = "{1, 0, 0, 1, -13, 0}";
}
);
layerId = UUID0;
paths = (
{
closed = 1;
nodes = (
"29 372 LINE",
"106 372 LINE",
"106 134 LINE",
"30 134 LINE",
"30 0 LINE",
"327 0 LINE",
"327 134 LINE",
"257 134 LINE",
"257 506 LINE",
"254 506 LINE",
"254 506 LINE",
"29 506 LINE"
);
}
);
width = 352;
},
{
components = (
{
name = circumflex;
transform = "{1, 0, 0, 1, -83, 0}";
}
);
layerId = UUID1;
paths = (
{
closed = 1;
nodes = (
"29 422 LINE",
"102 422 LINE",
"102 84 LINE",
"30 84 LINE",
"30 0 LINE",
"270 0 LINE",
"270 84 LINE",
"194 84 LINE",
"194 506 LINE",
"190 506 LINE",
"190 506 LINE",
"29 506 LINE"
);
}
);
width = 299;
}
);
unicode = 00EE;
},
{
glyphname = idieresis;
lastChange = "2016-10-12 20:19:08 +0000";
layers = (
{
components = (
{
name = dotaccent;
transform = "{1, 0, 0, 1, -45, -14}";
},
{
name = dotaccent;
transform = "{1, 0, 0, 1, 189, -14}";
}
);
layerId = UUID0;
paths = (
{
closed = 1;
nodes = (
"29 372 LINE",
"106 372 LINE",
"106 134 LINE",
"30 134 LINE",
"30 0 LINE",
"327 0 LINE",
"327 134 LINE",
"257 134 LINE",
"257 506 LINE",
"254 506 LINE",
"254 506 LINE",
"29 506 LINE"
);
}
);
width = 352;
},
{
components = (
{
name = dotaccent;
transform = "{1, 0, 0, 1, -115, -21}";
},
{
name = dotaccent;
transform = "{1, 0, 0, 1, 109, -21}";
}
);
layerId = UUID1;
paths = (
{
closed = 1;
nodes = (
"29 422 LINE",
"102 422 LINE",
"102 84 LINE",
"30 84 LINE",
"30 0 LINE",
"270 0 LINE",
"270 84 LINE",
"194 84 LINE",
"194 506 LINE",
"190 506 LINE",
"190 506 LINE",
"29 506 LINE"
);
}
);
width = 299;
}
);
unicode = 00EF;
},
{
glyphname = igrave;
lastChange = "2016-10-12 20:19:08 +0000";
layers = (
{
components = (
{
name = grave;
transform = "{1, 0, 0, 1, -62, 0}";
}
);
layerId = UUID0;
paths = (
{
closed = 1;
nodes = (
"29 372 LINE",
"106 372 LINE",
"106 134 LINE",
"30 134 LINE",
"30 0 LINE",
"327 0 LINE",
"327 134 LINE",
"257 134 LINE",
"257 506 LINE",
"254 506 LINE",
"254 506 LINE",
"29 506 LINE"
);
}
);
width = 352;
},
{
components = (
{
name = grave;
transform = "{1, 0, 0, 1, -116, 0}";
}
);
layerId = UUID1;
paths = (
{
closed = 1;
nodes = (
"29 422 LINE",
"102 422 LINE",
"102 84 LINE",
"30 84 LINE",
"30 0 LINE",
"270 0 LINE",
"270 84 LINE",
"194 84 LINE",
"194 506 LINE",
"190 506 LINE",
"190 506 LINE",
"29 506 LINE"
);
}
);
width = 299;
}
);
unicode = 00EC;
},
{
glyphname = j;
lastChange = "2016-10-12 20:19:07 +0000";
layers = (
{
anchors = (
{
name = top;
position = "{143, 506}";
}
);
layerId = UUID0;
paths = (
{
closed = 1;
nodes = (
"25 372 LINE",
"97 372 LINE",
"97 -19 LINE SMOOTH",
"97 -78 OFFCURVE",
"74 -116 OFFCURVE",
"28 -118 CURVE",
"28 -155 OFFCURVE",
"29 -192 OFFCURVE",
"30 -229 CURVE",
"169 -229 OFFCURVE",
"247 -163 OFFCURVE",
"247 -9 CURVE SMOOTH",
"247 372 LINE",
"256 372 LINE",
"256 506 LINE",
"25 506 LINE"
);
},
{
closed = 1;
nodes = (
"89 621 OFFCURVE",
"127 582 OFFCURVE",
"176 582 CURVE SMOOTH",
"223 582 OFFCURVE",
"263 621 OFFCURVE",
"263 669 CURVE SMOOTH",
"263 717 OFFCURVE",
"223 756 OFFCURVE",
"176 756 CURVE SMOOTH",
"127 756 OFFCURVE",
"89 717 OFFCURVE",
"89 669 CURVE SMOOTH"
);
}
);
width = 303;
},
{
anchors = (
{
name = top;
position = "{123, 506}";
}
);
layerId = UUID1;
paths = (
{
closed = 1;
nodes = (
"41 422 LINE",
"113 422 LINE",
"113 -29 LINE SMOOTH",
"113 -105 OFFCURVE",
"88 -154 OFFCURVE",
"30 -162 CURVE",
"33 -185 OFFCURVE",
"36 -208 OFFCURVE",
"39 -230 CURVE",
"144 -227 OFFCURVE",
"205 -155 OFFCURVE",
"205 -39 CURVE SMOOTH",
"205 506 LINE",
"202 506 LINE",
"202 506 LINE",
"41 506 LINE"
);
},
{
closed = 1;
nodes = (
"101 653 OFFCURVE",
"127 626 OFFCURVE",
"159 626 CURVE SMOOTH",
"191 626 OFFCURVE",
"217 653 OFFCURVE",
"217 685 CURVE SMOOTH",
"217 716 OFFCURVE",
"191 742 OFFCURVE",
"159 742 CURVE SMOOTH",
"127 742 OFFCURVE",
"101 716 OFFCURVE",
"101 685 CURVE SMOOTH"
);
}
);
width = 295;
}
);
unicode = 006A;
},
{
glyphname = k;
lastChange = "2016-10-12 20:19:07 +0000";
layers = (
{
anchors = (
{
name = top;
position = "{364, 506}";
}
);
layerId = UUID0;
paths = (
{
closed = 1;
nodes = (
"25 626 LINE",
"119 626 LINE",
"119 134 LINE",
"41 134 LINE",
"41 0 LINE",
"321 0 LINE",
"321 134 LINE",
"269 134 LINE",
"269 217 LINE",
"321 217 LINE",
"375 145 OFFCURVE",
"430 72 OFFCURVE",
"485 0 CURVE",
"622 0 LINE",
"622 147 LINE",
"538 147 LINE",
"506 186 OFFCURVE",
"474 225 OFFCURVE",
"442 263 CURVE",
"473 299 OFFCURVE",
"505 336 OFFCURVE",
"536 372 CURVE",
"627 372 LINE",
"627 506 LINE",
"363 506 LINE",
"363 372 LINE",
"368 372 LINE",
"355 355 OFFCURVE",
"343 338 OFFCURVE",
"330 322 CURVE",
"269 322 LINE",
"269 672 LINE",
"269 672 LINE",
"269 760 LINE",
"25 760 LINE"
);
}
);
width = 657;
},
{
anchors = (
{
name = top;
position = "{298, 506}";
}
);
layerId = UUID1;
paths = (
{
closed = 1;
nodes = (
"45 676 LINE",
"131 676 LINE",
"131 84 LINE",
"48 84 LINE",
"48 0 LINE",
"264 0 LINE",
"264 84 LINE",
"222 84 LINE",
"222 226 LINE",
"289 226 LINE",
"358 151 OFFCURVE",
"427 75 OFFCURVE",
"496 0 CURVE",
"603 0 LINE",
"603 84 LINE",
"542 84 LINE",
"486 144 OFFCURVE",
"430 204 OFFCURVE",
"374 263 CURVE",
"425 316 OFFCURVE",
"477 369 OFFCURVE",
"528 422 CURVE",
"593 422 LINE",
"593 506 LINE",
"400 506 LINE",
"400 422 LINE",
"431 422 LINE",
"391 381 OFFCURVE",
"350 339 OFFCURVE",
"310 298 CURVE",
"222 298 LINE",
"222 676 LINE",
"223 676 LINE",
"223 760 LINE",
"45 760 LINE"
);
}
);
width = 623;
}
);
unicode = 006B;
},
{
glyphname = l;
lastChange = "2016-10-12 20:19:07 +0000";
layers = (
{
anchors = (
{
name = top;
position = "{211, 506}";
}
);
layerId = UUID0;
paths = (
{
closed = 1;
nodes = (
"30 626 LINE",
"107 626 LINE",
"107 134 LINE",
"31 134 LINE",
"31 0 LINE",
"334 0 LINE",
"334 134 LINE",
"257 134 LINE",
"258 626 LINE",
"258 760 LINE",
"30 760 LINE"
);
}
);
width = 360;
},
{
anchors = (
{
name = top;
position = "{165, 506}";
}
);
layerId = UUID1;
paths = (
{
closed = 1;
nodes = (
"45 676 LINE",
"118 676 LINE",
"118 84 LINE",
"45 84 LINE",
"45 0 LINE",
"285 0 LINE",
"285 84 LINE",
"209 84 LINE",
"208 760 LINE",
"208 760 LINE",
"45 760 LINE"
);
}
);
width = 325;
}
);
unicode = 006C;
},
{
glyphname = m;
lastChange = "2016-10-12 20:19:07 +0000";
layers = (
{
anchors = (
{
name = top;
position = "{514, 506}";
}
);
layerId = UUID0;
paths = (
{
closed = 1;
nodes = (
"31 372 LINE",
"105 372 LINE",
"105 134 LINE",
"30 134 LINE",
"30 0 LINE",
"344 0 LINE",
"344 134 LINE",
"263 134 LINE",
"263 330 LINE",
"295 370 OFFCURVE",
"331 382 OFFCURVE",
"364 382 CURVE SMOOTH",
"413 381 OFFCURVE",
"448 345 OFFCURVE",
"448 291 CURVE SMOOTH",
"448 134 LINE",
"448 134 LINE",
"448 0 LINE",
"679 0 LINE",
"679 134 LINE",
"606 134 LINE",
"606 302 LINE SMOOTH",
"606 310 OFFCURVE",
"606 317 OFFCURVE",
"605 324 CURVE",
"638 367 OFFCURVE",
"668 382 OFFCURVE",
"705 382 CURVE SMOOTH",
"758 382 OFFCURVE",
"789 347 OFFCURVE",
"789 290 CURVE SMOOTH",
"789 83 LINE",
"789 83 LINE",
"789 0 LINE",
"1020 0 LINE",
"1020 134 LINE",
"948 134 LINE",
"948 315 LINE SMOOTH",
"948 446 OFFCURVE",
"879 516 OFFCURVE",
"756 516 CURVE SMOOTH",
"686 516 OFFCURVE",
"621 482 OFFCURVE",
"577 434 CURVE",
"545 489 OFFCURVE",
"490 516 OFFCURVE",
"413 516 CURVE SMOOTH",
"358 516 OFFCURVE",
"304 495 OFFCURVE",
"262 461 CURVE",
"262 506 LINE",
"261 506 OFFCURVE",
"260 506 OFFCURVE",
"259 506 CURVE",
"259 506 LINE",
"31 506 LINE"
);
}
);
width = 1024;
},
{
anchors = (
{
name = top;
position = "{503, 506}";
}
);
layerId = UUID1;
paths = (
{
closed = 1;
nodes = (
"45 422 LINE",
"119 422 LINE",
"119 84 LINE",
"46 84 LINE",
"46 0 LINE",
"286 0 LINE",
"286 84 LINE",
"214 84 LINE",
"214 380 LINE",
"252 410 OFFCURVE",
"297 433 OFFCURVE",
"339 433 CURVE SMOOTH",
"412 433 OFFCURVE",
"453 392 OFFCURVE",
"453 315 CURVE SMOOTH",
"453 84 LINE",
"381 84 LINE",
"381 0 LINE",
"621 0 LINE",
"621 84 LINE",
"548 84 LINE",
"548 326 LINE SMOOTH",
"548 344 OFFCURVE",
"546 361 OFFCURVE",
"544 376 CURVE",
"583 408 OFFCURVE",
"630 433 OFFCURVE",
"674 433 CURVE SMOOTH",
"747 433 OFFCURVE",
"788 392 OFFCURVE",
"788 315 CURVE SMOOTH",
"788 84 LINE",
"716 84 LINE",
"716 0 LINE",
"956 0 LINE",
"956 84 LINE",
"883 84 LINE",
"883 326 LINE SMOOTH",
"883 457 OFFCURVE",
"814 515 OFFCURVE",
"706 515 CURVE SMOOTH",
"635 515 OFFCURVE",
"575 477 OFFCURVE",
"526 432 CURVE",
"498 489 OFFCURVE",
"443 515 OFFCURVE",
"371 515 CURVE SMOOTH",
"371 515 OFFCURVE",
"371 515 OFFCURVE",
"371 515 CURVE",
"371 515 LINE",
"308 515 OFFCURVE",
"256 485 OFFCURVE",
"211 447 CURVE",
"211 506 LINE",
"45 506 LINE"
);
}
);
width = 996;
}
);
unicode = 006D;
},
{
glyphname = n;
lastChange = "2016-10-12 20:19:07 +0000";
layers = (
{
anchors = (
{
name = top;
position = "{407, 506}";
}
);
layerId = UUID0;
paths = (
{
closed = 1;
nodes = (
"446 0 LINE",
"677 0 LINE",
"677 134 LINE",
"605 134 LINE",
"605 315 LINE SMOOTH",
"605 445 OFFCURVE",
"536 515 OFFCURVE",
"415 515 CURVE SMOOTH",
"358 515 OFFCURVE",
"304 495 OFFCURVE",
"261 461 CURVE",
"261 506 LINE",
"259 506 LINE",
"259 506 LINE",
"31 506 LINE",
"31 372 LINE",
"104 372 LINE",
"104 134 LINE",
"30 134 LINE",
"30 0 LINE",
"344 0 LINE",
"344 134 LINE",
"262 134 LINE",
"262 329 LINE",
"294 370 OFFCURVE",
"330 382 OFFCURVE",
"364 382 CURVE SMOOTH",
"413 382 OFFCURVE",
"446 347 OFFCURVE",
"446 291 CURVE SMOOTH",
"446 134 LINE",
"446 134 LINE"
);
}
);
width = 681;
},
{
anchors = (
{
name = top;
position = "{334, 506}";
}
);
layerId = UUID1;
paths = (
{
closed = 1;
nodes = (
"380 0 LINE",
"620 0 LINE",
"620 84 LINE",
"548 84 LINE",
"548 326 LINE SMOOTH",
"548 457 OFFCURVE",
"479 515 OFFCURVE",
"371 515 CURVE SMOOTH",
"308 515 OFFCURVE",
"256 485 OFFCURVE",
"211 447 CURVE",
"211 506 LINE",
"211 506 LINE",
"211 506 LINE",
"45 506 LINE",
"45 422 LINE",
"119 422 LINE",
"119 84 LINE",
"46 84 LINE",
"46 0 LINE",
"286 0 LINE",
"286 84 LINE",
"214 84 LINE",
"214 380 LINE",
"252 410 OFFCURVE",
"297 433 OFFCURVE",
"339 433 CURVE SMOOTH",
"412 433 OFFCURVE",
"453 392 OFFCURVE",
"453 315 CURVE SMOOTH",
"453 84 LINE",
"380 84 LINE"
);
}
);
width = 660;
}
);
unicode = 006E;
},
{
glyphname = ntilde;
lastChange = "2016-10-12 20:19:08 +0000";
layers = (
{
components = (
{
name = tilde;
transform = "{1, 0, 0, 1, 181, 0}";
}
);
layerId = UUID0;
paths = (
{
closed = 1;
nodes = (
"430 0 LINE",
"661 0 LINE",
"661 134 LINE",
"605 134 LINE",
"605 315 LINE SMOOTH",
"605 445 OFFCURVE",
"536 515 OFFCURVE",
"415 515 CURVE SMOOTH",
"358 515 OFFCURVE",
"304 495 OFFCURVE",
"261 461 CURVE",
"261 506 LINE",
"259 506 LINE",
"259 506 LINE",
"31 506 LINE",
"31 372 LINE",
"104 372 LINE",
"104 134 LINE",
"30 134 LINE",
"30 0 LINE",
"344 0 LINE",
"344 134 LINE",
"262 134 LINE",
"262 329 LINE",
"294 370 OFFCURVE",
"330 382 OFFCURVE",
"364 382 CURVE SMOOTH",
"413 382 OFFCURVE",
"446 347 OFFCURVE",
"446 291 CURVE SMOOTH",
"446 134 LINE",
"430 134 LINE"
);
}
);
width = 681;
},
{
components = (
{
name = tilde;
transform = "{1, 0, 0, 1, 108, 0}";
}
);
layerId = UUID1;
paths = (
{
closed = 1;
nodes = (
"381 0 LINE",
"621 0 LINE",
"621 84 LINE",
"538 84 LINE",
"538 326 LINE SMOOTH",
"538 457 OFFCURVE",
"469 515 OFFCURVE",
"361 515 CURVE SMOOTH",
"298 515 OFFCURVE",
"246 485 OFFCURVE",
"201 447 CURVE",
"201 506 LINE",
"201 506 LINE",
"201 506 LINE",
"35 506 LINE",
"35 422 LINE",
"109 422 LINE",
"109 84 LINE",
"36 84 LINE",
"36 0 LINE",
"276 0 LINE",
"276 84 LINE",
"204 84 LINE",
"204 380 LINE",
"242 410 OFFCURVE",
"287 433 OFFCURVE",
"329 433 CURVE SMOOTH",
"402 433 OFFCURVE",
"443 392 OFFCURVE",
"443 315 CURVE SMOOTH",
"443 84 LINE",
"381 84 LINE"
);
}
);
width = 651;
}
);
unicode = 00F1;
},
{
glyphname = o;
lastChange = "2016-10-12 20:19:07 +0000";
layers = (
{
anchors = (
{
name = bottom;
position = "{299, -115}";
},
{
name = top;
position = "{298, 506}";
}
);
layerId = UUID0;
paths = (
{
closed = 1;
nodes = (
"35 107 OFFCURVE",
"142 -12 OFFCURVE",
"304 -12 CURVE SMOOTH",
"466 -12 OFFCURVE",
"573 108 OFFCURVE",
"573 255 CURVE SMOOTH",
"573 402 OFFCURVE",
"462 521 OFFCURVE",
"304 521 CURVE SMOOTH",
"147 521 OFFCURVE",
"35 402 OFFCURVE",
"35 255 CURVE SMOOTH"
);
},
{
closed = 1;
nodes = (
"181 336 OFFCURVE",
"237 386 OFFCURVE",
"304 386 CURVE SMOOTH",
"373 386 OFFCURVE",
"426 336 OFFCURVE",
"426 255 CURVE SMOOTH",
"426 177 OFFCURVE",
"373 123 OFFCURVE",
"304 123 CURVE SMOOTH",
"237 123 OFFCURVE",
"181 178 OFFCURVE",
"181 255 CURVE SMOOTH"
);
}
);
width = 608;
},
{
anchors = (
{
name = bottom;
position = "{298, -115}";
},
{
name = top;
position = "{297, 506}";
}
);
layerId = UUID1;
paths = (
{
closed = 1;
nodes = (
"45 94 OFFCURVE",
"145 -15 OFFCURVE",
"297 -15 CURVE SMOOTH",
"451 -15 OFFCURVE",
"550 93 OFFCURVE",
"550 254 CURVE SMOOTH",
"550 414 OFFCURVE",
"447 521 OFFCURVE",
"297 521 CURVE SMOOTH",
"148 521 OFFCURVE",
"45 412 OFFCURVE",
"45 253 CURVE SMOOTH"
);
},
{
closed = 1;
nodes = (
"139 376 OFFCURVE",
"211 443 OFFCURVE",
"297 443 CURVE SMOOTH",
"387 443 OFFCURVE",
"456 376 OFFCURVE",
"456 253 CURVE SMOOTH",
"456 136 OFFCURVE",
"386 64 OFFCURVE",
"297 64 CURVE SMOOTH",
"211 64 OFFCURVE",
"139 137 OFFCURVE",
"139 253 CURVE SMOOTH"
);
}
);
width = 595;
}
);
unicode = 006F;
},
{
glyphname = p;
lastChange = "2016-10-12 20:19:07 +0000";
layers = (
{
anchors = (
{
name = top;
position = "{360, 506}";
}
);
layerId = UUID0;
paths = (
{
closed = 1;
nodes = (
"58 372 LINE",
"113 372 LINE",
"113 -96 LINE",
"30 -96 LINE",
"30 -230 LINE",
"360 -230 LINE",
"360 -96 LINE",
"263 -96 LINE",
"263 15 LINE",
"297 0 OFFCURVE",
"334 -9 OFFCURVE",
"377 -9 CURVE SMOOTH",
"530 -9 OFFCURVE",
"638 110 OFFCURVE",
"638 256 CURVE SMOOTH",
"638 401 OFFCURVE",
"526 521 OFFCURVE",
"377 521 CURVE SMOOTH",
"343 521 OFFCURVE",
"310 512 OFFCURVE",
"279 499 CURVE",
"279 506 LINE",
"263 506 LINE",
"263 507 LINE",
"213 507 OFFCURVE",
"163 507 OFFCURVE",
"113 507 CURVE",
"113 506 LINE",
"58 506 LINE"
);
},
{
closed = 1;
nodes = (
"434 386 OFFCURVE",
"489 337 OFFCURVE",
"489 255 CURVE SMOOTH",
"489 180 OFFCURVE",
"433 126 OFFCURVE",
"366 126 CURVE SMOOTH",
"322 126 OFFCURVE",
"284 149 OFFCURVE",
"263 182 CURVE",
"263 325 LINE",
"288 364 OFFCURVE",
"325 386 OFFCURVE",
"366 386 CURVE SMOOTH"
);
}
);
width = 668;
},
{
anchors = (
{
name = top;
position = "{297, 506}";
}
);
layerId = UUID1;
paths = (
{
closed = 1;
nodes = (
"29 422 LINE",
"99 422 LINE",
"99 -146 LINE",
"30 -146 LINE",
"30 -230 LINE",
"270 -230 LINE",
"270 -146 LINE",
"191 -146 LINE",
"191 18 LINE",
"227 0 OFFCURVE",
"266 -11 OFFCURVE",
"317 -11 CURVE SMOOTH",
"461 -11 OFFCURVE",
"565 100 OFFCURVE",
"565 262 CURVE SMOOTH",
"565 414 OFFCURVE",
"471 518 OFFCURVE",
"339 518 CURVE SMOOTH",
"339 518 OFFCURVE",
"339 518 OFFCURVE",
"339 518 CURVE",
"339 518 LINE",
"339 518 LINE",
"339 518 LINE",
"285 518 OFFCURVE",
"233 497 OFFCURVE",
"190 464 CURVE",
"190 506 LINE",
"29 506 LINE"
);
},
{
closed = 1;
nodes = (
"401 438 OFFCURVE",
"471 373 OFFCURVE",
"471 259 CURVE SMOOTH",
"471 134 OFFCURVE",
"396 68 OFFCURVE",
"312 68 CURVE SMOOTH",
"252 68 OFFCURVE",
"212 89 OFFCURVE",
"191 111 CURVE",
"191 385 LINE",
"223 417 OFFCURVE",
"268 438 OFFCURVE",
"315 438 CURVE SMOOTH"
);
}
);
width = 610;
}
);
unicode = 0070;
},
{
glyphname = thorn;
lastChange = "2016-10-12 20:19:08 +0000";
layers = (
{
layerId = UUID0;
paths = (
{
closed = 1;
nodes = (
"14 636 LINE",
"84 636 LINE",
"84 -96 LINE",
"14 -96 LINE",
"14 -230 LINE",
"344 -230 LINE",
"344 -96 LINE",
"234 -96 LINE",
"234 15 LINE",
"267 0 OFFCURVE",
"304 -8 OFFCURVE",
"345 -8 CURVE SMOOTH",
"497 -8 OFFCURVE",
"606 112 OFFCURVE",
"606 259 CURVE SMOOTH",
"606 405 OFFCURVE",
"495 526 OFFCURVE",
"340 526 CURVE SMOOTH",
"306 526 OFFCURVE",
"269 515 OFFCURVE",
"234 497 CURVE",
"234 636 LINE",
"235 636 LINE",
"235 770 LINE",
"14 770 LINE"
);
},
{
closed = 1;
nodes = (
"402 384 OFFCURVE",
"457 335 OFFCURVE",
"457 258 CURVE SMOOTH",
"457 182 OFFCURVE",
"401 129 OFFCURVE",
"334 129 CURVE SMOOTH",
"291 129 OFFCURVE",
"254 150 OFFCURVE",
"234 181 CURVE",
"234 331 LINE",
"258 364 OFFCURVE",
"294 384 OFFCURVE",
"335 384 CURVE SMOOTH"
);
}
);
width = 585;
},
{
layerId = UUID1;
paths = (
{
closed = 1;
nodes = (
"28 686 LINE",
"97 686 LINE",
"97 -146 LINE",
"27 -146 LINE",
"27 -230 LINE",
"267 -230 LINE",
"267 -146 LINE",
"188 -146 LINE",
"188 32 LINE",
"219 8 OFFCURVE",
"265 -8 OFFCURVE",
"315 -8 CURVE SMOOTH",
"459 -8 OFFCURVE",
"563 100 OFFCURVE",
"563 262 CURVE SMOOTH",
"563 414 OFFCURVE",
"469 518 OFFCURVE",
"337 518 CURVE SMOOTH",
"283 518 OFFCURVE",
"231 497 OFFCURVE",
"188 464 CURVE",
"188 686 LINE",
"189 686 LINE",
"189 770 LINE",
"28 770 LINE"
);
},
{
closed = 1;
nodes = (
"399 438 OFFCURVE",
"469 373 OFFCURVE",
"469 259 CURVE SMOOTH",
"469 134 OFFCURVE",
"394 71 OFFCURVE",
"310 71 CURVE SMOOTH",
"250 71 OFFCURVE",
"209 90 OFFCURVE",
"188 112 CURVE",
"188 384 LINE",
"220 417 OFFCURVE",
"266 438 OFFCURVE",
"313 438 CURVE SMOOTH"
);
}
);
width = 607;
}
);
unicode = 00FE;
},
{
glyphname = q;
lastChange = "2016-10-12 20:19:07 +0000";
layers = (
{
anchors = (
{
name = top;
position = "{320, 506}";
}
);
layerId = UUID0;
paths = (
{
closed = 1;
nodes = (
"296 -230 LINE",
"626 -230 LINE",
"626 -96 LINE",
"551 -96 LINE",
"551 521 LINE",
"401 521 LINE",
"401 499 LINE",
"368 513 OFFCURVE",
"332 521 OFFCURVE",
"291 521 CURVE SMOOTH",
"137 521 OFFCURVE",
"30 402 OFFCURVE",
"30 258 CURVE SMOOTH",
"30 109 OFFCURVE",
"139 -10 OFFCURVE",
"294 -10 CURVE SMOOTH",
"331 -10 OFFCURVE",
"367 1 OFFCURVE",
"401 18 CURVE",
"401 -96 LINE",
"296 -96 LINE"
);
},
{
closed = 1;
nodes = (
"235 126 OFFCURVE",
"179 175 OFFCURVE",
"179 256 CURVE SMOOTH",
"179 335 OFFCURVE",
"235 386 OFFCURVE",
"302 386 CURVE SMOOTH",
"341 386 OFFCURVE",
"378 367 OFFCURVE",
"401 335 CURVE",
"401 178 LINE",
"378 146 OFFCURVE",
"343 126 OFFCURVE",
"303 126 CURVE SMOOTH"
);
}
);
width = 651;
},
{
anchors = (
{
name = top;
position = "{313, 506}";
}
);
layerId = UUID1;
paths = (
{
closed = 1;
nodes = (
"341 -230 LINE",
"581 -230 LINE",
"581 -146 LINE",
"505 -146 LINE",
"505 506 LINE",
"414 506 LINE",
"414 483 LINE",
"377 508 OFFCURVE",
"339 518 OFFCURVE",
"291 518 CURVE SMOOTH",
"143 518 OFFCURVE",
"45 414 OFFCURVE",
"45 258 CURVE SMOOTH",
"45 86 OFFCURVE",
"149 -11 OFFCURVE",
"286 -11 CURVE SMOOTH",
"339 -11 OFFCURVE",
"382 8 OFFCURVE",
"414 39 CURVE",
"414 -146 LINE",
"341 -146 LINE"
);
},
{
closed = 1;
nodes = (
"205 68 OFFCURVE",
"139 134 OFFCURVE",
"139 259 CURVE SMOOTH",
"139 372 OFFCURVE",
"209 438 OFFCURVE",
"295 438 CURVE SMOOTH",
"338 438 OFFCURVE",
"382 427 OFFCURVE",
"414 401 CURVE",
"414 114 LINE",
"392 89 OFFCURVE",
"353 68 OFFCURVE",
"298 68 CURVE SMOOTH"
);
}
);
width = 589;
}
);
unicode = 0071;
},
{
glyphname = r;
lastChange = "2016-10-12 20:19:07 +0000";
layers = (
{
anchors = (
{
name = top;
position = "{268, 506}";
}
);
layerId = UUID0;
paths = (
{
closed = 1;
nodes = (
"498 505 LINE",
"459 505 OFFCURVE",
"411 506 OFFCURVE",
"368 506 CURVE SMOOTH",
"326 506 OFFCURVE",
"289 493 OFFCURVE",
"261 470 CURVE",
"261 506 LINE",
"260 506 LINE",
"260 506 LINE",
"35 506 LINE",
"35 372 LINE",
"111 372 LINE",
"111 134 LINE",
"35 134 LINE",
"35 0 LINE",
"365 0 LINE",
"365 134 LINE",
"262 134 LINE",
"262 314 LINE",
"270 361 OFFCURVE",
"306 374 OFFCURVE",
"361 374 CURVE",
"361 322 LINE",
"498 322 LINE"
);
}
);
width = 523;
},
{
anchors = (
{
name = top;
position = "{197, 506}";
}
);
layerId = UUID1;
paths = (
{
closed = 1;
nodes = (
"397 509 LINE",
"367 510 OFFCURVE",
"338 510 OFFCURVE",
"304 510 CURVE SMOOTH",
"253 510 OFFCURVE",
"218 478 OFFCURVE",
"195 436 CURVE",
"195 506 LINE",
"195 506 LINE",
"195 506 LINE",
"32 506 LINE",
"32 422 LINE",
"103 422 LINE",
"103 84 LINE",
"32 84 LINE",
"32 0 LINE",
"284 0 LINE",
"284 84 LINE",
"198 84 LINE",
"198 328 LINE",
"211 398 OFFCURVE",
"261 430 OFFCURVE",
"304 430 CURVE",
"304 399 LINE",
"397 399 LINE"
);
}
);
width = 428;
}
);
unicode = 0072;
},
{
glyphname = s;
lastChange = "2016-10-12 20:19:07 +0000";
layers = (
{
anchors = (
{
name = top;
position = "{238, 506}";
}
);
layerId = UUID0;
paths = (
{
closed = 1;
nodes = (
"488 351 LINE",
"488 487 LINE",
"403 487 LINE",
"373 510 OFFCURVE",
"328 531 OFFCURVE",
"246 531 CURVE SMOOTH",
"127 531 OFFCURVE",
"30 466 OFFCURVE",
"30 368 CURVE SMOOTH",
"30 299 OFFCURVE",
"72 250 OFFCURVE",
"154 223 CURVE SMOOTH",
"220 202 OFFCURVE",
"346 197 OFFCURVE",
"346 149 CURVE SMOOTH",
"346 125 OFFCURVE",
"321 108 OFFCURVE",
"262 108 CURVE SMOOTH",
"210 108 OFFCURVE",
"165 129 OFFCURVE",
"165 168 CURVE",
"27 168 LINE",
"27 32 LINE",
"115 32 LINE",
"146 6 OFFCURVE",
"189 -12 OFFCURVE",
"262 -12 CURVE SMOOTH",
"374 -12 OFFCURVE",
"493 46 OFFCURVE",
"493 162 CURVE SMOOTH",
"493 224 OFFCURVE",
"463 272 OFFCURVE",
"376 301 CURVE SMOOTH",
"334 314 OFFCURVE",
"276 324 OFFCURVE",
"225 334 CURVE SMOOTH",
"189 341 OFFCURVE",
"181 356 OFFCURVE",
"181 371 CURVE SMOOTH",
"181 403 OFFCURVE",
"221 410 OFFCURVE",
"248 410 CURVE SMOOTH",
"320 410 OFFCURVE",
"362 383 OFFCURVE",
"362 351 CURVE"
);
}
);
width = 538;
},
{
anchors = (
{
name = top;
position = "{240, 506}";
}
);
layerId = UUID1;
paths = (
{
closed = 1;
nodes = (
"441 370 LINE",
"441 454 LINE",
"393 454 LINE",
"368 490 OFFCURVE",
"316 518 OFFCURVE",
"237 518 CURVE SMOOTH",
"125 518 OFFCURVE",
"60 456 OFFCURVE",
"60 372 CURVE SMOOTH",
"60 309 OFFCURVE",
"101 262 OFFCURVE",
"175 235 CURVE SMOOTH",
"257 205 OFFCURVE",
"343 192 OFFCURVE",
"343 129 CURVE SMOOTH",
"343 84 OFFCURVE",
"298 57 OFFCURVE",
"246 57 CURVE SMOOTH",
"194 57 OFFCURVE",
"141 78 OFFCURVE",
"141 138 CURVE",
"40 138 LINE",
"40 54 LINE",
"91 54 LINE",
"117 13 OFFCURVE",
"166 -14 OFFCURVE",
"244 -14 CURVE SMOOTH",
"359 -14 OFFCURVE",
"432 46 OFFCURVE",
"432 136 CURVE SMOOTH",
"432 203 OFFCURVE",
"395 252 OFFCURVE",
"312 280 CURVE SMOOTH",
"280 292 OFFCURVE",
"247 303 OFFCURVE",
"215 314 CURVE SMOOTH",
"167 331 OFFCURVE",
"148 348 OFFCURVE",
"148 382 CURVE SMOOTH",
"148 422 OFFCURVE",
"184 447 OFFCURVE",
"237 447 CURVE SMOOTH",
"284 447 OFFCURVE",
"341 425 OFFCURVE",
"341 370 CURVE"
);
}
);
width = 485;
}
);
unicode = 0073;
},
{
glyphname = germandbls;
lastChange = "2016-10-12 20:19:08 +0000";
layers = (
{
layerId = UUID0;
paths = (
{
closed = 1;
nodes = (
"367 339 LINE SMOOTH",
"425 339 OFFCURVE",
"470 293 OFFCURVE",
"470 236 CURVE SMOOTH",
"470 175 OFFCURVE",
"425 130 OFFCURVE",
"366 130 CURVE SMOOTH",
"356 130 OFFCURVE",
"349 130 OFFCURVE",
"339 132 CURVE",
"336 87 OFFCURVE",
"334 42 OFFCURVE",
"332 -3 CURVE",
"345 -5 OFFCURVE",
"355 -6 OFFCURVE",
"368 -6 CURVE SMOOTH",
"516 -6 OFFCURVE",
"629 75 OFFCURVE",
"629 241 CURVE SMOOTH",
"629 327 OFFCURVE",
"588 397 OFFCURVE",
"521 438 CURVE",
"549 464 OFFCURVE",
"573 506 OFFCURVE",
"573 571 CURVE SMOOTH",
"573 680 OFFCURVE",
"485 771 OFFCURVE",
"345 771 CURVE SMOOTH",
"201 771 OFFCURVE",
"119 669 OFFCURVE",
"119 577 CURVE SMOOTH",
"119 134 LINE",
"18 134 LINE",
"18 0 LINE",
"249 0 LINE",
"249 1 LINE",
"267 1 LINE",
"267 550 LINE SMOOTH",
"267 603 OFFCURVE",
"299 637 OFFCURVE",
"345 637 CURVE SMOOTH",
"399 637 OFFCURVE",
"431 602 OFFCURVE",
"431 551 CURVE SMOOTH",
"431 522 OFFCURVE",
"408 480 OFFCURVE",
"373 478 CURVE SMOOTH",
"372 478 OFFCURVE",
"370 478 OFFCURVE",
"368 478 CURVE SMOOTH",
"333 478 LINE",
"333 432 OFFCURVE",
"333 385 OFFCURVE",
"334 339 CURVE"
);
}
);
width = 661;
},
{
layerId = UUID1;
paths = (
{
closed = 1;
nodes = (
"326 390 LINE SMOOTH",
"407 390 OFFCURVE",
"478 322 OFFCURVE",
"478 237 CURVE SMOOTH",
"478 152 OFFCURVE",
"410 83 OFFCURVE",
"325 83 CURVE SMOOTH",
"312 83 OFFCURVE",
"300 85 OFFCURVE",
"287 88 CURVE",
"287 57 OFFCURVE",
"287 27 OFFCURVE",
"287 -4 CURVE",
"300 -6 OFFCURVE",
"312 -7 OFFCURVE",
"325 -7 CURVE SMOOTH",
"460 -7 OFFCURVE",
"569 92 OFFCURVE",
"569 237 CURVE SMOOTH",
"569 325 OFFCURVE",
"526 399 OFFCURVE",
"460 441 CURVE",
"487 467 OFFCURVE",
"512 508 OFFCURVE",
"512 568 CURVE SMOOTH",
"512 677 OFFCURVE",
"419 770 OFFCURVE",
"298 770 CURVE SMOOTH",
"171 770 OFFCURVE",
"98 668 OFFCURVE",
"98 576 CURVE SMOOTH",
"98 84 LINE",
"8 84 LINE",
"8 0 LINE",
"132 0 LINE",
"132 0 LINE",
"194 0 LINE",
"194 565 LINE SMOOTH",
"194 632 OFFCURVE",
"234 679 OFFCURVE",
"297 679 CURVE SMOOTH",
"368 679 OFFCURVE",
"415 631 OFFCURVE",
"415 566 CURVE SMOOTH",
"415 527 OFFCURVE",
"382 486 OFFCURVE",
"340 480 CURVE SMOOTH",
"335 480 OFFCURVE",
"330 481 OFFCURVE",
"325 481 CURVE SMOOTH",
"287 481 LINE",
"287 451 OFFCURVE",
"287 420 OFFCURVE",
"287 390 CURVE"
);
}
);
width = 609;
}
);
unicode = 00DF;
},
{
glyphname = t;
lastChange = "2016-10-12 20:19:07 +0000";
layers = (
{
layerId = UUID0;
paths = (
{
closed = 1;
nodes = (
"231 699 LINE",
"79 627 LINE",
"78 506 LINE",
"5 506 LINE",
"5 378 LINE",
"78 378 LINE",
"76 154 LINE SMOOTH",
"75 43 OFFCURVE",
"146 -12 OFFCURVE",
"225 -12 CURVE SMOOTH",
"281 -12 OFFCURVE",
"320 1 OFFCURVE",
"353 22 CURVE",
"332 116 LINE",
"313 110 OFFCURVE",
"296 104 OFFCURVE",
"271 104 CURVE SMOOTH",
"244 104 OFFCURVE",
"228 115 OFFCURVE",
"228 164 CURVE SMOOTH",
"229 378 LINE",
"331 378 LINE",
"331 506 LINE",
"230 506 LINE"
);
}
);
width = 363;
},
{
layerId = UUID1;
paths = (
{
closed = 1;
nodes = (
"196 669 LINE",
"107 627 LINE",
"106 506 LINE",
"25 506 LINE",
"25 432 LINE",
"105 432 LINE",
"104 154 LINE SMOOTH",
"104 26 OFFCURVE",
"149 -12 OFFCURVE",
"237 -12 CURVE SMOOTH",
"283 -12 OFFCURVE",
"316 -2 OFFCURVE",
"347 14 CURVE",
"326 75 LINE",
"302 66 OFFCURVE",
"277 59 OFFCURVE",
"256 59 CURVE SMOOTH",
"218 59 OFFCURVE",
"193 74 OFFCURVE",
"193 140 CURVE SMOOTH",
"194 432 LINE",
"314 432 LINE",
"314 506 LINE",
"195 506 LINE"
);
}
);
width = 372;
}
);
unicode = 0074;
},
{
glyphname = u;
lastChange = "2016-10-12 20:19:07 +0000";
layers = (
{
anchors = (
{
name = top;
position = "{313, 506}";
}
);
layerId = UUID0;
paths = (
{
closed = 1;
nodes = (
"339 372 LINE",
"420 372 LINE",
"420 174 LINE",
"406 133 OFFCURVE",
"371 107 OFFCURVE",
"332 107 CURVE SMOOTH",
"277 107 OFFCURVE",
"239 140 OFFCURVE",
"239 208 CURVE SMOOTH",
"239 506 LINE",
"236 506 LINE",
"15 506 LINE",
"15 372 LINE",
"81 372 LINE",
"81 208 LINE SMOOTH",
"81 64 OFFCURVE",
"172 -6 OFFCURVE",
"284 -6 CURVE SMOOTH",
"344 -6 OFFCURVE",
"391 12 OFFCURVE",
"425 43 CURVE",
"425 0 LINE",
"639 0 LINE",
"639 134 LINE",
"578 134 LINE",
"578 506 LINE",
"560 506 LINE",
"339 506 LINE"
);
}
);
width = 659;
},
{
anchors = (
{
name = top;
position = "{281, 506}";
}
);
layerId = UUID1;
paths = (
{
closed = 1;
nodes = (
"333 422 LINE",
"402 422 LINE",
"402 114 LINE",
"364 88 OFFCURVE",
"317 73 OFFCURVE",
"277 73 CURVE SMOOTH",
"210 73 OFFCURVE",
"173 114 OFFCURVE",
"173 191 CURVE SMOOTH",
"173 506 LINE",
"171 506 LINE",
"10 506 LINE",
"10 422 LINE",
"78 422 LINE",
"78 180 LINE SMOOTH",
"78 49 OFFCURVE",
"143 -9 OFFCURVE",
"245 -9 CURVE SMOOTH",
"306 -9 OFFCURVE",
"361 12 OFFCURVE",
"406 47 CURVE",
"406 0 LINE",
"553 0 LINE",
"553 84 LINE",
"497 84 LINE",
"497 506 LINE",
"495 506 LINE",
"333 506 LINE"
);
}
);
width = 585;
}
);
unicode = 0075;
},
{
glyphname = uacute;
lastChange = "2016-10-12 20:19:08 +0000";
layers = (
{
components = (
{
name = acute;
transform = "{1, 0, 0, 1, 243, 0}";
}
);
layerId = UUID0;
paths = (
{
closed = 1;
nodes = (
"339 372 LINE",
"420 372 LINE",
"420 174 LINE",
"406 133 OFFCURVE",
"371 107 OFFCURVE",
"332 107 CURVE SMOOTH",
"277 107 OFFCURVE",
"239 140 OFFCURVE",
"239 208 CURVE SMOOTH",
"239 506 LINE",
"236 506 LINE",
"15 506 LINE",
"15 372 LINE",
"81 372 LINE",
"81 208 LINE SMOOTH",
"81 64 OFFCURVE",
"172 -6 OFFCURVE",
"284 -6 CURVE SMOOTH",
"344 -6 OFFCURVE",
"391 12 OFFCURVE",
"425 43 CURVE",
"425 0 LINE",
"639 0 LINE",
"639 134 LINE",
"578 134 LINE",
"578 506 LINE",
"560 506 LINE",
"339 506 LINE"
);
}
);
width = 659;
},
{
components = (
{
name = acute;
transform = "{1, 0, 0, 1, 172, 0}";
}
);
layerId = UUID1;
paths = (
{
closed = 1;
nodes = (
"333 422 LINE",
"402 422 LINE",
"402 114 LINE",
"364 88 OFFCURVE",
"317 73 OFFCURVE",
"277 73 CURVE SMOOTH",
"210 73 OFFCURVE",
"173 114 OFFCURVE",
"173 191 CURVE SMOOTH",
"173 506 LINE",
"171 506 LINE",
"10 506 LINE",
"10 422 LINE",
"78 422 LINE",
"78 180 LINE SMOOTH",
"78 49 OFFCURVE",
"143 -9 OFFCURVE",
"245 -9 CURVE SMOOTH",
"306 -9 OFFCURVE",
"361 12 OFFCURVE",
"406 47 CURVE",
"406 0 LINE",
"553 0 LINE",
"553 84 LINE",
"497 84 LINE",
"497 506 LINE",
"495 506 LINE",
"333 506 LINE"
);
}
);
width = 585;
}
);
unicode = 00FA;
},
{
glyphname = ucircumflex;
lastChange = "2016-10-12 20:19:08 +0000";
layers = (
{
components = (
{
name = circumflex;
transform = "{1, 0, 0, 1, 97, 0}";
}
);
layerId = UUID0;
paths = (
{
closed = 1;
nodes = (
"339 372 LINE",
"420 372 LINE",
"420 174 LINE",
"406 133 OFFCURVE",
"371 107 OFFCURVE",
"332 107 CURVE SMOOTH",
"277 107 OFFCURVE",
"239 140 OFFCURVE",
"239 208 CURVE SMOOTH",
"239 506 LINE",
"236 506 LINE",
"15 506 LINE",
"15 372 LINE",
"81 372 LINE",
"81 208 LINE SMOOTH",
"81 64 OFFCURVE",
"172 -6 OFFCURVE",
"284 -6 CURVE SMOOTH",
"344 -6 OFFCURVE",
"391 12 OFFCURVE",
"425 43 CURVE",
"425 0 LINE",
"639 0 LINE",
"639 134 LINE",
"578 134 LINE",
"578 506 LINE",
"560 506 LINE",
"339 506 LINE"
);
}
);
width = 659;
},
{
components = (
{
name = circumflex;
transform = "{1, 0, 0, 1, 49, 0}";
}
);
layerId = UUID1;
paths = (
{
closed = 1;
nodes = (
"333 422 LINE",
"402 422 LINE",
"402 114 LINE",
"364 88 OFFCURVE",
"317 73 OFFCURVE",
"277 73 CURVE SMOOTH",
"210 73 OFFCURVE",
"173 114 OFFCURVE",
"173 191 CURVE SMOOTH",
"173 506 LINE",
"171 506 LINE",
"10 506 LINE",
"10 422 LINE",
"78 422 LINE",
"78 180 LINE SMOOTH",
"78 49 OFFCURVE",
"143 -9 OFFCURVE",
"245 -9 CURVE SMOOTH",
"306 -9 OFFCURVE",
"361 12 OFFCURVE",
"406 47 CURVE",
"406 0 LINE",
"553 0 LINE",
"553 84 LINE",
"497 84 LINE",
"497 506 LINE",
"495 506 LINE",
"333 506 LINE"
);
}
);
width = 585;
}
);
unicode = 00FB;
},
{
color = (31,255,0,1);
glyphname = udieresis;
lastChange = "2016-10-12 20:19:08 +0000";
layers = (
{
components = (
{
name = dotaccent;
transform = "{1, 0, 0, 1, 65, -14}";
},
{
name = dotaccent;
transform = "{1, 0, 0, 1, 299, -14}";
}
);
layerId = UUID0;
paths = (
{
closed = 1;
nodes = (
"339 372 LINE",
"420 372 LINE",
"420 174 LINE",
"406 133 OFFCURVE",
"371 107 OFFCURVE",
"332 107 CURVE SMOOTH",
"277 107 OFFCURVE",
"239 140 OFFCURVE",
"239 208 CURVE SMOOTH",
"239 506 LINE",
"236 506 LINE",
"15 506 LINE",
"15 372 LINE",
"81 372 LINE",
"81 208 LINE SMOOTH",
"81 64 OFFCURVE",
"172 -6 OFFCURVE",
"284 -6 CURVE SMOOTH",
"344 -6 OFFCURVE",
"391 12 OFFCURVE",
"425 43 CURVE",
"425 0 LINE",
"639 0 LINE",
"639 134 LINE",
"578 134 LINE",
"578 506 LINE",
"560 506 LINE",
"339 506 LINE"
);
}
);
width = 659;
},
{
components = (
{
name = dotaccent;
transform = "{1, 0, 0, 1, 17, -21}";
},
{
name = dotaccent;
transform = "{1, 0, 0, 1, 241, -21}";
}
);
layerId = UUID1;
paths = (
{
closed = 1;
nodes = (
"333 422 LINE",
"402 422 LINE",
"402 114 LINE",
"364 88 OFFCURVE",
"317 73 OFFCURVE",
"277 73 CURVE SMOOTH",
"210 73 OFFCURVE",
"173 114 OFFCURVE",
"173 191 CURVE SMOOTH",
"173 506 LINE",
"171 506 LINE",
"10 506 LINE",
"10 422 LINE",
"78 422 LINE",
"78 180 LINE SMOOTH",
"78 49 OFFCURVE",
"143 -9 OFFCURVE",
"245 -9 CURVE SMOOTH",
"306 -9 OFFCURVE",
"361 12 OFFCURVE",
"406 47 CURVE",
"406 0 LINE",
"553 0 LINE",
"553 84 LINE",
"497 84 LINE",
"497 506 LINE",
"495 506 LINE",
"333 506 LINE"
);
}
);
width = 585;
}
);
unicode = 00FC;
},
{
glyphname = ugrave;
lastChange = "2016-10-12 20:19:08 +0000";
layers = (
{
components = (
{
name = grave;
transform = "{1, 0, 0, 1, 48, 0}";
}
);
layerId = UUID0;
paths = (
{
closed = 1;
nodes = (
"339 372 LINE",
"420 372 LINE",
"420 174 LINE",
"406 133 OFFCURVE",
"371 107 OFFCURVE",
"332 107 CURVE SMOOTH",
"277 107 OFFCURVE",
"239 140 OFFCURVE",
"239 208 CURVE SMOOTH",
"239 506 LINE",
"236 506 LINE",
"15 506 LINE",
"15 372 LINE",
"81 372 LINE",
"81 208 LINE SMOOTH",
"81 64 OFFCURVE",
"172 -6 OFFCURVE",
"284 -6 CURVE SMOOTH",
"344 -6 OFFCURVE",
"391 12 OFFCURVE",
"425 43 CURVE",
"425 0 LINE",
"639 0 LINE",
"639 134 LINE",
"578 134 LINE",
"578 506 LINE",
"560 506 LINE",
"339 506 LINE"
);
}
);
width = 659;
},
{
components = (
{
name = grave;
transform = "{1, 0, 0, 1, 16, 0}";
}
);
layerId = UUID1;
paths = (
{
closed = 1;
nodes = (
"333 422 LINE",
"402 422 LINE",
"402 114 LINE",
"364 88 OFFCURVE",
"317 73 OFFCURVE",
"277 73 CURVE SMOOTH",
"210 73 OFFCURVE",
"173 114 OFFCURVE",
"173 191 CURVE SMOOTH",
"173 506 LINE",
"171 506 LINE",
"10 506 LINE",
"10 422 LINE",
"78 422 LINE",
"78 180 LINE SMOOTH",
"78 49 OFFCURVE",
"143 -9 OFFCURVE",
"245 -9 CURVE SMOOTH",
"306 -9 OFFCURVE",
"361 12 OFFCURVE",
"406 47 CURVE",
"406 0 LINE",
"553 0 LINE",
"553 84 LINE",
"497 84 LINE",
"497 506 LINE",
"495 506 LINE",
"333 506 LINE"
);
}
);
width = 585;
}
);
unicode = 00F9;
},
{
glyphname = v;
lastChange = "2016-10-12 20:19:08 +0000";
layers = (
{
anchors = (
{
name = top;
position = "{292, 506}";
}
);
layerId = UUID0;
paths = (
{
closed = 1;
nodes = (
"20 372 LINE",
"76 372 LINE",
"227 -2 LINE",
"376 -2 LINE",
"527 372 LINE",
"594 372 LINE",
"594 506 LINE",
"330 506 LINE",
"330 372 LINE",
"385 372 LINE",
"305 155 LINE",
"222 372 LINE",
"284 372 LINE",
"284 506 LINE",
"20 506 LINE"
);
}
);
width = 614;
},
{
anchors = (
{
name = top;
position = "{261, 506}";
}
);
layerId = UUID1;
paths = (
{
closed = 1;
nodes = (
"19 422 LINE",
"59 422 LINE",
"214 -8 LINE",
"305 -8 LINE",
"460 422 LINE",
"504 422 LINE",
"504 506 LINE",
"343 506 LINE",
"343 422 LINE",
"374 422 LINE",
"260 73 LINE",
"146 422 LINE",
"180 422 LINE",
"180 506 LINE",
"19 506 LINE"
);
}
);
width = 521;
}
);
unicode = 0076;
},
{
glyphname = w;
lastChange = "2016-10-12 20:19:08 +0000";
layers = (
{
anchors = (
{
name = top;
position = "{417, 506}";
}
);
layerId = UUID0;
paths = (
{
closed = 1;
nodes = (
"20 372 LINE",
"77 372 LINE",
"202 -2 LINE",
"344 -2 LINE",
"452 321 LINE",
"454 321 LINE",
"558 -2 LINE",
"704 -2 LINE",
"839 372 LINE",
"907 372 LINE",
"907 506 LINE",
"643 506 LINE",
"643 372 LINE",
"697 372 LINE",
"633 176 LINE",
"528 506 LINE",
"385 506 LINE",
"281 192 LINE",
"227 372 LINE",
"284 372 LINE",
"284 506 LINE",
"20 506 LINE"
);
}
);
width = 927;
},
{
anchors = (
{
name = top;
position = "{372, 506}";
}
);
layerId = UUID1;
paths = (
{
closed = 1;
nodes = (
"-8 422 LINE",
"35 422 LINE",
"173 -8 LINE",
"258 -8 LINE",
"372 396 LINE",
"375 396 LINE",
"487 -8 LINE",
"571 -8 LINE",
"710 422 LINE",
"754 422 LINE",
"754 506 LINE",
"593 506 LINE",
"593 422 LINE",
"623 422 LINE",
"530 100 LINE",
"414 506 LINE",
"338 506 LINE",
"217 99 LINE",
"129 422 LINE",
"153 422 LINE",
"153 506 LINE",
"-8 506 LINE"
);
}
);
width = 736;
}
);
unicode = 0077;
},
{
glyphname = x;
lastChange = "2016-10-12 20:19:08 +0000";
layers = (
{
anchors = (
{
name = top;
position = "{306, 506}";
}
);
layerId = UUID0;
paths = (
{
closed = 1;
nodes = (
"335 0 LINE",
"573 0 LINE",
"573 134 LINE",
"523 134 LINE",
"482 175 OFFCURVE",
"440 215 OFFCURVE",
"399 256 CURVE",
"438 295 OFFCURVE",
"477 333 OFFCURVE",
"516 372 CURVE",
"572 372 LINE",
"572 506 LINE",
"334 506 LINE",
"334 372 LINE",
"361 372 LINE",
"342 354 OFFCURVE",
"323 337 OFFCURVE",
"304 320 CURVE",
"284 330 OFFCURVE",
"263 356 OFFCURVE",
"245 372 CURVE",
"268 372 LINE",
"268 506 LINE",
"30 506 LINE",
"30 372 LINE",
"89 372 LINE",
"128 333 OFFCURVE",
"167 295 OFFCURVE",
"206 257 CURVE",
"164 216 OFFCURVE",
"122 175 OFFCURVE",
"80 134 CURVE",
"30 134 LINE",
"30 0 LINE",
"268 0 LINE",
"268 134 LINE",
"235 134 LINE",
"257 154 OFFCURVE",
"279 174 OFFCURVE",
"301 194 CURVE",
"321 173 OFFCURVE",
"343 153 OFFCURVE",
"364 134 CURVE",
"335 134 LINE"
);
}
);
width = 603;
},
{
anchors = (
{
name = top;
position = "{264, 506}";
}
);
layerId = UUID1;
paths = (
{
closed = 1;
nodes = (
"334 0 LINE",
"502 0 LINE",
"502 84 LINE",
"465 84 LINE",
"414 142 OFFCURVE",
"364 199 OFFCURVE",
"313 257 CURVE",
"361 312 OFFCURVE",
"409 367 OFFCURVE",
"457 422 CURVE",
"500 422 LINE",
"500 506 LINE",
"332 506 LINE",
"332 422 LINE",
"357 422 LINE",
"325 382 OFFCURVE",
"294 342 OFFCURVE",
"262 302 CURVE",
"230 341 OFFCURVE",
"200 382 OFFCURVE",
"168 422 CURVE",
"188 422 LINE",
"188 506 LINE",
"20 506 LINE",
"20 422 LINE",
"70 422 LINE",
"119 369 OFFCURVE",
"167 316 OFFCURVE",
"216 263 CURVE",
"165 203 OFFCURVE",
"113 144 OFFCURVE",
"62 84 CURVE",
"21 84 LINE",
"21 0 LINE",
"189 0 LINE",
"189 84 LINE",
"164 84 LINE",
"197 125 OFFCURVE",
"229 167 OFFCURVE",
"262 209 CURVE",
"293 166 OFFCURVE",
"329 125 OFFCURVE",
"362 84 CURVE",
"334 84 LINE"
);
}
);
width = 530;
}
);
unicode = 0078;
},
{
glyphname = y;
lastChange = "2016-10-12 20:19:08 +0000";
layers = (
{
anchors = (
{
name = top;
position = "{302, 506}";
}
);
layerId = UUID0;
paths = (
{
closed = 1;
nodes = (
"25 372 LINE",
"76 372 LINE",
"234 0 LINE",
"196 -96 LINE",
"108 -96 LINE",
"108 -230 LINE",
"422 -230 LINE",
"422 -96 LINE",
"334 -96 LINE",
"531 372 LINE",
"586 372 LINE",
"586 506 LINE",
"338 506 LINE",
"338 372 LINE",
"381 372 LINE",
"307 182 LINE",
"234 372 LINE",
"273 372 LINE",
"273 506 LINE",
"25 506 LINE"
);
}
);
width = 606;
},
{
anchors = (
{
name = top;
position = "{271, 506}";
}
);
layerId = UUID1;
paths = (
{
closed = 1;
nodes = (
"16 422 LINE",
"56 422 LINE",
"225 -7 LINE",
"171 -146 LINE",
"109 -146 LINE",
"109 -230 LINE",
"314 -230 LINE",
"314 -146 LINE",
"245 -146 LINE",
"470 422 LINE",
"523 422 LINE",
"523 506 LINE",
"331 506 LINE",
"331 422 LINE",
"390 422 LINE",
"266 99 LINE",
"147 422 LINE",
"208 422 LINE",
"208 506 LINE",
"16 506 LINE"
);
}
);
width = 574;
}
);
unicode = 0079;
},
{
glyphname = yacute;
lastChange = "2016-10-12 20:19:08 +0000";
layers = (
{
components = (
{
name = acute;
transform = "{1, 0, 0, 1, 232, 0}";
}
);
layerId = UUID0;
paths = (
{
closed = 1;
nodes = (
"25 372 LINE",
"76 372 LINE",
"234 0 LINE",
"196 -96 LINE",
"108 -96 LINE",
"108 -230 LINE",
"422 -230 LINE",
"422 -96 LINE",
"334 -96 LINE",
"531 372 LINE",
"586 372 LINE",
"586 506 LINE",
"338 506 LINE",
"338 372 LINE",
"381 372 LINE",
"307 182 LINE",
"234 372 LINE",
"273 372 LINE",
"273 506 LINE",
"25 506 LINE"
);
}
);
width = 606;
},
{
components = (
{
name = acute;
transform = "{1, 0, 0, 1, 162, 0}";
}
);
layerId = UUID1;
paths = (
{
closed = 1;
nodes = (
"16 422 LINE",
"56 422 LINE",
"225 -7 LINE",
"171 -146 LINE",
"109 -146 LINE",
"109 -230 LINE",
"314 -230 LINE",
"314 -146 LINE",
"245 -146 LINE",
"470 422 LINE",
"523 422 LINE",
"523 506 LINE",
"331 506 LINE",
"331 422 LINE",
"390 422 LINE",
"266 99 LINE",
"147 422 LINE",
"208 422 LINE",
"208 506 LINE",
"16 506 LINE"
);
}
);
width = 574;
}
);
unicode = 00FD;
},
{
glyphname = ydieresis;
lastChange = "2016-10-12 20:19:08 +0000";
layers = (
{
components = (
{
name = dotaccent;
transform = "{1, 0, 0, 1, 54, -14}";
},
{
name = dotaccent;
transform = "{1, 0, 0, 1, 288, -14}";
}
);
layerId = UUID0;
paths = (
{
closed = 1;
nodes = (
"25 372 LINE",
"76 372 LINE",
"234 0 LINE",
"196 -96 LINE",
"108 -96 LINE",
"108 -230 LINE",
"422 -230 LINE",
"422 -96 LINE",
"334 -96 LINE",
"531 372 LINE",
"586 372 LINE",
"586 506 LINE",
"338 506 LINE",
"338 372 LINE",
"381 372 LINE",
"307 182 LINE",
"234 372 LINE",
"273 372 LINE",
"273 506 LINE",
"25 506 LINE"
);
}
);
width = 606;
},
{
components = (
{
name = dotaccent;
transform = "{1, 0, 0, 1, 7, -21}";
},
{
name = dotaccent;
transform = "{1, 0, 0, 1, 231, -21}";
}
);
layerId = UUID1;
paths = (
{
closed = 1;
nodes = (
"16 422 LINE",
"56 422 LINE",
"225 -7 LINE",
"171 -146 LINE",
"109 -146 LINE",
"109 -230 LINE",
"314 -230 LINE",
"314 -146 LINE",
"245 -146 LINE",
"470 422 LINE",
"523 422 LINE",
"523 506 LINE",
"331 506 LINE",
"331 422 LINE",
"390 422 LINE",
"266 99 LINE",
"147 422 LINE",
"208 422 LINE",
"208 506 LINE",
"16 506 LINE"
);
}
);
width = 574;
}
);
unicode = 00FF;
},
{
glyphname = z;
lastChange = "2016-10-12 20:19:08 +0000";
layers = (
{
anchors = (
{
name = top;
position = "{250, 506}";
}
);
layerId = UUID0;
paths = (
{
closed = 1;
nodes = (
"46 0 LINE",
"493 0 LINE",
"493 228 LINE",
"365 228 LINE",
"365 131 LINE",
"253 131 LINE",
"473 418 LINE",
"473 506 LINE",
"30 506 LINE",
"30 300 LINE",
"157 300 LINE",
"157 376 LINE",
"255 376 LINE",
"46 80 LINE"
);
}
);
width = 528;
},
{
anchors = (
{
name = top;
position = "{224, 506}";
}
);
layerId = UUID1;
paths = (
{
closed = 1;
nodes = (
"37 0 LINE",
"415 0 LINE",
"415 162 LINE",
"321 162 LINE",
"321 76 LINE",
"148 76 LINE",
"404 448 LINE",
"404 506 LINE",
"42 506 LINE",
"42 359 LINE",
"132 359 LINE",
"132 430 LINE",
"293 430 LINE",
"37 56 LINE"
);
}
);
width = 451;
}
);
unicode = 007A;
},
{
glyphname = ordfeminine;
lastChange = "2016-10-12 20:19:08 +0000";
layers = (
{
anchors = (
{
name = top;
position = "{254, 506}";
}
);
layerId = UUID0;
paths = (
{
closed = 1;
nodes = (
"279 410 LINE",
"432 410 LINE",
"432 509 LINE",
"386 509 LINE",
"386 643 LINE SMOOTH",
"386 737 OFFCURVE",
"322 769 OFFCURVE",
"237 769 CURVE SMOOTH",
"180 769 OFFCURVE",
"133 753 OFFCURVE",
"85 721 CURVE",
"120 652 LINE",
"152 668 OFFCURVE",
"178 672 OFFCURVE",
"216 672 CURVE SMOOTH",
"252 672 OFFCURVE",
"278 664 OFFCURVE",
"278 640 CURVE SMOOTH",
"278 614 LINE",
"255 618 OFFCURVE",
"229 622 OFFCURVE",
"200 622 CURVE SMOOTH",
"108 622 OFFCURVE",
"76 565 OFFCURVE",
"76 516 CURVE SMOOTH",
"76 451 OFFCURVE",
"123 403 OFFCURVE",
"199 403 CURVE SMOOTH",
"230 403 OFFCURVE",
"252 408 OFFCURVE",
"279 421 CURVE"
);
},
{
closed = 1;
nodes = (
"190 487 OFFCURVE",
"180 500 OFFCURVE",
"180 515 CURVE SMOOTH",
"180 533 OFFCURVE",
"193 543 OFFCURVE",
"213 543 CURVE SMOOTH",
"278 543 LINE",
"278 503 LINE",
"262 493 OFFCURVE",
"239 487 OFFCURVE",
"211 487 CURVE SMOOTH"
);
}
);
width = 491;
},
{
anchors = (
{
name = top;
position = "{244, 506}";
}
);
layerId = UUID1;
paths = (
{
closed = 1;
nodes = (
"269 470 LINE",
"380 470 LINE",
"380 534 LINE",
"340 534 LINE",
"340 687 LINE SMOOTH",
"340 773 OFFCURVE",
"287 809 OFFCURVE",
"203 809 CURVE SMOOTH",
"156 809 OFFCURVE",
"107 794 OFFCURVE",
"70 771 CURVE",
"94 724 LINE",
"117 737 OFFCURVE",
"152 747 OFFCURVE",
"194 747 CURVE SMOOTH",
"239 747 OFFCURVE",
"269 728 OFFCURVE",
"269 684 CURVE SMOOTH",
"269 660 LINE",
"250 664 OFFCURVE",
"226 667 OFFCURVE",
"196 667 CURVE SMOOTH",
"128 667 OFFCURVE",
"50 637 OFFCURVE",
"50 561 CURVE SMOOTH",
"50 506 OFFCURVE",
"99 461 OFFCURVE",
"171 461 CURVE SMOOTH",
"211 461 OFFCURVE",
"242 476 OFFCURVE",
"269 498 CURVE"
);
},
{
closed = 1;
nodes = (
"144 518 OFFCURVE",
"119 535 OFFCURVE",
"119 567 CURVE SMOOTH",
"119 599 OFFCURVE",
"151 617 OFFCURVE",
"193 617 CURVE SMOOTH",
"269 617 LINE",
"269 551 LINE",
"251 533 OFFCURVE",
"218 518 OFFCURVE",
"183 518 CURVE SMOOTH"
);
}
);
width = 409;
}
);
unicode = 00AA;
},
{
glyphname = ordmasculine;
lastChange = "2016-10-12 20:19:08 +0000";
layers = (
{
anchors = (
{
name = bottom;
position = "{268, -215}";
},
{
name = top;
position = "{267, 406}";
}
);
layerId = UUID0;
paths = (
{
closed = 1;
nodes = (
"30 496 OFFCURVE",
"104 411 OFFCURVE",
"216 411 CURVE SMOOTH",
"326 411 OFFCURVE",
"401 496 OFFCURVE",
"401 591 CURVE SMOOTH",
"401 685 OFFCURVE",
"323 770 OFFCURVE",
"216 770 CURVE SMOOTH",
"108 770 OFFCURVE",
"30 686 OFFCURVE",
"30 591 CURVE SMOOTH"
);
},
{
closed = 1;
nodes = (
"140 627 OFFCURVE",
"174 657 OFFCURVE",
"216 657 CURVE SMOOTH",
"258 657 OFFCURVE",
"290 627 OFFCURVE",
"290 591 CURVE SMOOTH",
"290 558 OFFCURVE",
"258 523 OFFCURVE",
"216 523 CURVE SMOOTH",
"174 523 OFFCURVE",
"140 558 OFFCURVE",
"140 591 CURVE SMOOTH"
);
}
);
width = 431;
},
{
anchors = (
{
name = bottom;
position = "{289, -215}";
},
{
name = top;
position = "{288, 406}";
}
);
layerId = UUID1;
paths = (
{
closed = 1;
nodes = (
"50 532 OFFCURVE",
"121 459 OFFCURVE",
"228 459 CURVE SMOOTH",
"335 459 OFFCURVE",
"406 532 OFFCURVE",
"406 636 CURVE SMOOTH",
"406 739 OFFCURVE",
"333 812 OFFCURVE",
"228 812 CURVE SMOOTH",
"123 812 OFFCURVE",
"50 737 OFFCURVE",
"50 635 CURVE SMOOTH"
);
},
{
closed = 1;
nodes = (
"124 707 OFFCURVE",
"171 746 OFFCURVE",
"228 746 CURVE SMOOTH",
"287 746 OFFCURVE",
"332 707 OFFCURVE",
"332 635 CURVE SMOOTH",
"332 567 OFFCURVE",
"287 524 OFFCURVE",
"228 524 CURVE SMOOTH",
"171 524 OFFCURVE",
"124 567 OFFCURVE",
"124 635 CURVE SMOOTH"
);
}
);
width = 456;
}
);
unicode = 00BA;
},
{
glyphname = zero;
lastChange = "2016-10-12 20:19:08 +0000";
layers = (
{
layerId = UUID0;
paths = (
{
closed = 1;
nodes = (
"537 -7 OFFCURVE",
"617 162 OFFCURVE",
"617 372 CURVE SMOOTH",
"617 579 OFFCURVE",
"540 749 OFFCURVE",
"329 749 CURVE SMOOTH",
"115 749 OFFCURVE",
"40 576 OFFCURVE",
"40 368 CURVE SMOOTH",
"40 157 OFFCURVE",
"120 -7 OFFCURVE",
"328 -7 CURVE SMOOTH"
);
},
{
closed = 1;
nodes = (
"213 143 OFFCURVE",
"198 240 OFFCURVE",
"198 372 CURVE SMOOTH",
"198 501 OFFCURVE",
"213 601 OFFCURVE",
"329 601 CURVE SMOOTH",
"444 601 OFFCURVE",
"458 501 OFFCURVE",
"458 372 CURVE SMOOTH",
"458 240 OFFCURVE",
"444 143 OFFCURVE",
"328 143 CURVE SMOOTH"
);
}
);
width = 633;
},
{
layerId = UUID1;
paths = (
{
closed = 1;
nodes = (
"532 -9 OFFCURVE",
"599 160 OFFCURVE",
"599 372 CURVE SMOOTH",
"599 570 OFFCURVE",
"538 752 OFFCURVE",
"321 752 CURVE SMOOTH",
"105 752 OFFCURVE",
"43 571 OFFCURVE",
"43 369 CURVE SMOOTH",
"43 158 OFFCURVE",
"109 -9 OFFCURVE",
"320 -9 CURVE SMOOTH"
);
},
{
closed = 1;
nodes = (
"167 78 OFFCURVE",
"143 211 OFFCURVE",
"143 372 CURVE SMOOTH",
"143 527 OFFCURVE",
"168 668 OFFCURVE",
"321 668 CURVE SMOOTH",
"471 668 OFFCURVE",
"500 527 OFFCURVE",
"500 372 CURVE SMOOTH",
"500 211 OFFCURVE",
"474 78 OFFCURVE",
"320 78 CURVE SMOOTH"
);
}
);
width = 596;
}
);
unicode = 0030;
},
{
glyphname = one;
lastChange = "2016-10-12 20:19:08 +0000";
layers = (
{
layerId = UUID0;
paths = (
{
closed = 1;
nodes = (
"56 0 LINE",
"373 0 LINE",
"373 134 LINE",
"295 134 LINE",
"295 741 LINE",
"224 742 LINE",
"20 622 LINE",
"20 452 LINE",
"134 520 LINE",
"134 134 LINE",
"56 134 LINE"
);
}
);
width = 398;
},
{
layerId = UUID1;
paths = (
{
closed = 1;
nodes = (
"118 0 LINE",
"358 0 LINE",
"358 84 LINE",
"285 84 LINE",
"285 761 LINE",
"246 761 LINE",
"40 646 LINE",
"40 544 LINE",
"190 625 LINE",
"190 84 LINE",
"118 84 LINE"
);
}
);
width = 419;
}
);
unicode = 0031;
},
{
glyphname = two;
lastChange = "2016-10-12 20:19:08 +0000";
layers = (
{
layerId = UUID0;
paths = (
{
closed = 1;
nodes = (
"62 0 LINE",
"545 0 LINE",
"545 150 LINE",
"269 150 LINE",
"480 378 LINE",
"520 423 OFFCURVE",
"546 471 OFFCURVE",
"546 529 CURVE SMOOTH",
"546 673 OFFCURVE",
"433 752 OFFCURVE",
"304 752 CURVE SMOOTH",
"167 752 OFFCURVE",
"58 664 OFFCURVE",
"58 510 CURVE",
"205 510 LINE",
"207 562 OFFCURVE",
"238 606 OFFCURVE",
"302 606 CURVE SMOOTH",
"355 606 OFFCURVE",
"387 567 OFFCURVE",
"387 529 CURVE SMOOTH",
"387 485 OFFCURVE",
"362 442 OFFCURVE",
"318 399 CURVE",
"62 127 LINE"
);
}
);
width = 575;
},
{
layerId = UUID1;
paths = (
{
closed = 1;
nodes = (
"43 0 LINE",
"477 0 LINE",
"477 86 LINE",
"161 86 LINE",
"392 361 LINE",
"458 440 OFFCURVE",
"478 498 OFFCURVE",
"478 545 CURVE SMOOTH",
"478 663 OFFCURVE",
"390 753 OFFCURVE",
"258 753 CURVE SMOOTH",
"143 753 OFFCURVE",
"43 663 OFFCURVE",
"42 539 CURVE",
"130 539 LINE",
"133 620 OFFCURVE",
"189 663 OFFCURVE",
"257 663 CURVE SMOOTH",
"332 663 OFFCURVE",
"386 610 OFFCURVE",
"386 545 CURVE SMOOTH",
"386 483 OFFCURVE",
"338 428 OFFCURVE",
"303 386 CURVE",
"43 72 LINE"
);
}
);
width = 537;
}
);
unicode = 0032;
},
{
glyphname = three;
lastChange = "2016-10-12 20:19:08 +0000";
layers = (
{
layerId = UUID0;
paths = (
{
closed = 1;
nodes = (
"355 484 OFFCURVE",
"322 451 OFFCURVE",
"264 451 CURVE SMOOTH",
"195 451 LINE",
"195 318 LINE",
"263 318 LINE SMOOTH",
"326 318 OFFCURVE",
"365 280 OFFCURVE",
"365 227 CURVE SMOOTH",
"365 178 OFFCURVE",
"320 138 OFFCURVE",
"264 138 CURVE SMOOTH",
"202 138 OFFCURVE",
"165 170 OFFCURVE",
"161 238 CURVE",
"8 238 LINE",
"8 223 OFFCURVE",
"10 212 OFFCURVE",
"12 203 CURVE",
"21 83 OFFCURVE",
"126 -9 OFFCURVE",
"262 -9 CURVE SMOOTH",
"407 -9 OFFCURVE",
"518 100 OFFCURVE",
"518 228 CURVE SMOOTH",
"518 301 OFFCURVE",
"480 363 OFFCURVE",
"434 389 CURVE",
"479 421 OFFCURVE",
"507 476 OFFCURVE",
"507 538 CURVE SMOOTH",
"507 654 OFFCURVE",
"400 757 OFFCURVE",
"261 757 CURVE SMOOTH",
"115 757 OFFCURVE",
"21 647 OFFCURVE",
"19 520 CURVE",
"171 519 LINE",
"171 536 LINE SMOOTH",
"171 576 OFFCURVE",
"213 611 OFFCURVE",
"261 611 CURVE SMOOTH",
"318 611 OFFCURVE",
"355 568 OFFCURVE",
"355 529 CURVE SMOOTH"
);
}
);
width = 531;
},
{
layerId = UUID1;
paths = (
{
closed = 1;
nodes = (
"381 479 OFFCURVE",
"329 425 OFFCURVE",
"243 425 CURVE SMOOTH",
"209 425 LINE",
"209 351 LINE",
"251 351 LINE SMOOTH",
"326 351 OFFCURVE",
"390 299 OFFCURVE",
"390 217 CURVE SMOOTH",
"390 139 OFFCURVE",
"325 81 OFFCURVE",
"257 81 CURVE SMOOTH",
"182 81 OFFCURVE",
"133 118 OFFCURVE",
"114 178 CURVE",
"20 178 LINE",
"24 158 OFFCURVE",
"30 139 OFFCURVE",
"38 122 CURVE",
"76 37 OFFCURVE",
"156 -7 OFFCURVE",
"247 -7 CURVE SMOOTH",
"377 -7 OFFCURVE",
"482 88 OFFCURVE",
"482 216 CURVE SMOOTH",
"482 305 OFFCURVE",
"432 365 OFFCURVE",
"371 389 CURVE",
"445 425 OFFCURVE",
"474 489 OFFCURVE",
"474 552 CURVE SMOOTH",
"474 654 OFFCURVE",
"384 755 OFFCURVE",
"244 755 CURVE SMOOTH",
"132 755 OFFCURVE",
"38 668 OFFCURVE",
"26 563 CURVE",
"120 562 LINE",
"120 581 LINE SMOOTH",
"120 604 OFFCURVE",
"170 670 OFFCURVE",
"245 670 CURVE SMOOTH",
"338 670 OFFCURVE",
"381 598 OFFCURVE",
"381 547 CURVE SMOOTH"
);
}
);
width = 542;
}
);
unicode = 0033;
},
{
glyphname = four;
lastChange = "2016-10-12 20:19:08 +0000";
layers = (
{
layerId = UUID0;
paths = (
{
closed = 1;
nodes = (
"5 202 LINE",
"328 202 LINE",
"328 134 LINE",
"258 134 LINE",
"258 0 LINE",
"575 0 LINE",
"575 134 LINE",
"481 134 LINE",
"481 202 LINE",
"584 202 LINE",
"584 326 LINE",
"481 326 LINE",
"481 471 LINE",
"328 469 LINE",
"328 326 LINE",
"172 326 LINE",
"431 740 LINE",
"268 740 LINE",
"5 327 LINE"
);
}
);
width = 601;
},
{
layerId = UUID1;
paths = (
{
closed = 1;
nodes = (
"44 214 LINE",
"351 214 LINE",
"351 84 LINE",
"280 84 LINE",
"280 0 LINE",
"520 0 LINE",
"520 84 LINE",
"447 84 LINE",
"447 214 LINE",
"557 214 LINE",
"557 298 LINE",
"447 298 LINE",
"447 427 LINE",
"351 420 LINE",
"351 298 LINE",
"162 298 LINE",
"412 740 LINE",
"308 740 LINE",
"45 291 LINE"
);
}
);
width = 611;
}
);
unicode = 0034;
},
{
glyphname = five;
lastChange = "2016-10-12 20:19:08 +0000";
layers = (
{
layerId = UUID0;
paths = (
{
closed = 1;
nodes = (
"213 591 LINE",
"542 591 LINE",
"542 740 LINE",
"72 740 LINE",
"72 346 LINE",
"204 322 LINE",
"236 337 OFFCURVE",
"264 345 OFFCURVE",
"306 345 CURVE SMOOTH",
"373 345 OFFCURVE",
"417 294 OFFCURVE",
"417 240 CURVE SMOOTH",
"417 177 OFFCURVE",
"375 127 OFFCURVE",
"312 127 CURVE SMOOTH",
"256 127 OFFCURVE",
"213 164 OFFCURVE",
"205 225 CURVE",
"54 184 LINE",
"78 52 OFFCURVE",
"185 -15 OFFCURVE",
"312 -15 CURVE SMOOTH",
"441 -15 OFFCURVE",
"569 72 OFFCURVE",
"569 237 CURVE SMOOTH",
"569 390 OFFCURVE",
"454 473 OFFCURVE",
"322 473 CURVE SMOOTH",
"280 473 OFFCURVE",
"244 464 OFFCURVE",
"213 452 CURVE"
);
}
);
width = 589;
},
{
layerId = UUID1;
paths = (
{
closed = 1;
nodes = (
"155 659 LINE",
"491 659 LINE",
"491 740 LINE",
"74 740 LINE",
"74 354 LINE",
"146 343 LINE",
"175 374 OFFCURVE",
"221 394 OFFCURVE",
"273 394 CURVE SMOOTH",
"365 394 OFFCURVE",
"438 324 OFFCURVE",
"438 232 CURVE SMOOTH",
"438 141 OFFCURVE",
"366 67 OFFCURVE",
"273 67 CURVE SMOOTH",
"199 67 OFFCURVE",
"137 115 OFFCURVE",
"116 182 CURVE",
"36 142 LINE",
"71 51 OFFCURVE",
"157 -14 OFFCURVE",
"273 -14 CURVE SMOOTH",
"425 -14 OFFCURVE",
"526 99 OFFCURVE",
"526 232 CURVE SMOOTH",
"526 364 OFFCURVE",
"423 475 OFFCURVE",
"277 475 CURVE SMOOTH",
"228 475 OFFCURVE",
"191 462 OFFCURVE",
"155 438 CURVE"
);
}
);
width = 556;
}
);
unicode = 0035;
},
{
glyphname = six;
lastChange = "2016-10-12 20:19:08 +0000";
layers = (
{
layerId = UUID0;
paths = (
{
closed = 1;
nodes = (
"275 741 LINE",
"92 410 LINE SMOOTH",
"61 354 OFFCURVE",
"32 302 OFFCURVE",
"32 237 CURVE SMOOTH",
"32 100 OFFCURVE",
"148 -6 OFFCURVE",
"286 -6 CURVE SMOOTH",
"427 -6 OFFCURVE",
"543 100 OFFCURVE",
"543 242 CURVE SMOOTH",
"543 358 OFFCURVE",
"456 452 OFFCURVE",
"345 473 CURVE SMOOTH",
"329 476 OFFCURVE",
"313 478 OFFCURVE",
"295 477 CURVE",
"446 741 LINE"
);
},
{
closed = 1;
nodes = (
"346 339 OFFCURVE",
"398 299 OFFCURVE",
"398 238 CURVE SMOOTH",
"398 174 OFFCURVE",
"340 137 OFFCURVE",
"287 137 CURVE SMOOTH",
"210 137 OFFCURVE",
"176 194 OFFCURVE",
"176 239 CURVE SMOOTH",
"176 261 OFFCURVE",
"182 280 OFFCURVE",
"190 296 CURVE",
"211 324 OFFCURVE",
"245 339 OFFCURVE",
"284 339 CURVE SMOOTH"
);
}
);
width = 568;
},
{
layerId = UUID1;
paths = (
{
closed = 1;
nodes = (
"283 741 LINE",
"103 415 LINE SMOOTH",
"71 354 OFFCURVE",
"46 300 OFFCURVE",
"46 242 CURVE SMOOTH",
"46 94 OFFCURVE",
"169 -6 OFFCURVE",
"302 -6 CURVE SMOOTH",
"442 -6 OFFCURVE",
"562 89 OFFCURVE",
"562 254 CURVE SMOOTH",
"562 389 OFFCURVE",
"449 484 OFFCURVE",
"329 484 CURVE SMOOTH",
"304 484 OFFCURVE",
"271 484 OFFCURVE",
"232 467 CURVE",
"397 741 LINE"
);
},
{
closed = 1;
nodes = (
"387 404 OFFCURVE",
"471 348 OFFCURVE",
"471 241 CURVE SMOOTH",
"471 145 OFFCURVE",
"393 79 OFFCURVE",
"304 79 CURVE SMOOTH",
"209 79 OFFCURVE",
"137 139 OFFCURVE",
"137 241 CURVE SMOOTH",
"137 271 OFFCURVE",
"142 298 OFFCURVE",
"150 321 CURVE",
"180 374 OFFCURVE",
"228 404 OFFCURVE",
"291 404 CURVE SMOOTH"
);
}
);
width = 610;
}
);
unicode = 0036;
},
{
glyphname = seven;
lastChange = "2016-10-12 20:19:08 +0000";
layers = (
{
layerId = UUID0;
paths = (
{
closed = 1;
nodes = (
"112 0 LINE",
"376 0 LINE",
"376 134 LINE",
"328 134 LINE",
"402 301 OFFCURVE",
"485 473 OFFCURVE",
"561 630 CURVE",
"561 740 LINE",
"20 740 LINE",
"20 504 LINE",
"160 504 LINE",
"160 588 LINE",
"367 588 LINE",
"306 454 OFFCURVE",
"230 288 OFFCURVE",
"164 134 CURVE",
"112 134 LINE"
);
}
);
width = 581;
},
{
layerId = UUID1;
paths = (
{
closed = 1;
nodes = (
"89 0 LINE",
"305 0 LINE",
"305 84 LINE",
"244 84 LINE",
"314 283 OFFCURVE",
"419 498 OFFCURVE",
"506 667 CURVE",
"506 740 LINE",
"20 740 LINE",
"20 589 LINE",
"114 589 LINE",
"114 646 LINE",
"391 646 LINE",
"321 504 OFFCURVE",
"216 285 OFFCURVE",
"146 84 CURVE",
"89 84 LINE"
);
}
);
width = 526;
}
);
unicode = 0037;
},
{
glyphname = eight;
lastChange = "2016-10-12 20:19:08 +0000";
layers = (
{
layerId = UUID0;
paths = (
{
closed = 1;
nodes = (
"180 754 OFFCURVE",
"73 654 OFFCURVE",
"73 533 CURVE SMOOTH",
"73 479 OFFCURVE",
"101 427 OFFCURVE",
"146 390 CURVE",
"90 351 OFFCURVE",
"55 292 OFFCURVE",
"55 223 CURVE SMOOTH",
"55 102 OFFCURVE",
"167 -13 OFFCURVE",
"312 -13 CURVE SMOOTH",
"457 -13 OFFCURVE",
"569 98 OFFCURVE",
"569 225 CURVE SMOOTH",
"569 292 OFFCURVE",
"534 350 OFFCURVE",
"480 388 CURVE",
"525 426 OFFCURVE",
"553 479 OFFCURVE",
"553 536 CURVE SMOOTH",
"553 654 OFFCURVE",
"445 754 OFFCURVE",
"312 754 CURVE SMOOTH"
);
},
{
closed = 1;
nodes = (
"197 279 OFFCURVE",
"247 323 OFFCURVE",
"312 323 CURVE SMOOTH",
"376 323 OFFCURVE",
"426 279 OFFCURVE",
"426 227 CURVE SMOOTH",
"426 174 OFFCURVE",
"376 128 OFFCURVE",
"312 128 CURVE SMOOTH",
"247 128 OFFCURVE",
"197 174 OFFCURVE",
"197 227 CURVE SMOOTH"
);
},
{
closed = 1;
nodes = (
"215 573 OFFCURVE",
"257 613 OFFCURVE",
"312 613 CURVE SMOOTH",
"366 613 OFFCURVE",
"410 573 OFFCURVE",
"410 528 CURVE SMOOTH",
"410 484 OFFCURVE",
"366 446 OFFCURVE",
"312 446 CURVE SMOOTH",
"257 446 OFFCURVE",
"215 484 OFFCURVE",
"215 528 CURVE SMOOTH"
);
}
);
width = 576;
},
{
layerId = UUID1;
paths = (
{
closed = 1;
nodes = (
"192 754 OFFCURVE",
"100 667 OFFCURVE",
"100 560 CURVE SMOOTH",
"100 497 OFFCURVE",
"131 441 OFFCURVE",
"181 405 CURVE",
"113 366 OFFCURVE",
"68 296 OFFCURVE",
"68 216 CURVE SMOOTH",
"68 93 OFFCURVE",
"175 -8 OFFCURVE",
"306 -8 CURVE SMOOTH",
"436 -8 OFFCURVE",
"543 93 OFFCURVE",
"543 216 CURVE SMOOTH",
"543 295 OFFCURVE",
"498 365 OFFCURVE",
"432 405 CURVE",
"481 440 OFFCURVE",
"514 497 OFFCURVE",
"514 560 CURVE SMOOTH",
"514 667 OFFCURVE",
"420 754 OFFCURVE",
"308 754 CURVE SMOOTH"
);
},
{
closed = 1;
nodes = (
"157 294 OFFCURVE",
"224 357 OFFCURVE",
"306 357 CURVE SMOOTH",
"387 357 OFFCURVE",
"454 294 OFFCURVE",
"454 218 CURVE SMOOTH",
"454 141 OFFCURVE",
"387 77 OFFCURVE",
"306 77 CURVE SMOOTH",
"224 77 OFFCURVE",
"157 141 OFFCURVE",
"157 218 CURVE SMOOTH"
);
},
{
closed = 1;
nodes = (
"184 622 OFFCURVE",
"237 675 OFFCURVE",
"308 675 CURVE SMOOTH",
"374 675 OFFCURVE",
"430 622 OFFCURVE",
"430 558 CURVE SMOOTH",
"430 493 OFFCURVE",
"374 441 OFFCURVE",
"308 441 CURVE SMOOTH",
"237 441 OFFCURVE",
"184 493 OFFCURVE",
"184 558 CURVE SMOOTH"
);
}
);
width = 623;
}
);
unicode = 0038;
},
{
glyphname = nine;
lastChange = "2016-10-12 20:19:08 +0000";
layers = (
{
layerId = UUID0;
paths = (
{
closed = 1;
nodes = (
"320 -1 LINE",
"503 330 LINE SMOOTH",
"534 386 OFFCURVE",
"563 438 OFFCURVE",
"563 503 CURVE SMOOTH",
"563 640 OFFCURVE",
"447 746 OFFCURVE",
"308 746 CURVE SMOOTH",
"167 746 OFFCURVE",
"52 640 OFFCURVE",
"52 498 CURVE SMOOTH",
"52 382 OFFCURVE",
"139 288 OFFCURVE",
"250 267 CURVE SMOOTH",
"265 264 OFFCURVE",
"281 262 OFFCURVE",
"299 263 CURVE",
"149 -1 LINE"
);
},
{
closed = 1;
nodes = (
"248 401 OFFCURVE",
"197 441 OFFCURVE",
"197 502 CURVE SMOOTH",
"197 566 OFFCURVE",
"254 603 OFFCURVE",
"308 603 CURVE SMOOTH",
"384 603 OFFCURVE",
"418 546 OFFCURVE",
"418 501 CURVE SMOOTH",
"418 478 OFFCURVE",
"411 458 OFFCURVE",
"402 441 CURVE",
"381 415 OFFCURVE",
"349 401 OFFCURVE",
"311 401 CURVE SMOOTH"
);
}
);
width = 562;
},
{
layerId = UUID1;
paths = (
{
closed = 1;
nodes = (
"325 -1 LINE",
"505 325 LINE SMOOTH",
"537 386 OFFCURVE",
"562 440 OFFCURVE",
"562 498 CURVE SMOOTH",
"562 646 OFFCURVE",
"439 746 OFFCURVE",
"306 746 CURVE SMOOTH",
"166 746 OFFCURVE",
"46 651 OFFCURVE",
"46 486 CURVE SMOOTH",
"46 351 OFFCURVE",
"159 256 OFFCURVE",
"279 256 CURVE SMOOTH",
"304 256 OFFCURVE",
"336 255 OFFCURVE",
"376 272 CURVE",
"211 -1 LINE"
);
},
{
closed = 1;
nodes = (
"221 336 OFFCURVE",
"137 392 OFFCURVE",
"137 499 CURVE SMOOTH",
"137 595 OFFCURVE",
"215 661 OFFCURVE",
"304 661 CURVE SMOOTH",
"399 661 OFFCURVE",
"471 601 OFFCURVE",
"471 499 CURVE SMOOTH",
"471 468 OFFCURVE",
"466 441 OFFCURVE",
"458 417 CURVE",
"427 366 OFFCURVE",
"379 336 OFFCURVE",
"317 336 CURVE SMOOTH"
);
}
);
width = 620;
}
);
unicode = 0039;
},
{
color = 3;
glyphname = twoinferior;
lastChange = "2016-10-12 20:19:08 +0000";
layers = (
{
layerId = UUID0;
paths = (
{
closed = 1;
nodes = (
"810 0 LINE",
"1090 0 LINE",
"1090 110 LINE",
"968 110 LINE",
"1067 195 LINE",
"1071 199 OFFCURVE",
"1090 214 OFFCURVE",
"1090 249 CURVE SMOOTH",
"1090 334 OFFCURVE",
"1017 366 OFFCURVE",
"952 366 CURVE SMOOTH",
"869 366 OFFCURVE",
"806 324 OFFCURVE",
"807 231 CURVE",
"917 231 LINE",
"917 245 OFFCURVE",
"925 262 OFFCURVE",
"947 262 CURVE SMOOTH",
"963 262 OFFCURVE",
"970 256 OFFCURVE",
"970 241 CURVE SMOOTH",
"970 237 OFFCURVE",
"970 224 OFFCURVE",
"942 202 CURVE",
"810 94 LINE"
);
}
);
width = 1367;
},
{
layerId = UUID1;
paths = (
{
closed = 1;
nodes = (
"827 0 LINE",
"1073 0 LINE",
"1073 69 LINE",
"926 69 LINE",
"1038 184 LINE",
"1061 208 OFFCURVE",
"1074 232 OFFCURVE",
"1074 259 CURVE SMOOTH",
"1074 328 OFFCURVE",
"1018 367 OFFCURVE",
"951 367 CURVE SMOOTH",
"882 367 OFFCURVE",
"826 323 OFFCURVE",
"826 250 CURVE",
"897 250 LINE",
"897 278 OFFCURVE",
"917 299 OFFCURVE",
"949 299 CURVE SMOOTH",
"979 299 OFFCURVE",
"998 280 OFFCURVE",
"998 257 CURVE SMOOTH",
"998 236 OFFCURVE",
"983 214 OFFCURVE",
"961 194 CURVE",
"827 59 LINE"
);
}
);
width = 1370;
}
);
unicode = 2082;
},
{
color = 3;
glyphname = fourinferior;
lastChange = "2016-10-12 20:19:08 +0000";
layers = (
{
layerId = UUID0;
paths = (
{
closed = 1;
nodes = (
"784 89 LINE",
"969 89 LINE",
"969 0 LINE",
"1068 0 LINE",
"1068 89 LINE",
"1119 89 LINE",
"1119 167 LINE",
"1068 167 LINE",
"1068 248 LINE",
"969 248 LINE",
"969 167 LINE",
"887 167 LINE",
"1025 373 LINE",
"920 373 LINE",
"783 170 LINE"
);
}
);
width = 1367;
},
{
layerId = UUID1;
paths = (
{
closed = 1;
nodes = (
"848 95 LINE",
"1012 95 LINE",
"1012 0 LINE",
"1078 0 LINE",
"1078 95 LINE",
"1133 95 LINE",
"1133 149 LINE",
"1078 149 LINE",
"1078 229 LINE",
"1012 229 LINE",
"1012 149 LINE",
"923 149 LINE",
"1056 371 LINE",
"984 371 LINE",
"847 148 LINE"
);
}
);
width = 1370;
}
);
unicode = 2084;
},
{
glyphname = onesuperior;
lastChange = "2016-10-12 20:19:08 +0000";
layers = (
{
layerId = UUID0;
paths = (
{
closed = 1;
nodes = (
"25 410 LINE",
"250 410 LINE",
"250 505 LINE",
"191 505 LINE",
"191 770 LINE",
"136 770 LINE",
"20 708 LINE",
"20 594 LINE",
"89 627 LINE",
"89 505 LINE",
"25 505 LINE"
);
}
);
width = 263;
},
{
layerId = UUID1;
paths = (
{
closed = 1;
nodes = (
"45 410 LINE",
"190 410 LINE",
"190 465 LINE",
"151 465 LINE",
"151 771 LINE",
"122 771 LINE",
"16 713 LINE",
"16 645 LINE",
"85 682 LINE",
"85 465 LINE",
"45 465 LINE"
);
}
);
width = 213;
}
);
unicode = 00B9;
},
{
glyphname = twosuperior;
lastChange = "2016-10-12 20:19:08 +0000";
layers = (
{
layerId = UUID0;
paths = (
{
closed = 1;
nodes = (
"42 411 LINE",
"322 411 LINE",
"322 511 LINE",
"200 511 LINE",
"278 576 LINE SMOOTH",
"304 598 OFFCURVE",
"322 618 OFFCURVE",
"322 657 CURVE SMOOTH",
"322 735 OFFCURVE",
"249 771 OFFCURVE",
"184 771 CURVE SMOOTH",
"101 771 OFFCURVE",
"38 729 OFFCURVE",
"39 636 CURVE",
"149 636 LINE",
"149 644 OFFCURVE",
"151 667 OFFCURVE",
"177 667 CURVE SMOOTH",
"194 667 OFFCURVE",
"202 658 OFFCURVE",
"202 647 CURVE SMOOTH",
"202 638 OFFCURVE",
"202 625 OFFCURVE",
"174 603 CURVE",
"42 505 LINE"
);
}
);
width = 352;
},
{
layerId = UUID1;
paths = (
{
closed = 1;
nodes = (
"27 411 LINE",
"265 411 LINE",
"265 470 LINE",
"112 470 LINE",
"227 585 LINE SMOOTH",
"254 612 OFFCURVE",
"266 640 OFFCURVE",
"266 665 CURVE SMOOTH",
"266 730 OFFCURVE",
"214 771 OFFCURVE",
"146 771 CURVE SMOOTH",
"81 771 OFFCURVE",
"26 727 OFFCURVE",
"26 659 CURVE",
"87 659 LINE",
"88 690 OFFCURVE",
"111 712 OFFCURVE",
"145 712 CURVE SMOOTH",
"179 712 OFFCURVE",
"201 690 OFFCURVE",
"201 665 CURVE SMOOTH",
"201 640 OFFCURVE",
"181 617 OFFCURVE",
"161 596 CURVE",
"27 461 LINE"
);
}
);
width = 289;
}
);
unicode = 00B2;
},
{
glyphname = threesuperior;
lastChange = "2016-10-12 20:19:08 +0000";
layers = (
{
layerId = UUID0;
paths = (
{
closed = 1;
nodes = (
"202 634 OFFCURVE",
"197 620 OFFCURVE",
"181 620 CURVE SMOOTH",
"126 620 LINE",
"126 555 LINE",
"176 555 LINE SMOOTH",
"203 555 OFFCURVE",
"209 541 OFFCURVE",
"209 530 CURVE SMOOTH",
"209 517 OFFCURVE",
"197 498 OFFCURVE",
"174 498 CURVE SMOOTH",
"150 498 OFFCURVE",
"137 519 OFFCURVE",
"137 538 CURVE",
"30 538 LINE",
"30 464 OFFCURVE",
"81 407 OFFCURVE",
"177 407 CURVE SMOOTH",
"261 407 OFFCURVE",
"322 465 OFFCURVE",
"322 525 CURVE SMOOTH",
"322 552 OFFCURVE",
"309 583 OFFCURVE",
"292 597 CURVE",
"303 608 OFFCURVE",
"315 628 OFFCURVE",
"315 656 CURVE SMOOTH",
"315 721 OFFCURVE",
"250 772 OFFCURVE",
"178 772 CURVE SMOOTH",
"83 772 OFFCURVE",
"35 715 OFFCURVE",
"38 640 CURVE",
"145 640 LINE",
"145 666 OFFCURVE",
"159 675 OFFCURVE",
"178 675 CURVE SMOOTH",
"197 675 OFFCURVE",
"202 662 OFFCURVE",
"202 649 CURVE SMOOTH"
);
}
);
width = 352;
},
{
layerId = UUID1;
paths = (
{
closed = 1;
nodes = (
"209 639 OFFCURVE",
"187 619 OFFCURVE",
"150 619 CURVE SMOOTH",
"123 619 LINE",
"123 567 LINE",
"151 567 LINE SMOOTH",
"188 567 OFFCURVE",
"214 546 OFFCURVE",
"214 515 CURVE SMOOTH",
"214 486 OFFCURVE",
"186 465 OFFCURVE",
"153 465 CURVE SMOOTH",
"118 465 OFFCURVE",
"95 482 OFFCURVE",
"90 513 CURVE",
"25 513 LINE",
"25 445 OFFCURVE",
"87 406 OFFCURVE",
"150 406 CURVE SMOOTH",
"222 406 OFFCURVE",
"278 453 OFFCURVE",
"278 516 CURVE SMOOTH",
"278 554 OFFCURVE",
"255 583 OFFCURVE",
"228 595 CURVE",
"258 611 OFFCURVE",
"273 638 OFFCURVE",
"273 669 CURVE SMOOTH",
"273 723 OFFCURVE",
"222 772 OFFCURVE",
"149 772 CURVE SMOOTH",
"82 772 OFFCURVE",
"33 723 OFFCURVE",
"30 666 CURVE",
"94 666 LINE",
"94 700 OFFCURVE",
"129 714 OFFCURVE",
"150 714 CURVE SMOOTH",
"188 714 OFFCURVE",
"209 687 OFFCURVE",
"209 666 CURVE SMOOTH"
);
}
);
width = 308;
}
);
unicode = 00B3;
},
{
color = 3;
glyphname = foursuperior;
lastChange = "2016-10-12 20:19:08 +0000";
layers = (
{
layerId = UUID0;
paths = (
{
closed = 1;
nodes = (
"23 496 LINE",
"201 496 LINE",
"201 411 LINE",
"300 411 LINE",
"300 496 LINE",
"351 496 LINE",
"351 577 LINE",
"300 577 LINE",
"300 658 LINE",
"201 659 LINE",
"201 577 LINE",
"131 577 LINE",
"269 783 LINE",
"159 783 LINE",
"22 580 LINE"
);
}
);
width = 386;
},
{
layerId = UUID1;
paths = (
{
closed = 1;
nodes = (
"56 508 LINE",
"218 508 LINE",
"218 413 LINE",
"276 413 LINE",
"276 508 LINE",
"332 508 LINE",
"332 557 LINE",
"276 557 LINE",
"276 627 LINE",
"218 624 LINE",
"218 557 LINE",
"125 557 LINE",
"256 783 LINE",
"192 783 LINE",
"56 555 LINE"
);
}
);
width = 395;
}
);
unicode = 2074;
},
{
glyphname = fraction;
lastChange = "2016-10-12 20:19:08 +0000";
layers = (
{
layerId = UUID0;
paths = (
{
closed = 1;
nodes = (
"-102 -30 LINE",
"26 -30 LINE",
"634 770 LINE",
"509 770 LINE"
);
}
);
width = 180;
},
{
layerId = UUID1;
paths = (
{
closed = 1;
nodes = (
"-99 -30 LINE",
"-2 -30 LINE",
"621 770 LINE",
"524 770 LINE"
);
}
);
width = 180;
}
);
unicode = 2044;
},
{
glyphname = asterisk;
lastChange = "2016-10-12 20:19:08 +0000";
layers = (
{
layerId = UUID0;
paths = (
{
closed = 1;
nodes = (
"307 789 LINE",
"185 789 LINE",
"185 666 LINE",
"68 704 LINE",
"30 588 LINE",
"147 550 LINE",
"75 450 LINE",
"174 378 LINE",
"246 479 LINE",
"318 378 LINE",
"417 450 LINE",
"344 550 LINE",
"462 588 LINE",
"424 704 LINE",
"307 666 LINE"
);
}
);
width = 492;
},
{
layerId = UUID1;
paths = (
{
closed = 1;
nodes = (
"236 755 LINE",
"171 755 LINE",
"171 635 LINE",
"48 675 LINE",
"29 614 LINE",
"155 574 LINE",
"79 470 LINE",
"132 436 LINE",
"204 536 LINE",
"277 435 LINE",
"330 470 LINE",
"253 575 LINE",
"375 614 LINE",
"357 672 LINE",
"236 632 LINE"
);
}
);
width = 408;
}
);
unicode = 002A;
},
{
glyphname = backslash;
lastChange = "2016-10-12 20:19:08 +0000";
layers = (
{
layerId = UUID0;
paths = (
{
closed = 1;
nodes = (
"279 -143 LINE",
"397 -143 LINE",
"118 676 LINE",
"3 676 LINE"
);
}
);
width = 380;
},
{
layerId = UUID1;
paths = (
{
closed = 1;
nodes = (
"364 -12 LINE",
"443 -12 LINE",
"99 772 LINE",
"20 772 LINE"
);
}
);
width = 463;
}
);
unicode = 005C;
},
{
glyphname = bullet;
lastChange = "2016-10-12 20:19:08 +0000";
layers = (
{
layerId = UUID0;
paths = (
{
closed = 1;
nodes = (
"88 291 OFFCURVE",
"161 218 OFFCURVE",
"250 218 CURVE SMOOTH",
"339 218 OFFCURVE",
"411 291 OFFCURVE",
"411 380 CURVE SMOOTH",
"411 469 OFFCURVE",
"339 541 OFFCURVE",
"250 541 CURVE SMOOTH",
"161 541 OFFCURVE",
"88 469 OFFCURVE",
"88 380 CURVE SMOOTH"
);
}
);
width = 500;
},
{
layerId = UUID1;
paths = (
{
closed = 1;
nodes = (
"75 312 OFFCURVE",
"129 258 OFFCURVE",
"198 258 CURVE SMOOTH",
"266 258 OFFCURVE",
"321 312 OFFCURVE",
"321 381 CURVE SMOOTH",
"321 450 OFFCURVE",
"266 504 OFFCURVE",
"198 504 CURVE SMOOTH",
"129 504 OFFCURVE",
"75 449 OFFCURVE",
"75 381 CURVE SMOOTH"
);
}
);
width = 396;
}
);
unicode = 2022;
},
{
glyphname = comma;
lastChange = "2016-10-12 20:19:08 +0000";
layers = (
{
layerId = UUID0;
paths = (
{
closed = 1;
nodes = (
"10 -140 LINE",
"110 -178 LINE",
"249 86 LINE",
"100 138 LINE"
);
}
);
width = 260;
},
{
layerId = UUID1;
paths = (
{
closed = 1;
nodes = (
"10 -140 LINE",
"80 -166 LINE",
"207 96 LINE",
"100 138 LINE"
);
}
);
width = 278;
}
);
unicode = 002C;
},
{
glyphname = ellipsis;
lastChange = "2016-10-12 20:19:08 +0000";
layers = (
{
layerId = UUID0;
paths = (
{
closed = 1;
nodes = (
"15 25 OFFCURVE",
"56 -15 OFFCURVE",
"106 -15 CURVE SMOOTH",
"155 -15 OFFCURVE",
"199 25 OFFCURVE",
"199 70 CURVE SMOOTH",
"199 118 OFFCURVE",
"155 155 OFFCURVE",
"106 155 CURVE SMOOTH",
"56 155 OFFCURVE",
"15 118 OFFCURVE",
"15 70 CURVE SMOOTH"
);
},
{
closed = 1;
nodes = (
"229 25 OFFCURVE",
"270 -15 OFFCURVE",
"320 -15 CURVE SMOOTH",
"369 -15 OFFCURVE",
"413 25 OFFCURVE",
"413 70 CURVE SMOOTH",
"413 118 OFFCURVE",
"369 155 OFFCURVE",
"320 155 CURVE SMOOTH",
"270 155 OFFCURVE",
"229 118 OFFCURVE",
"229 70 CURVE SMOOTH"
);
},
{
closed = 1;
nodes = (
"443 25 OFFCURVE",
"484 -15 OFFCURVE",
"534 -15 CURVE SMOOTH",
"583 -15 OFFCURVE",
"627 25 OFFCURVE",
"627 70 CURVE SMOOTH",
"627 118 OFFCURVE",
"583 155 OFFCURVE",
"534 155 CURVE SMOOTH",
"484 155 OFFCURVE",
"443 118 OFFCURVE",
"443 70 CURVE SMOOTH"
);
}
);
width = 642;
},
{
layerId = UUID1;
paths = (
{
closed = 1;
nodes = (
"100 21 OFFCURVE",
"133 -12 OFFCURVE",
"172 -12 CURVE SMOOTH",
"212 -12 OFFCURVE",
"245 21 OFFCURVE",
"245 60 CURVE SMOOTH",
"245 99 OFFCURVE",
"212 132 OFFCURVE",
"172 132 CURVE SMOOTH",
"133 132 OFFCURVE",
"100 99 OFFCURVE",
"100 60 CURVE SMOOTH"
);
},
{
closed = 1;
nodes = (
"428 21 OFFCURVE",
"461 -12 OFFCURVE",
"500 -12 CURVE SMOOTH",
"540 -12 OFFCURVE",
"573 21 OFFCURVE",
"573 60 CURVE SMOOTH",
"573 99 OFFCURVE",
"540 132 OFFCURVE",
"500 132 CURVE SMOOTH",
"461 132 OFFCURVE",
"428 99 OFFCURVE",
"428 60 CURVE SMOOTH"
);
},
{
closed = 1;
nodes = (
"756 21 OFFCURVE",
"789 -12 OFFCURVE",
"828 -12 CURVE SMOOTH",
"868 -12 OFFCURVE",
"901 21 OFFCURVE",
"901 60 CURVE SMOOTH",
"901 99 OFFCURVE",
"868 132 OFFCURVE",
"828 132 CURVE SMOOTH",
"789 132 OFFCURVE",
"756 99 OFFCURVE",
"756 60 CURVE SMOOTH"
);
}
);
width = 1000;
}
);
unicode = 2026;
},
{
glyphname = exclam;
lastChange = "2016-10-12 20:19:08 +0000";
layers = (
{
components = (
{
name = dotaccent;
transform = "{1, 0, 0, 1, 23, -598}";
}
);
layerId = UUID0;
paths = (
{
closed = 1;
nodes = (
"88 249 LINE",
"228 249 LINE",
"248 770 LINE",
"68 770 LINE"
);
}
);
width = 340;
},
{
components = (
{
name = dotaccent;
transform = "{1, 0, 0, 1, 18, -626}";
}
);
layerId = UUID1;
paths = (
{
closed = 1;
nodes = (
"123 200 LINE",
"210 200 LINE",
"230 770 LINE",
"103 770 LINE"
);
}
);
width = 333;
}
);
unicode = 0021;
},
{
glyphname = exclamdown;
lastChange = "2016-10-12 20:19:08 +0000";
layers = (
{
components = (
{
name = dotaccent;
transform = "{1, 0, 0, 1, 23, -188}";
}
);
layerId = UUID0;
paths = (
{
closed = 1;
nodes = (
"88 291 LINE",
"228 291 LINE",
"248 -230 LINE",
"68 -230 LINE"
);
}
);
width = 340;
},
{
components = (
{
name = dotaccent;
transform = "{1, 0, 0, 1, 18, -192}";
}
);
layerId = UUID1;
paths = (
{
closed = 1;
nodes = (
"123 340 LINE",
"210 340 LINE",
"230 -230 LINE",
"103 -230 LINE"
);
}
);
width = 333;
}
);
unicode = 00A1;
},
{
glyphname = numbersign;
lastChange = "2016-10-12 20:19:08 +0000";
layers = (
{
layerId = UUID0;
paths = (
{
closed = 1;
nodes = (
"50 447 LINE",
"142 447 LINE",
"108 274 LINE",
"35 274 LINE",
"4 137 LINE",
"81 137 LINE",
"54 0 LINE",
"219 0 LINE",
"246 137 LINE",
"403 137 LINE",
"376 0 LINE",
"539 0 LINE",
"565 137 LINE",
"653 137 LINE",
"684 274 LINE",
"592 274 LINE",
"626 447 LINE",
"700 447 LINE",
"731 585 LINE",
"653 585 LINE",
"683 740 LINE",
"521 740 LINE",
"491 585 LINE",
"332 585 LINE",
"362 740 LINE",
"200 740 LINE",
"169 585 LINE",
"81 585 LINE"
);
},
{
closed = 1;
nodes = (
"305 447 LINE",
"463 447 LINE",
"430 274 LINE",
"272 274 LINE"
);
}
);
width = 751;
},
{
layerId = UUID1;
paths = (
{
closed = 1;
nodes = (
"63 488 LINE",
"187 488 LINE",
"146 285 LINE",
"30 285 LINE",
"10 190 LINE",
"127 190 LINE",
"90 0 LINE",
"186 0 LINE",
"223 190 LINE",
"394 190 LINE",
"357 0 LINE",
"451 0 LINE",
"488 190 LINE",
"605 190 LINE",
"623 285 LINE",
"506 285 LINE",
"546 488 LINE",
"656 488 LINE",
"675 585 LINE",
"565 585 LINE",
"595 740 LINE",
"502 740 LINE",
"471 585 LINE",
"300 585 LINE",
"330 740 LINE",
"237 740 LINE",
"206 585 LINE",
"83 585 LINE"
);
},
{
closed = 1;
nodes = (
"281 488 LINE",
"452 488 LINE",
"413 285 LINE",
"241 285 LINE"
);
}
);
width = 695;
}
);
unicode = 0023;
},
{
glyphname = question;
lastChange = "2016-10-12 20:19:08 +0000";
layers = (
{
components = (
{
name = dotaccent;
transform = "{1, 0, 0, 1, 102, -598}";
}
);
layerId = UUID0;
paths = (
{
closed = 1;
nodes = (
"311 191 LINE",
"311 288 OFFCURVE",
"331 317 OFFCURVE",
"400 366 CURVE",
"467 419 OFFCURVE",
"499 477 OFFCURVE",
"499 548 CURVE SMOOTH",
"499 683 OFFCURVE",
"401 758 OFFCURVE",
"277 758 CURVE SMOOTH",
"144 758 OFFCURVE",
"47 689 OFFCURVE",
"44 546 CURVE",
"199 531 LINE",
"199 598 OFFCURVE",
"231 614 OFFCURVE",
"271 614 CURVE SMOOTH",
"303 614 OFFCURVE",
"324 587 OFFCURVE",
"324 549 CURVE SMOOTH",
"324 495 OFFCURVE",
"309 467 OFFCURVE",
"249 417 CURVE",
"166 359 OFFCURVE",
"158 327 OFFCURVE",
"158 191 CURVE"
);
}
);
width = 582;
},
{
components = (
{
name = dotaccent;
transform = "{1, 0, 0, 1, 80, -626}";
}
);
layerId = UUID1;
paths = (
{
closed = 1;
nodes = (
"274 164 LINE",
"274 312 OFFCURVE",
"293 339 OFFCURVE",
"385 403 CURVE",
"451 449 OFFCURVE",
"486 506 OFFCURVE",
"486 572 CURVE SMOOTH",
"486 675 OFFCURVE",
"414 767 OFFCURVE",
"283 767 CURVE SMOOTH",
"155 767 OFFCURVE",
"66 674 OFFCURVE",
"59 565 CURVE",
"145 559 LINE",
"145 600 OFFCURVE",
"178 683 OFFCURVE",
"283 683 CURVE SMOOTH",
"344 683 OFFCURVE",
"394 627 OFFCURVE",
"394 569 CURVE SMOOTH",
"394 501 OFFCURVE",
"348 482 OFFCURVE",
"279 423 CURVE",
"202 358 OFFCURVE",
"186 300 OFFCURVE",
"186 164 CURVE"
);
}
);
width = 520;
}
);
unicode = 003F;
},
{
glyphname = questiondown;
lastChange = "2016-10-12 20:19:08 +0000";
layers = (
{
components = (
{
name = dotaccent;
transform = "{1, 0, 0, 1, 102, -198}";
}
);
layerId = UUID0;
paths = (
{
closed = 1;
nodes = (
"174 346 LINE",
"174 249 OFFCURVE",
"154 220 OFFCURVE",
"85 171 CURVE",
"18 118 OFFCURVE",
"-14 60 OFFCURVE",
"-14 -11 CURVE SMOOTH",
"-14 -146 OFFCURVE",
"84 -221 OFFCURVE",
"208 -221 CURVE SMOOTH",
"341 -221 OFFCURVE",
"438 -152 OFFCURVE",
"441 -9 CURVE",
"286 6 LINE",
"286 -61 OFFCURVE",
"254 -77 OFFCURVE",
"214 -77 CURVE SMOOTH",
"182 -77 OFFCURVE",
"161 -50 OFFCURVE",
"161 -12 CURVE SMOOTH",
"161 42 OFFCURVE",
"176 70 OFFCURVE",
"236 120 CURVE",
"319 178 OFFCURVE",
"327 210 OFFCURVE",
"327 346 CURVE"
);
}
);
width = 582;
},
{
components = (
{
name = dotaccent;
transform = "{1, 0, 0, 1, 113, -186}";
}
);
layerId = UUID1;
paths = (
{
closed = 1;
nodes = (
"216 381 LINE",
"216 233 OFFCURVE",
"197 206 OFFCURVE",
"105 142 CURVE",
"39 96 OFFCURVE",
"4 39 OFFCURVE",
"4 -27 CURVE SMOOTH",
"4 -130 OFFCURVE",
"76 -222 OFFCURVE",
"207 -222 CURVE SMOOTH",
"335 -222 OFFCURVE",
"424 -129 OFFCURVE",
"431 -20 CURVE",
"345 -14 LINE",
"345 -55 OFFCURVE",
"312 -138 OFFCURVE",
"207 -138 CURVE SMOOTH",
"146 -138 OFFCURVE",
"96 -82 OFFCURVE",
"96 -24 CURVE SMOOTH",
"96 44 OFFCURVE",
"142 63 OFFCURVE",
"211 122 CURVE",
"288 187 OFFCURVE",
"304 245 OFFCURVE",
"304 381 CURVE"
);
}
);
width = 520;
}
);
unicode = 00BF;
},
{
glyphname = quotedbl;
lastChange = "2016-10-12 20:19:08 +0000";
layers = (
{
layerId = UUID0;
paths = (
{
closed = 1;
nodes = (
"150 770 LINE",
"20 770 LINE",
"40 517 LINE",
"141 517 LINE"
);
},
{
closed = 1;
nodes = (
"310 770 LINE",
"183 770 LINE",
"190 517 LINE",
"287 517 LINE"
);
}
);
width = 318;
},
{
layerId = UUID1;
paths = (
{
closed = 1;
nodes = (
"150 770 LINE",
"20 770 LINE",
"40 517 LINE",
"141 517 LINE"
);
},
{
closed = 1;
nodes = (
"310 770 LINE",
"183 770 LINE",
"190 517 LINE",
"287 517 LINE"
);
}
);
width = 318;
}
);
unicode = 0022;
},
{
glyphname = quotesingle;
lastChange = "2016-10-12 20:19:08 +0000";
layers = (
{
layerId = UUID0;
paths = (
{
closed = 1;
nodes = (
"158 778 LINE",
"18 770 LINE",
"18 517 LINE",
"125 517 LINE"
);
}
);
width = 166;
},
{
layerId = UUID1;
paths = (
{
closed = 1;
nodes = (
"158 778 LINE",
"18 770 LINE",
"18 517 LINE",
"125 517 LINE"
);
}
);
width = 166;
}
);
unicode = 0027;
},
{
glyphname = slash;
lastChange = "2016-10-12 20:19:08 +0000";
layers = (
{
layerId = UUID0;
paths = (
{
closed = 1;
nodes = (
"24 0 LINE",
"152 0 LINE",
"434 760 LINE",
"309 760 LINE"
);
}
);
width = 394;
},
{
layerId = UUID1;
paths = (
{
closed = 1;
nodes = (
"24 0 LINE",
"109 0 LINE",
"396 760 LINE",
"311 760 LINE"
);
}
);
width = 414;
}
);
unicode = 002F;
},
{
glyphname = underscore;
lastChange = "2016-10-12 20:19:07 +0000";
layers = (
{
hints = (
{
place = "{0, 500}";
},
{
horizontal = 1;
place = "{-125, 50}";
}
);
layerId = UUID0;
paths = (
{
closed = 1;
nodes = (
"0 -169 LINE",
"500 -169 LINE",
"500 -44 LINE",
"0 -44 LINE"
);
}
);
width = 500;
},
{
hints = (
{
place = "{0, 500}";
},
{
horizontal = 1;
place = "{-125, 50}";
}
);
layerId = UUID1;
paths = (
{
closed = 1;
nodes = (
"0 -125 LINE",
"500 -125 LINE",
"500 -75 LINE",
"0 -75 LINE"
);
}
);
width = 500;
}
);
unicode = 005F;
},
{
glyphname = braceleft;
lastChange = "2016-10-12 20:19:08 +0000";
layers = (
{
layerId = UUID0;
paths = (
{
closed = 1;
nodes = (
"50 296 LINE",
"120 285 OFFCURVE",
"166 310 OFFCURVE",
"166 185 CURVE SMOOTH",
"166 -9 LINE SMOOTH",
"166 -136 OFFCURVE",
"216 -179 OFFCURVE",
"313 -179 CURVE SMOOTH",
"374 -179 OFFCURVE",
"408 -175 OFFCURVE",
"408 -175 CURVE",
"408 -95 LINE",
"408 -15 LINE",
"347 -12 OFFCURVE",
"337 -2 OFFCURVE",
"337 65 CURVE SMOOTH",
"337 174 LINE SMOOTH",
"337 233 OFFCURVE",
"353 314 OFFCURVE",
"282 344 CURVE",
"282 344 LINE",
"328 365 OFFCURVE",
"337 393 OFFCURVE",
"337 436 CURVE SMOOTH",
"337 636 LINE SMOOTH",
"337 694 OFFCURVE",
"347 709 OFFCURVE",
"408 711 CURVE",
"408 786 LINE",
"408 861 LINE",
"408 861 OFFCURVE",
"374 865 OFFCURVE",
"313 865 CURVE SMOOTH",
"232 865 OFFCURVE",
"184 835 OFFCURVE",
"170 751 CURVE SMOOTH",
"167 735 OFFCURVE",
"166 716 OFFCURVE",
"166 695 CURVE SMOOTH",
"166 538 LINE SMOOTH",
"166 370 OFFCURVE",
"132 402 OFFCURVE",
"50 389 CURVE"
);
}
);
width = 438;
},
{
layerId = UUID1;
paths = (
{
closed = 1;
nodes = (
"65 257 LINE",
"119 257 OFFCURVE",
"147 192 OFFCURVE",
"147 127 CURVE SMOOTH",
"147 -55 LINE SMOOTH",
"147 -137 OFFCURVE",
"199 -184 OFFCURVE",
"250 -184 CURVE SMOOTH",
"272 -184 OFFCURVE",
"294 -184 OFFCURVE",
"317 -184 CURVE",
"317 -122 LINE",
"283 -122 LINE",
"249 -122 OFFCURVE",
"237 -86 OFFCURVE",
"237 -25 CURVE SMOOTH",
"237 145 LINE SMOOTH",
"237 224 OFFCURVE",
"201 270 OFFCURVE",
"155 287 CURVE",
"155 289 LINE",
"201 306 OFFCURVE",
"237 351 OFFCURVE",
"237 431 CURVE SMOOTH",
"237 601 LINE SMOOTH",
"237 662 OFFCURVE",
"248 698 OFFCURVE",
"283 698 CURVE",
"317 698 LINE",
"317 760 LINE",
"294 760 OFFCURVE",
"272 760 OFFCURVE",
"250 760 CURVE SMOOTH",
"199 760 OFFCURVE",
"147 713 OFFCURVE",
"147 631 CURVE SMOOTH",
"147 619 OFFCURVE",
"147 607 OFFCURVE",
"147 595 CURVE SMOOTH",
"147 449 LINE SMOOTH",
"147 384 OFFCURVE",
"119 319 OFFCURVE",
"65 319 CURVE"
);
}
);
width = 352;
}
);
unicode = 007B;
},
{
glyphname = braceright;
lastChange = "2016-10-12 20:19:08 +0000";
layers = (
{
layerId = UUID0;
paths = (
{
closed = 1;
nodes = (
"30 -95 LINE",
"30 -15 LINE",
"91 -12 OFFCURVE",
"101 -2 OFFCURVE",
"101 65 CURVE SMOOTH",
"101 246 LINE SMOOTH",
"101 287 OFFCURVE",
"109 324 OFFCURVE",
"156 344 CURVE",
"156 344 LINE",
"110 365 OFFCURVE",
"101 393 OFFCURVE",
"101 436 CURVE SMOOTH",
"101 636 LINE SMOOTH",
"101 694 OFFCURVE",
"91 709 OFFCURVE",
"30 711 CURVE",
"30 786 LINE",
"30 861 LINE",
"30 861 OFFCURVE",
"64 865 OFFCURVE",
"125 865 CURVE SMOOTH",
"206 865 OFFCURVE",
"254 835 OFFCURVE",
"268 752 CURVE SMOOTH",
"271 735 OFFCURVE",
"272 716 OFFCURVE",
"272 695 CURVE SMOOTH",
"272 538 LINE SMOOTH",
"272 371 OFFCURVE",
"306 402 OFFCURVE",
"388 389 CURVE",
"388 296 LINE",
"306 283 OFFCURVE",
"272 315 OFFCURVE",
"272 146 CURVE SMOOTH",
"272 -9 LINE SMOOTH",
"272 -30 OFFCURVE",
"271 -49 OFFCURVE",
"268 -66 CURVE SMOOTH",
"254 -149 OFFCURVE",
"206 -179 OFFCURVE",
"125 -179 CURVE SMOOTH",
"64 -179 OFFCURVE",
"30 -175 OFFCURVE",
"30 -175 CURVE"
);
}
);
width = 438;
},
{
layerId = UUID1;
paths = (
{
closed = 1;
nodes = (
"35 -122 LINE",
"69 -122 LINE",
"104 -122 OFFCURVE",
"115 -86 OFFCURVE",
"115 -25 CURVE SMOOTH",
"115 145 LINE SMOOTH",
"115 225 OFFCURVE",
"151 270 OFFCURVE",
"197 287 CURVE",
"197 289 LINE",
"151 306 OFFCURVE",
"115 351 OFFCURVE",
"115 431 CURVE SMOOTH",
"115 601 LINE SMOOTH",
"115 662 OFFCURVE",
"104 698 OFFCURVE",
"69 698 CURVE",
"35 698 LINE",
"35 760 LINE",
"58 760 OFFCURVE",
"80 760 OFFCURVE",
"102 760 CURVE SMOOTH",
"153 760 OFFCURVE",
"205 713 OFFCURVE",
"205 631 CURVE SMOOTH",
"205 619 OFFCURVE",
"205 607 OFFCURVE",
"205 595 CURVE SMOOTH",
"205 449 LINE SMOOTH",
"205 384 OFFCURVE",
"233 319 OFFCURVE",
"287 319 CURVE",
"287 257 LINE",
"233 257 OFFCURVE",
"205 192 OFFCURVE",
"205 127 CURVE SMOOTH",
"205 -19 LINE SMOOTH",
"205 -31 OFFCURVE",
"205 -43 OFFCURVE",
"205 -55 CURVE SMOOTH",
"205 -137 OFFCURVE",
"153 -184 OFFCURVE",
"102 -184 CURVE SMOOTH",
"80 -184 OFFCURVE",
"58 -184 OFFCURVE",
"35 -184 CURVE"
);
}
);
width = 352;
}
);
unicode = 007D;
},
{
glyphname = bracketleft;
lastChange = "2016-10-12 20:19:08 +0000";
layers = (
{
layerId = UUID0;
paths = (
{
closed = 1;
nodes = (
"40 -250 LINE",
"307 -250 LINE",
"307 -129 LINE",
"198 -129 LINE",
"198 667 LINE",
"307 667 LINE",
"307 787 LINE",
"40 787 LINE"
);
}
);
width = 327;
},
{
layerId = UUID1;
paths = (
{
closed = 1;
nodes = (
"116 -184 LINE",
"313 -184 LINE",
"313 -110 LINE",
"206 -110 LINE",
"206 686 LINE",
"313 686 LINE",
"313 760 LINE",
"116 760 LINE"
);
}
);
width = 352;
}
);
unicode = 005B;
},
{
glyphname = bracketright;
lastChange = "2016-10-12 20:19:08 +0000";
layers = (
{
layerId = UUID0;
paths = (
{
closed = 1;
nodes = (
"130 -129 LINE",
"21 -129 LINE",
"21 -250 LINE",
"288 -250 LINE",
"288 787 LINE",
"21 787 LINE",
"21 667 LINE",
"130 667 LINE"
);
}
);
width = 327;
},
{
layerId = UUID1;
paths = (
{
closed = 1;
nodes = (
"146 -110 LINE",
"39 -110 LINE",
"39 -184 LINE",
"236 -184 LINE",
"236 760 LINE",
"39 760 LINE",
"39 686 LINE",
"146 686 LINE"
);
}
);
width = 352;
}
);
unicode = 005D;
},
{
glyphname = parenleft;
lastChange = "2016-10-12 20:19:08 +0000";
layers = (
{
layerId = UUID0;
paths = (
{
closed = 1;
nodes = (
"370 -150 LINE",
"271 -18 OFFCURVE",
"212 150 OFFCURVE",
"212 316 CURVE SMOOTH",
"212 481 OFFCURVE",
"271 649 OFFCURVE",
"371 780 CURVE",
"251 864 LINE",
"122 707 OFFCURVE",
"53 515 OFFCURVE",
"53 316 CURVE SMOOTH",
"53 118 OFFCURVE",
"122 -72 OFFCURVE",
"249 -228 CURVE"
);
}
);
width = 352;
},
{
layerId = UUID1;
paths = (
{
closed = 1;
nodes = (
"326 -166 LINE",
"223 -36 OFFCURVE",
"165 125 OFFCURVE",
"165 288 CURVE SMOOTH",
"165 451 OFFCURVE",
"223 612 OFFCURVE",
"326 742 CURVE",
"259 796 LINE",
"142 650 OFFCURVE",
"69 473 OFFCURVE",
"69 288 CURVE SMOOTH",
"69 103 OFFCURVE",
"142 -74 OFFCURVE",
"259 -220 CURVE"
);
}
);
width = 352;
}
);
unicode = 0028;
},
{
glyphname = parenright;
lastChange = "2016-10-12 20:19:08 +0000";
layers = (
{
layerId = UUID0;
paths = (
{
closed = 1;
nodes = (
"123 -228 LINE",
"252 -71 OFFCURVE",
"321 121 OFFCURVE",
"321 320 CURVE SMOOTH",
"321 518 OFFCURVE",
"252 708 OFFCURVE",
"125 864 CURVE",
"4 786 LINE",
"103 654 OFFCURVE",
"162 486 OFFCURVE",
"162 320 CURVE SMOOTH",
"162 155 OFFCURVE",
"103 -13 OFFCURVE",
"3 -144 CURVE"
);
}
);
width = 352;
},
{
layerId = UUID1;
paths = (
{
closed = 1;
nodes = (
"93 -220 LINE",
"210 -74 OFFCURVE",
"283 103 OFFCURVE",
"283 288 CURVE SMOOTH",
"283 473 OFFCURVE",
"210 650 OFFCURVE",
"93 796 CURVE",
"26 742 LINE",
"129 612 OFFCURVE",
"187 451 OFFCURVE",
"187 288 CURVE SMOOTH",
"187 125 OFFCURVE",
"129 -36 OFFCURVE",
"26 -166 CURVE"
);
}
);
width = 352;
}
);
unicode = 0029;
},
{
glyphname = emdash;
lastChange = "2016-10-12 20:19:08 +0000";
layers = (
{
layerId = UUID0;
paths = (
{
closed = 1;
nodes = (
"0 224 LINE",
"900 224 LINE",
"900 358 LINE",
"0 358 LINE"
);
}
);
width = 900;
},
{
layerId = UUID1;
paths = (
{
closed = 1;
nodes = (
"0 237 LINE",
"1000 237 LINE",
"1000 316 LINE",
"0 316 LINE"
);
}
);
width = 1000;
}
);
unicode = 2014;
},
{
glyphname = endash;
lastChange = "2016-10-12 20:19:08 +0000";
layers = (
{
layerId = UUID0;
paths = (
{
closed = 1;
nodes = (
"50 224 LINE",
"550 224 LINE",
"550 358 LINE",
"50 358 LINE"
);
}
);
width = 600;
},
{
layerId = UUID1;
paths = (
{
closed = 1;
nodes = (
"0 237 LINE",
"500 237 LINE",
"500 316 LINE",
"0 316 LINE"
);
}
);
width = 500;
}
);
unicode = 2013;
},
{
glyphname = hyphen;
lastChange = "2016-10-12 20:19:08 +0000";
layers = (
{
layerId = UUID0;
paths = (
{
closed = 1;
nodes = (
"336 219 LINE",
"336 353 LINE",
"30 353 LINE",
"30 219 LINE"
);
}
);
width = 376;
},
{
layerId = UUID1;
paths = (
{
closed = 1;
nodes = (
"315 242 LINE",
"315 326 LINE",
"46 326 LINE",
"46 242 LINE"
);
}
);
width = 360;
}
);
unicode = 002D;
},
{
glyphname = guillemotleft;
lastChange = "2016-10-12 20:19:08 +0000";
layers = (
{
layerId = UUID0;
paths = (
{
closed = 1;
nodes = (
"173 275 LINE",
"276 473 LINE",
"167 473 LINE",
"40 293 LINE",
"40 257 LINE",
"165 76 LINE",
"277 76 LINE"
);
},
{
closed = 1;
nodes = (
"388 275 LINE",
"491 473 LINE",
"382 473 LINE",
"255 293 LINE",
"255 257 LINE",
"380 76 LINE",
"492 76 LINE"
);
}
);
width = 507;
},
{
layerId = UUID1;
paths = (
{
closed = 1;
nodes = (
"139 276 LINE",
"251 468 LINE",
"157 468 LINE",
"77 324 LINE",
"50 276 LINE",
"157 84 LINE",
"251 84 LINE"
);
},
{
closed = 1;
nodes = (
"346 276 LINE",
"458 468 LINE",
"364 468 LINE",
"284 324 LINE",
"257 276 LINE",
"364 84 LINE",
"458 84 LINE"
);
}
);
width = 508;
}
);
unicode = 00AB;
},
{
glyphname = guillemotright;
lastChange = "2016-10-12 20:19:08 +0000";
layers = (
{
layerId = UUID0;
paths = (
{
closed = 1;
nodes = (
"119 275 LINE",
"16 473 LINE",
"125 473 LINE",
"252 293 LINE",
"252 257 LINE",
"127 76 LINE",
"15 76 LINE"
);
},
{
closed = 1;
nodes = (
"334 275 LINE",
"231 473 LINE",
"340 473 LINE",
"467 293 LINE",
"467 257 LINE",
"342 76 LINE",
"230 76 LINE"
);
}
);
width = 505;
},
{
layerId = UUID1;
paths = (
{
closed = 1;
nodes = (
"162 276 LINE",
"50 468 LINE",
"144 468 LINE",
"224 324 LINE",
"251 276 LINE",
"144 84 LINE",
"50 84 LINE"
);
},
{
closed = 1;
nodes = (
"369 276 LINE",
"257 468 LINE",
"351 468 LINE",
"431 324 LINE",
"458 276 LINE",
"351 84 LINE",
"257 84 LINE"
);
}
);
width = 508;
}
);
unicode = 00BB;
},
{
glyphname = guilsinglleft;
lastChange = "2016-10-12 20:19:08 +0000";
layers = (
{
layerId = UUID0;
paths = (
{
closed = 1;
nodes = (
"173 335 LINE",
"276 533 LINE",
"167 533 LINE",
"40 353 LINE",
"40 317 LINE",
"165 136 LINE",
"277 136 LINE"
);
}
);
width = 292;
},
{
layerId = UUID1;
paths = (
{
closed = 1;
nodes = (
"139 276 LINE",
"251 468 LINE",
"157 468 LINE",
"77 324 LINE",
"50 276 LINE",
"157 84 LINE",
"251 84 LINE"
);
}
);
width = 301;
}
);
unicode = 2039;
},
{
glyphname = guilsinglright;
lastChange = "2016-10-12 20:19:08 +0000";
layers = (
{
layerId = UUID0;
paths = (
{
closed = 1;
nodes = (
"119 335 LINE",
"16 533 LINE",
"125 533 LINE",
"252 353 LINE",
"252 317 LINE",
"127 136 LINE",
"15 136 LINE"
);
}
);
width = 290;
},
{
layerId = UUID1;
paths = (
{
closed = 1;
nodes = (
"162 276 LINE",
"50 468 LINE",
"144 468 LINE",
"224 324 LINE",
"251 276 LINE",
"144 84 LINE",
"50 84 LINE"
);
}
);
width = 301;
}
);
unicode = 203A;
},
{
glyphname = quotedblleft;
lastChange = "2016-10-12 20:19:08 +0000";
layers = (
{
layerId = UUID0;
paths = (
{
closed = 1;
nodes = (
"224 535 LINE",
"363 483 LINE",
"468 768 LINE",
"360 809 LINE"
);
},
{
closed = 1;
nodes = (
"-15 540 LINE",
"124 488 LINE",
"242 767 LINE",
"134 812 LINE"
);
}
);
width = 458;
},
{
layerId = UUID1;
paths = (
{
closed = 1;
nodes = (
"271 516 LINE",
"364 478 LINE",
"457 729 LINE",
"393 760 LINE"
);
},
{
closed = 1;
nodes = (
"63 516 LINE",
"156 478 LINE",
"249 729 LINE",
"185 760 LINE"
);
}
);
width = 520;
}
);
unicode = 201C;
},
{
glyphname = quotedblright;
lastChange = "2016-10-12 20:19:08 +0000";
layers = (
{
layerId = UUID0;
paths = (
{
closed = 1;
nodes = (
"241 760 LINE",
"102 812 LINE",
"-3 527 LINE",
"105 486 LINE"
);
},
{
closed = 1;
nodes = (
"480 755 LINE",
"341 807 LINE",
"223 528 LINE",
"331 483 LINE"
);
}
);
width = 479;
},
{
layerId = UUID1;
paths = (
{
closed = 1;
nodes = (
"231 722 LINE",
"138 760 LINE",
"45 509 LINE",
"109 478 LINE"
);
},
{
closed = 1;
nodes = (
"439 722 LINE",
"346 760 LINE",
"253 509 LINE",
"317 478 LINE"
);
}
);
width = 502;
}
);
unicode = 201D;
},
{
glyphname = quoteleft;
lastChange = "2016-10-12 20:19:08 +0000";
layers = (
{
layerId = UUID0;
paths = (
{
closed = 1;
nodes = (
"10 542 LINE",
"159 490 LINE",
"249 768 LINE",
"149 806 LINE"
);
}
);
width = 259;
},
{
layerId = UUID1;
paths = (
{
closed = 1;
nodes = (
"55 516 LINE",
"148 478 LINE",
"241 729 LINE",
"177 760 LINE"
);
}
);
width = 296;
}
);
unicode = 2018;
},
{
glyphname = quoteright;
lastChange = "2016-10-12 20:19:08 +0000";
layers = (
{
layerId = UUID0;
paths = (
{
closed = 1;
nodes = (
"10 520 LINE",
"110 482 LINE",
"249 746 LINE",
"100 798 LINE"
);
}
);
width = 260;
},
{
layerId = UUID1;
paths = (
{
closed = 1;
nodes = (
"45 486 LINE",
"115 460 LINE",
"242 722 LINE",
"135 764 LINE"
);
}
);
width = 296;
}
);
unicode = 2019;
},
{
glyphname = .notdef;
lastChange = "2016-10-12 20:19:08 +0000";
layers = (
{
layerId = UUID0;
paths = (
{
closed = 1;
nodes = (
"50 0 LINE",
"507 0 LINE",
"507 740 LINE",
"50 740 LINE"
);
},
{
closed = 1;
nodes = (
"100 690 LINE",
"457 690 LINE",
"457 50 LINE",
"100 50 LINE"
);
}
);
width = 557;
},
{
layerId = UUID1;
paths = (
{
closed = 1;
nodes = (
"50 0 LINE",
"507 0 LINE",
"507 740 LINE",
"50 740 LINE"
);
},
{
closed = 1;
nodes = (
"100 690 LINE",
"457 690 LINE",
"457 50 LINE",
"100 50 LINE"
);
}
);
width = 557;
}
);
},
{
glyphname = cent;
lastChange = "2016-10-12 20:19:08 +0000";
layers = (
{
components = (
{
name = c;
transform = "{1, 0, 0, 1, 0, 80}";
}
);
layerId = UUID0;
paths = (
{
closed = 1;
nodes = (
"387 -92 LINE",
"387 90 LINE",
"225 90 LINE",
"225 -92 LINE"
);
},
{
closed = 1;
nodes = (
"387 590 LINE",
"387 771 LINE",
"225 771 LINE",
"225 590 LINE"
);
}
);
width = 608;
},
{
components = (
{
name = c;
transform = "{1, 0, 0, 1, 10, 80}";
}
);
layerId = UUID1;
paths = (
{
closed = 1;
nodes = (
"348 -91 LINE",
"348 100 LINE",
"252 100 LINE",
"252 -91 LINE"
);
},
{
closed = 1;
nodes = (
"348 581 LINE",
"348 771 LINE",
"252 771 LINE",
"252 581 LINE"
);
}
);
width = 591;
}
);
unicode = 00A2;
},
{
glyphname = currency;
lastChange = "2016-10-12 20:19:08 +0000";
layers = (
{
layerId = UUID0;
paths = (
{
closed = 1;
nodes = (
"89 317 OFFCURVE",
"100 276 OFFCURVE",
"119 239 CURVE",
"32 144 LINE",
"161 27 LINE",
"247 121 LINE",
"279 107 OFFCURVE",
"315 99 OFFCURVE",
"352 99 CURVE SMOOTH",
"389 99 OFFCURVE",
"423 106 OFFCURVE",
"455 120 CURVE",
"542 27 LINE",
"671 144 LINE",
"583 237 LINE",
"604 274 OFFCURVE",
"615 317 OFFCURVE",
"615 362 CURVE SMOOTH",
"615 407 OFFCURVE",
"604 449 OFFCURVE",
"583 486 CURVE",
"678 589 LINE",
"549 707 LINE",
"455 604 LINE",
"423 617 OFFCURVE",
"388 625 OFFCURVE",
"352 625 CURVE SMOOTH",
"315 625 OFFCURVE",
"280 617 OFFCURVE",
"249 604 CURVE",
"154 707 LINE",
"25 589 LINE",
"120 485 LINE",
"100 449 OFFCURVE",
"89 406 OFFCURVE",
"89 362 CURVE SMOOTH"
);
},
{
closed = 1;
nodes = (
"229 434 OFFCURVE",
"283 489 OFFCURVE",
"352 489 CURVE SMOOTH",
"420 489 OFFCURVE",
"475 435 OFFCURVE",
"475 366 CURVE SMOOTH",
"475 297 OFFCURVE",
"420 243 OFFCURVE",
"352 243 CURVE SMOOTH",
"283 243 OFFCURVE",
"229 297 OFFCURVE",
"229 366 CURVE SMOOTH"
);
}
);
width = 702;
},
{
layerId = UUID1;
paths = (
{
closed = 1;
nodes = (
"61 313 OFFCURVE",
"78 267 OFFCURVE",
"105 230 CURVE",
"27 137 LINE",
"108 83 LINE",
"179 168 LINE",
"209 153 OFFCURVE",
"243 144 OFFCURVE",
"280 144 CURVE SMOOTH",
"317 144 OFFCURVE",
"352 153 OFFCURVE",
"382 169 CURVE",
"452 86 LINE",
"526 144 LINE",
"454 230 LINE",
"482 267 OFFCURVE",
"499 313 OFFCURVE",
"499 363 CURVE SMOOTH",
"499 413 OFFCURVE",
"482 460 OFFCURVE",
"453 497 CURVE",
"524 582 LINE",
"446 638 LINE",
"379 558 LINE",
"349 573 OFFCURVE",
"315 582 OFFCURVE",
"280 582 CURVE SMOOTH",
"244 582 OFFCURVE",
"209 573 OFFCURVE",
"180 558 CURVE",
"107 645 LINE",
"36 585 LINE",
"108 499 LINE",
"79 461 OFFCURVE",
"61 414 OFFCURVE",
"61 363 CURVE SMOOTH"
);
},
{
closed = 1;
nodes = (
"144 441 OFFCURVE",
"205 502 OFFCURVE",
"281 502 CURVE SMOOTH",
"357 502 OFFCURVE",
"418 441 OFFCURVE",
"418 365 CURVE SMOOTH",
"418 289 OFFCURVE",
"357 228 OFFCURVE",
"281 228 CURVE SMOOTH",
"205 228 OFFCURVE",
"144 289 OFFCURVE",
"144 365 CURVE SMOOTH"
);
}
);
width = 551;
}
);
unicode = 00A4;
},
{
glyphname = dollar;
lastChange = "2016-10-12 20:19:08 +0000";
layers = (
{
layerId = UUID0;
paths = (
{
closed = 1;
nodes = (
"50 117 LINE",
"136 117 LINE",
"159 93 OFFCURVE",
"190 76 OFFCURVE",
"225 65 CURVE",
"225 -92 LINE",
"387 -92 LINE",
"387 65 LINE",
"474 89 OFFCURVE",
"530 152 OFFCURVE",
"530 235 CURVE SMOOTH",
"530 346 OFFCURVE",
"459 370 OFFCURVE",
"315 416 CURVE SMOOTH",
"277 428 OFFCURVE",
"246 440 OFFCURVE",
"246 463 CURVE SMOOTH",
"246 484 OFFCURVE",
"264 496 OFFCURVE",
"296 496 CURVE SMOOTH",
"347 496 OFFCURVE",
"375 466 OFFCURVE",
"376 426 CURVE",
"376 426 LINE",
"376 423 LINE",
"376 423 LINE",
"398 423 OFFCURVE",
"420 423 OFFCURVE",
"443 423 CURVE SMOOTH",
"543 423 LINE",
"543 570 LINE",
"455 570 LINE",
"438 583 OFFCURVE",
"414 596 OFFCURVE",
"387 604 CURVE",
"387 771 LINE",
"225 771 LINE",
"225 613 LINE",
"139 596 OFFCURVE",
"78 544 OFFCURVE",
"78 452 CURVE SMOOTH",
"78 360 OFFCURVE",
"138 315 OFFCURVE",
"211 293 CURVE SMOOTH",
"241 284 OFFCURVE",
"271 274 OFFCURVE",
"302 265 CURVE SMOOTH",
"328 257 OFFCURVE",
"357 243 OFFCURVE",
"357 222 CURVE SMOOTH",
"357 200 OFFCURVE",
"339 185 OFFCURVE",
"305 185 CURVE SMOOTH",
"305 185 OFFCURVE",
"305 185 OFFCURVE",
"305 185 CURVE",
"305 185 OFFCURVE",
"305 185 OFFCURVE",
"305 185 CURVE",
"248 185 OFFCURVE",
"217 218 OFFCURVE",
"217 264 CURVE",
"50 264 LINE"
);
}
);
width = 608;
},
{
layerId = UUID1;
paths = (
{
closed = 1;
nodes = (
"73 148 LINE",
"131 148 LINE",
"153 108 OFFCURVE",
"188 77 OFFCURVE",
"252 66 CURVE",
"252 -91 LINE",
"348 -91 LINE",
"348 66 LINE",
"443 82 OFFCURVE",
"508 144 OFFCURVE",
"508 224 CURVE SMOOTH",
"508 331 OFFCURVE",
"418 351 OFFCURVE",
"285 392 CURVE SMOOTH",
"245 404 OFFCURVE",
"192 410 OFFCURVE",
"192 465 CURVE SMOOTH",
"192 505 OFFCURVE",
"230 530 OFFCURVE",
"301 530 CURVE SMOOTH",
"359 530 OFFCURVE",
"398 501 OFFCURVE",
"404 459 CURVE",
"404 448 LINE",
"405 448 LINE",
"405 447 LINE",
"409 447 OFFCURVE",
"413 448 OFFCURVE",
"417 448 CURVE SMOOTH",
"518 448 LINE",
"518 532 LINE",
"469 532 LINE",
"444 567 OFFCURVE",
"403 594 OFFCURVE",
"348 604 CURVE",
"348 771 LINE",
"252 771 LINE",
"252 604 LINE",
"155 591 OFFCURVE",
"99 537 OFFCURVE",
"99 461 CURVE SMOOTH",
"99 377 OFFCURVE",
"152 335 OFFCURVE",
"226 315 CURVE SMOOTH",
"255 307 OFFCURVE",
"283 300 OFFCURVE",
"312 292 CURVE SMOOTH",
"355 281 OFFCURVE",
"411 268 OFFCURVE",
"411 219 CURVE SMOOTH",
"411 172 OFFCURVE",
"370 146 OFFCURVE",
"305 146 CURVE SMOOTH",
"234 146 OFFCURVE",
"197 175 OFFCURVE",
"197 227 CURVE",
"197 227 OFFCURVE",
"197 227 OFFCURVE",
"196 227 CURVE",
"196 229 OFFCURVE",
"196 230 OFFCURVE",
"196 232 CURVE",
"73 232 LINE"
);
}
);
width = 591;
}
);
unicode = 0024;
},
{
glyphname = sterling;
lastChange = "2016-10-12 20:19:08 +0000";
layers = (
{
layerId = UUID0;
paths = (
{
closed = 1;
nodes = (
"20 285 LINE",
"109 285 LINE",
"114 273 OFFCURVE",
"118 261 OFFCURVE",
"122 249 CURVE",
"132 214 OFFCURVE",
"130 168 OFFCURVE",
"120 134 CURVE",
"42 134 LINE",
"42 0 LINE",
"481 0 LINE",
"481 134 LINE",
"276 134 LINE",
"289 162 OFFCURVE",
"297 205 OFFCURVE",
"296 246 CURVE SMOOTH",
"296 259 OFFCURVE",
"295 272 OFFCURVE",
"292 285 CURVE",
"377 285 LINE",
"377 405 LINE",
"246 405 LINE",
"229 452 OFFCURVE",
"223 475 OFFCURVE",
"223 501 CURVE SMOOTH",
"223 549 OFFCURVE",
"248 569 OFFCURVE",
"278 569 CURVE SMOOTH",
"311 569 OFFCURVE",
"334 543 OFFCURVE",
"336 491 CURVE",
"391 493 OFFCURVE",
"445 495 OFFCURVE",
"500 497 CURVE",
"489 640 OFFCURVE",
"411 712 OFFCURVE",
"275 712 CURVE SMOOTH",
"170 712 OFFCURVE",
"83 649 OFFCURVE",
"63 546 CURVE SMOOTH",
"61 532 OFFCURVE",
"59 516 OFFCURVE",
"59 500 CURVE SMOOTH",
"59 463 OFFCURVE",
"63 433 OFFCURVE",
"69 405 CURVE",
"20 405 LINE"
);
}
);
width = 520;
},
{
layerId = UUID1;
paths = (
{
closed = 1;
nodes = (
"16 323 LINE",
"139 323 LINE",
"142 316 OFFCURVE",
"145 309 OFFCURVE",
"147 302 CURVE",
"178 213 OFFCURVE",
"164 129 OFFCURVE",
"83 84 CURVE",
"30 84 LINE",
"30 2 LINE",
"420 2 LINE",
"420 84 LINE",
"183 84 LINE",
"241 127 OFFCURVE",
"263 200 OFFCURVE",
"252 249 CURVE SMOOTH",
"247 270 OFFCURVE",
"240 295 OFFCURVE",
"231 323 CURVE",
"345 323 LINE",
"345 394 LINE",
"209 394 LINE",
"187 468 OFFCURVE",
"171 520 OFFCURVE",
"174 554 CURVE SMOOTH",
"177 597 OFFCURVE",
"206 632 OFFCURVE",
"262 632 CURVE SMOOTH",
"312 632 OFFCURVE",
"339 584 OFFCURVE",
"340 534 CURVE",
"367 536 OFFCURVE",
"394 538 OFFCURVE",
"421 539 CURVE",
"427 639 OFFCURVE",
"358 712 OFFCURVE",
"261 712 CURVE SMOOTH",
"154 712 OFFCURVE",
"80 640 OFFCURVE",
"80 539 CURVE SMOOTH",
"80 526 OFFCURVE",
"81 513 OFFCURVE",
"83 500 CURVE SMOOTH",
"87 463 OFFCURVE",
"99 428 OFFCURVE",
"111 394 CURVE",
"16 394 LINE"
);
}
);
width = 455;
}
);
unicode = 00A3;
},
{
glyphname = yen;
lastChange = "2016-10-12 20:19:08 +0000";
layers = (
{
layerId = UUID0;
paths = (
{
closed = 1;
nodes = (
"23 606 LINE",
"88 606 LINE",
"126 555 OFFCURVE",
"164 504 OFFCURVE",
"202 453 CURVE",
"119 453 LINE",
"119 327 LINE",
"295 327 LINE",
"295 327 OFFCURVE",
"295 327 OFFCURVE",
"295 327 CURVE",
"295 298 LINE",
"119 298 LINE",
"119 172 LINE",
"295 172 LINE",
"295 134 LINE",
"213 134 LINE",
"213 0 LINE",
"543 0 LINE",
"543 134 LINE",
"453 134 LINE",
"453 172 LINE",
"631 172 LINE",
"631 298 LINE",
"453 298 LINE",
"453 326 LINE",
"454 326 OFFCURVE",
"454 327 OFFCURVE",
"454 327 CURVE",
"631 327 LINE",
"631 453 LINE",
"553 453 LINE",
"593 504 OFFCURVE",
"633 555 OFFCURVE",
"673 606 CURVE",
"728 606 LINE",
"728 740 LINE",
"411 740 LINE",
"411 606 LINE",
"481 606 LINE",
"447 556 OFFCURVE",
"412 506 OFFCURVE",
"377 456 CURVE",
"344 506 OFFCURVE",
"312 556 OFFCURVE",
"279 606 CURVE",
"340 606 LINE",
"340 740 LINE",
"23 740 LINE"
);
}
);
width = 750;
},
{
layerId = UUID1;
paths = (
{
closed = 1;
nodes = (
"25 656 LINE",
"82 656 LINE",
"133 576 OFFCURVE",
"183 495 OFFCURVE",
"234 414 CURVE",
"147 414 LINE",
"147 345 LINE",
"277 345 LINE",
"278 344 OFFCURVE",
"278 344 OFFCURVE",
"279 343 CURVE",
"279 273 LINE",
"147 273 LINE",
"147 204 LINE",
"279 204 LINE",
"279 84 LINE",
"211 84 LINE",
"211 0 LINE",
"451 0 LINE",
"451 84 LINE",
"375 84 LINE",
"375 204 LINE",
"513 204 LINE",
"513 273 LINE",
"375 273 LINE",
"375 340 LINE",
"376 342 OFFCURVE",
"377 344 OFFCURVE",
"378 345 CURVE",
"513 345 LINE",
"513 414 LINE",
"423 414 LINE",
"477 495 OFFCURVE",
"530 576 OFFCURVE",
"583 656 CURVE",
"646 656 LINE",
"646 740 LINE",
"406 740 LINE",
"406 656 LINE",
"483 656 LINE",
"433 577 OFFCURVE",
"384 498 OFFCURVE",
"334 418 CURVE",
"288 498 OFFCURVE",
"241 577 OFFCURVE",
"194 656 CURVE",
"265 656 LINE",
"265 740 LINE",
"25 740 LINE"
);
}
);
width = 661;
}
);
unicode = 00A5;
},
{
color = (31,255,0,1);
glyphname = divisionslash;
lastChange = "2016-10-12 20:19:08 +0000";
layers = (
{
layerId = UUID0;
paths = (
{
closed = 1;
nodes = (
"-102 -30 LINE",
"26 -30 LINE",
"480 570 LINE",
"355 570 LINE"
);
}
);
width = 180;
},
{
layerId = UUID1;
paths = (
{
closed = 1;
nodes = (
"-99 -30 LINE",
"-2 -30 LINE",
"467 570 LINE",
"370 570 LINE"
);
}
);
width = 180;
}
);
unicode = 2215;
},
{
glyphname = plus;
lastChange = "2016-10-12 20:19:08 +0000";
layers = (
{
layerId = UUID0;
paths = (
{
closed = 1;
nodes = (
"50 213 LINE",
"227 213 LINE",
"227 35 LINE",
"372 35 LINE",
"372 213 LINE",
"550 213 LINE",
"550 358 LINE",
"372 358 LINE",
"372 535 LINE",
"227 535 LINE",
"227 358 LINE",
"50 358 LINE"
);
}
);
width = 600;
},
{
layerId = UUID1;
paths = (
{
closed = 1;
nodes = (
"70 297 LINE",
"275 297 LINE",
"275 91 LINE",
"364 91 LINE",
"364 297 LINE",
"570 297 LINE",
"570 386 LINE",
"364 386 LINE",
"364 591 LINE",
"275 591 LINE",
"275 386 LINE",
"70 386 LINE"
);
}
);
width = 640;
}
);
unicode = 002B;
},
{
glyphname = minus;
lastChange = "2016-10-12 20:19:08 +0000";
layers = (
{
layerId = UUID0;
paths = (
{
closed = 1;
nodes = (
"50 224 LINE",
"550 224 LINE",
"550 358 LINE",
"50 358 LINE"
);
}
);
width = 600;
},
{
layerId = UUID1;
paths = (
{
closed = 1;
nodes = (
"0 237 LINE",
"500 237 LINE",
"500 316 LINE",
"0 316 LINE"
);
}
);
width = 500;
}
);
unicode = 2212;
},
{
glyphname = multiply;
lastChange = "2016-10-12 20:19:08 +0000";
layers = (
{
layerId = UUID0;
paths = (
{
closed = 1;
nodes = (
"36 143 LINE",
"144 46 LINE",
"302 218 LINE",
"461 46 LINE",
"569 143 LINE",
"401 325 LINE",
"575 514 LINE",
"467 612 LINE",
"302 433 LINE",
"138 612 LINE",
"30 514 LINE",
"204 325 LINE"
);
}
);
width = 605;
},
{
layerId = UUID1;
paths = (
{
closed = 1;
nodes = (
"65 101 LINE",
"146 47 LINE",
"319 255 LINE",
"490 50 LINE",
"564 108 LINE",
"380 328 LINE",
"562 546 LINE",
"484 602 LINE",
"317 403 LINE",
"145 609 LINE",
"74 549 LINE",
"256 330 LINE"
);
}
);
width = 636;
}
);
unicode = 00D7;
},
{
glyphname = equal;
lastChange = "2016-10-12 20:19:08 +0000";
layers = (
{
layerId = UUID0;
paths = (
{
closed = 1;
nodes = (
"30 137 LINE",
"456 137 LINE",
"456 277 LINE",
"30 277 LINE"
);
},
{
closed = 1;
nodes = (
"30 347 LINE",
"456 347 LINE",
"456 487 LINE",
"30 487 LINE"
);
}
);
width = 486;
},
{
layerId = UUID1;
paths = (
{
closed = 1;
nodes = (
"42 149 LINE",
"408 149 LINE",
"408 218 LINE",
"42 218 LINE"
);
},
{
closed = 1;
nodes = (
"42 314 LINE",
"408 314 LINE",
"408 383 LINE",
"42 383 LINE"
);
}
);
width = 450;
}
);
unicode = 003D;
},
{
glyphname = greater;
lastChange = "2016-10-12 20:19:08 +0000";
layers = (
{
layerId = UUID0;
paths = (
{
closed = 1;
nodes = (
"389 329 LINE",
"20 463 LINE",
"20 338 LINE",
"239 272 LINE",
"20 202 LINE",
"20 80 LINE",
"389 220 LINE"
);
}
);
width = 404;
},
{
layerId = UUID1;
paths = (
{
closed = 1;
nodes = (
"412 297 LINE",
"26 449 LINE",
"26 379 LINE",
"329 271 LINE",
"26 162 LINE",
"26 93 LINE",
"412 242 LINE"
);
}
);
width = 417;
}
);
unicode = 003E;
},
{
glyphname = less;
lastChange = "2016-10-12 20:19:08 +0000";
layers = (
{
layerId = UUID0;
paths = (
{
closed = 1;
nodes = (
"15 220 LINE",
"384 80 LINE",
"384 202 LINE",
"165 272 LINE",
"384 338 LINE",
"384 463 LINE",
"15 329 LINE"
);
}
);
width = 424;
},
{
layerId = UUID1;
paths = (
{
closed = 1;
nodes = (
"5 245 LINE",
"391 93 LINE",
"391 162 LINE",
"88 273 LINE",
"391 379 LINE",
"391 449 LINE",
"5 300 LINE"
);
}
);
width = 407;
}
);
unicode = 003C;
},
{
glyphname = plusminus;
lastChange = "2016-10-12 20:19:08 +0000";
layers = (
{
components = (
{
name = minus;
transform = "{1, 0, 0, 1, 0, -224}";
}
);
layerId = UUID0;
paths = (
{
closed = 1;
nodes = (
"50 318 LINE",
"227 318 LINE",
"227 160 LINE",
"372 160 LINE",
"372 318 LINE",
"550 318 LINE",
"550 463 LINE",
"372 463 LINE",
"372 640 LINE",
"227 640 LINE",
"227 463 LINE",
"50 463 LINE"
);
}
);
width = 600;
},
{
components = (
{
name = minus;
transform = "{1, 0, 0, 1, 50, -198}";
}
);
layerId = UUID1;
paths = (
{
closed = 1;
nodes = (
"50 347 LINE",
"255 347 LINE",
"255 151 LINE",
"344 151 LINE",
"344 347 LINE",
"550 347 LINE",
"550 436 LINE",
"344 436 LINE",
"344 641 LINE",
"255 641 LINE",
"255 436 LINE",
"50 436 LINE"
);
}
);
width = 600;
}
);
unicode = 00B1;
},
{
glyphname = asciitilde;
lastChange = "2016-10-12 20:19:08 +0000";
layers = (
{
layerId = UUID0;
paths = (
{
closed = 1;
nodes = (
"80 232 LINE",
"81 275 OFFCURVE",
"102 288 OFFCURVE",
"127 288 CURVE SMOOTH",
"170 288 OFFCURVE",
"239 219 OFFCURVE",
"310 219 CURVE SMOOTH",
"427 219 OFFCURVE",
"454 318 OFFCURVE",
"454 376 CURVE",
"364 396 LINE",
"359 357 OFFCURVE",
"345 339 OFFCURVE",
"315 339 CURVE SMOOTH",
"273 339 OFFCURVE",
"176 410 OFFCURVE",
"129 410 CURVE SMOOTH",
"21 410 OFFCURVE",
"-4 309 OFFCURVE",
"-4 250 CURVE"
);
}
);
width = 442;
},
{
layerId = UUID1;
paths = (
{
closed = 1;
nodes = (
"105 180 LINE",
"137 234 OFFCURVE",
"165 254 OFFCURVE",
"193 254 CURVE SMOOTH",
"242 254 OFFCURVE",
"330 184 OFFCURVE",
"406 184 CURVE SMOOTH",
"464 184 OFFCURVE",
"502 216 OFFCURVE",
"531 270 CURVE",
"495 326 LINE",
"463 272 OFFCURVE",
"435 252 OFFCURVE",
"407 252 CURVE SMOOTH",
"358 252 OFFCURVE",
"270 322 OFFCURVE",
"194 322 CURVE SMOOTH",
"136 322 OFFCURVE",
"98 290 OFFCURVE",
"69 236 CURVE"
);
}
);
width = 600;
}
);
unicode = 007E;
},
{
glyphname = logicalnot;
lastChange = "2016-10-12 20:19:08 +0000";
layers = (
{
anchors = (
{
name = top;
position = "{378, 700}";
}
);
layerId = UUID0;
paths = (
{
closed = 1;
nodes = (
"745 506 LINE",
"745 121 LINE",
"605 121 LINE",
"605 382 LINE",
"25 382 LINE",
"25 506 LINE"
);
}
);
width = 780;
},
{
anchors = (
{
name = top;
position = "{255, 700}";
}
);
layerId = UUID1;
paths = (
{
closed = 1;
nodes = (
"558 488 LINE",
"558 211 LINE",
"469 211 LINE",
"469 398 LINE",
"24 398 LINE",
"24 488 LINE"
);
}
);
width = 593;
}
);
unicode = 00AC;
},
{
glyphname = mu;
lastChange = "2016-10-12 20:19:08 +0000";
layers = (
{
anchors = (
{
name = top;
position = "{313, 506}";
}
);
layerId = UUID0;
paths = (
{
closed = 1;
nodes = (
"578 506 LINE",
"420 506 LINE",
"420 174 LINE",
"406 133 OFFCURVE",
"371 107 OFFCURVE",
"332 107 CURVE SMOOTH",
"277 107 OFFCURVE",
"239 140 OFFCURVE",
"239 208 CURVE SMOOTH",
"239 506 LINE",
"237 507 LINE",
"75 507 LINE",
"75 -230 LINE",
"237 -230 LINE",
"237 -1 LINE",
"252 -4 OFFCURVE",
"268 -6 OFFCURVE",
"284 -6 CURVE SMOOTH",
"344 -6 OFFCURVE",
"391 12 OFFCURVE",
"425 43 CURVE",
"425 0 LINE",
"639 0 LINE",
"639 134 LINE",
"578 134 LINE"
);
}
);
width = 659;
},
{
anchors = (
{
name = top;
position = "{281, 506}";
}
);
layerId = UUID1;
paths = (
{
closed = 1;
nodes = (
"497 506 LINE",
"402 506 LINE",
"402 114 LINE",
"364 88 OFFCURVE",
"317 73 OFFCURVE",
"277 73 CURVE SMOOTH",
"210 73 OFFCURVE",
"173 114 OFFCURVE",
"173 191 CURVE SMOOTH",
"173 506 LINE",
"78 505 LINE",
"77 505 LINE",
"77 -230 LINE",
"173 -230 LINE",
"173 3 LINE",
"194 -5 OFFCURVE",
"218 -9 OFFCURVE",
"245 -9 CURVE SMOOTH",
"306 -9 OFFCURVE",
"361 12 OFFCURVE",
"406 47 CURVE",
"406 0 LINE",
"553 0 LINE",
"553 84 LINE",
"497 84 LINE"
);
}
);
width = 585;
}
);
unicode = 00B5;
},
